{
.appVersion = "118";
DisplayStrings = (
GARGANTUANGNOMES
);
copyright = "Copyright (c) 2023, rotenaple (rotenaple@protonmail.com)";
customParameters = (
{
name = license;
value = O;
}
);
date = "2020-06-01 14:23:12 +0000";
designer = rotenaple;
designerURL = "https://github.com/rotenaple";
familyName = Bubbl;
featurePrefixes = (
{
automatic = 1;
code = "languagesystem DFLT dflt;\012languagesystem latn dflt;\012languagesystem latn CAT;\012languagesystem latn ROM;\012languagesystem latn MOL;\012languagesystem latn KAZ;\012languagesystem latn TAT;\012languagesystem latn TRK;\012languagesystem latn CRT;\012languagesystem latn AZE;\012";
name = Languagesystems;
}
);
features = (
{
automatic = 1;
code = "feature locl;\012feature frac;\012feature ordn;\012";
name = aalt;
},
{
automatic = 1;
code = "script latn;\012language CAT;\012sub  L' periodcentered' L by Ldot;\012language ROM;\012sub Scedilla by Scommaaccent;\012sub scedilla by scommaaccent;\012sub Tcedilla by Tcommaaccent;\012sub tcedilla by tcommaaccent;\012language MOL;\012sub Scedilla by Scommaaccent;\012sub scedilla by scommaaccent;\012sub Tcedilla by Tcommaaccent;\012sub tcedilla by tcommaaccent;\012language KAZ;\012sub i by idotaccent;\012language TAT;\012sub i by idotaccent;\012language TRK;\012sub i by idotaccent;\012language CRT;\012sub i by idotaccent;\012language AZE;\012sub i by idotaccent;\012";
name = locl;
},
{
automatic = 1;
code = "sub one slash four by onequarter;\012sub one slash two by onehalf;\012sub three slash four by threequarters;\012";
name = frac;
},
{
automatic = 1;
code = "sub [zero one two three four five six seven eight nine] [A a]' by ordfeminine;\012sub [zero one two three four five six seven eight nine] [O o]' by ordmasculine;\012";
name = ordn;
}
);
fontMaster = (
{
alignmentZones = (
"{1170, 16}",
"{700, 13}",
"{500, 13}",
"{0, -14}",
"{-80, -16}",
"{-300, -16}"
);
ascender = 1150;
capHeight = 840;
custom = Black;
customParameters = (
{
name = "CVT Table";
value = (
41,
792
);
}

glyphs = (
{
glyphname = A;
lastChange = "2023-04-04 04:56:09 +0000";
layers = (
{
anchors = (
{
name = bottom;
position = "{405, 0}";
},
{
name = ogonek;
position = "{633, 0}";
},
{
name = top;
position = "{405, 840}";
},
{
name = topleft;
position = "{78, 840}";
}
);
layerId = "BADE114B-EA49-45B4-AE36-72A7CEB6E1BE";
paths = (
{
closed = 1;
nodes = (
"572 135 LINE",
"572 335 LINE",
"226 335 LINE",
"226 135 LINE"
);
},
{
closed = 1;
nodes = (
"212 0 OFFCURVE",
"266 5 OFFCURVE",
"295 15 CURVE",
"395 571 LINE",
"405 635 LINE",
"405 840 LINE",
"321 840 OFFCURVE",
"260 825 OFFCURVE",
"220 811 CURVE",
"162 654 OFFCURVE",
"48 169 OFFCURVE",
"30 30 CURVE",
"71 10 OFFCURVE",
"109 0 OFFCURVE",
"175 0 CURVE SMOOTH"
);
},
{
closed = 1;
nodes = (
"701 0 OFFCURVE",
"739 10 OFFCURVE",
"780 30 CURVE",
"762 169 OFFCURVE",
"648 654 OFFCURVE",
"590 811 CURVE",
"550 825 OFFCURVE",
"489 840 OFFCURVE",
"405 840 CURVE",
"405 635 LINE",
"415 571 LINE",
"515 15 LINE",
"544 5 OFFCURVE",
"598 0 OFFCURVE",
"635 0 CURVE SMOOTH"
);
}
);
width = 810;
}
);
leftKerningGroup = A;
note = A;
rightKerningGroup = A;
unicode = 0041;
},
{
glyphname = Aogonek;
lastChange = "2023-04-04 07:54:09 +0000";
layers = (
{
anchors = (
{
name = _ogonek;
position = "{647, 0}";
}
);
components = (
{
name = A;
}
);
layerId = "BADE114B-EA49-45B4-AE36-72A7CEB6E1BE";
paths = (
{
closed = 1;
nodes = (
"670 0 OFFCURVE",
"716 8 CURVE",
"758 22 LINE",
"523 101 LINE",
"523 -33 OFFCURVE",
"479 -37 OFFCURVE",
"479 -129 CURVE SMOOTH",
"479 -208 OFFCURVE",
"526 -260 OFFCURVE",
"621 -260 CURVE SMOOTH",
"666 -260 OFFCURVE",
"713 -250 OFFCURVE",
"776 -215 CURVE",
"776 -52 LINE",
"679 -88 OFFCURVE",
"649 -72 OFFCURVE",
"649 -49 CURVE SMOOTH",
"649 -20 OFFCURVE"
);
}
);
width = 810;
}
);
leftKerningGroup = A;
rightKerningGroup = A;
unicode = 0104;
},
{
glyphname = AE;
lastChange = "2023-04-03 08:16:02 +0000";
layers = (
{
anchors = (
{
name = bottom;
position = "{617, 0}";
},
{
name = ogonek;
position = "{979, 0}";
},
{
name = top;
position = "{617, 840}";
},
{
name = topleft;
position = "{537, 840}";
}
);
layerId = "BADE114B-EA49-45B4-AE36-72A7CEB6E1BE";
paths = (
{
closed = 1;
nodes = (
"265 0 OFFCURVE",
"307 22 OFFCURVE",
"307 22 CURVE",
"345 138 OFFCURVE",
"494 493 OFFCURVE",
"568 630 CURVE",
"558 738 LINE",
"387 814 LINE",
"276 621 OFFCURVE",
"124 260 OFFCURVE",
"42 22 CURVE",
"42 22 OFFCURVE",
"90 0 OFFCURVE",
"178 0 CURVE"
);
},
{
closed = 1;
nodes = (
"568 135 LINE",
"568 335 LINE",
"298 335 LINE",
"298 135 LINE"
);
},
{
closed = 1;
nodes = (
"803 420 LINE",
"568 335 LINE",
"568 135 LINE",
"568 92 OFFCURVE",
"576 23 OFFCURVE",
"575 22 CURVE",
"575 22 OFFCURVE",
"626 0 OFFCURVE",
"803 0 CURVE"
);
},
{
closed = 1;
nodes = (
"803 420 LINE",
"803 602 LINE",
"803 840 LINE",
"558 738 LINE",
"568 630 LINE",
"568 335 LINE"
);
},
{
closed = 1;
nodes = (
"803 840 LINE",
"583 840 OFFCURVE",
"456 829 OFFCURVE",
"387 814 CURVE",
"558 738 LINE"
);
},
{
closed = 1;
nodes = (
"1080 317 LINE",
"1084 347 OFFCURVE",
"1086 378 OFFCURVE",
"1086 411 CURVE",
"1086 442 OFFCURVE",
"1083 473 OFFCURVE",
"1080 503 CURVE",
"743 502 LINE",
"743 316 LINE"
);
},
{
closed = 1;
nodes = (
"803 0 LINE",
"950 -1 OFFCURVE",
"1006 0 OFFCURVE",
"1116 11 CURVE",
"1120 30 OFFCURVE",
"1125 127 OFFCURVE",
"1125 214 CURVE",
"1018 206 OFFCURVE",
"910 206 OFFCURVE",
"743 207 CURVE"
);
},
{
closed = 1;
nodes = (
"910 613 OFFCURVE",
"1018 613 OFFCURVE",
"1125 604 CURVE",
"1125 703 OFFCURVE",
"1120 806 OFFCURVE",
"1116 827 CURVE",
"1006 840 OFFCURVE",
"950 841 OFFCURVE",
"803 840 CURVE",
"743 612 LINE"
);
}
);
width = 1233;
}
);
leftKerningGroup = Ae;
rightKerningGroup = I;
unicode = 00C6;
},
{
glyphname = B;
lastChange = "2023-04-03 08:15:56 +0000";
layers = (
{
anchors = (
{
name = bottom;
position = "{377, 0}";
},
{
name = top;
position = "{377, 840}";
}
);
layerId = "BADE114B-EA49-45B4-AE36-72A7CEB6E1BE";
paths = (
{
closed = 1;
nodes = (
"618 -10 OFFCURVE",
"709 96 OFFCURVE",
"709 239 CURVE SMOOTH",
"709 317 OFFCURVE",
"682 384 OFFCURVE",
"594 420 CURVE",
"315 420 LINE",
"315 342 LINE",
"367 342 LINE",
"409 342 OFFCURVE",
"451 323 OFFCURVE",
"451 264 CURVE",
"451 207 OFFCURVE",
"417 178 OFFCURVE",
"358 178 CURVE",
"315 178 LINE",
"335 -10 LINE"
);
},
{
closed = 1;
nodes = (
"315 178 LINE",
"315 420 LINE",
"50 410 LINE",
"50 201 OFFCURVE",
"67 13 OFFCURVE",
"67 12 CURVE",
"67 12 OFFCURVE",
"158 -10 OFFCURVE",
"335 -10 CURVE"
);
},
{
closed = 1;
nodes = (
"315 420 LINE",
"315 662 LINE",
"335 850 LINE",
"158 850 OFFCURVE",
"67 828 OFFCURVE",
"67 828 CURVE",
"67 828 OFFCURVE",
"50 620 OFFCURVE",
"50 410 CURVE"
);
},
{
closed = 1;
nodes = (
"594 420 LINE",
"667 456 OFFCURVE",
"699 523 OFFCURVE",
"699 601 CURVE SMOOTH",
"699 744 OFFCURVE",
"608 850 OFFCURVE",
"335 850 CURVE",
"315 662 LINE",
"368 662 LINE",
"409 662 OFFCURVE",
"443 633 OFFCURVE",
"443 576 CURVE",
"443 517 OFFCURVE",
"402 498 OFFCURVE",
"377 498 CURVE",
"315 498 LINE",
"315 420 LINE"
);
}
);
width = 754;
}
);
leftKerningGroup = I;
note = B;
rightKerningGroup = B;
unicode = 0042;
},
{
glyphname = C;
lastChange = "2023-08-10 15:25:29 +0000";
layers = (
{
anchors = (
{
name = bottom;
position = "{391, 0}";
},
{
name = top;
position = "{395, 840}";
}
);
layerId = "BADE114B-EA49-45B4-AE36-72A7CEB6E1BE";
paths = (
{
closed = 1;
nodes = (
"596 -10 OFFCURVE",
"707 76 OFFCURVE",
"736 288 CURVE",
"657 308 OFFCURVE",
"569 318 OFFCURVE",
"474 316 CURVE",
"463 222 OFFCURVE",
"437 176 OFFCURVE",
"395 176 CURVE SMOOTH",
"320 176 OFFCURVE",
"310 325 OFFCURVE",
"310 420 CURVE SMOOTH",
"310 515 OFFCURVE",
"320 664 OFFCURVE",
"395 664 CURVE SMOOTH",
"437 664 OFFCURVE",
"463 618 OFFCURVE",
"474 524 CURVE",
"569 522 OFFCURVE",
"657 532 OFFCURVE",
"736 552 CURVE",
"707 764 OFFCURVE",
"596 850 OFFCURVE",
"395 850 CURVE SMOOTH",
"167 850 OFFCURVE",
"45 741 OFFCURVE",
"45 420 CURVE SMOOTH",
"45 166 OFFCURVE",
"116 -10 OFFCURVE",
"395 -10 CURVE SMOOTH"
);
}
);
width = 781;
}
);
leftKerningGroup = O;
note = C;
rightKerningGroup = C;
unicode = 0043;
},
{
glyphname = D;
lastChange = "2023-04-03 08:15:56 +0000";
layers = (
{
anchors = (
{
name = bottom;
position = "{387, 0}";
},
{
name = center;
position = "{387, 420}";
},
{
name = top;
position = "{350, 838}";
}
);
layerId = "BADE114B-EA49-45B4-AE36-72A7CEB6E1BE";
paths = (
{
closed = 1;
nodes = (
"727 786 OFFCURVE",
"552 850 OFFCURVE",
"350 850 CURVE",
"315 635 LINE",
"401 652 OFFCURVE",
"473 608 OFFCURVE",
"473 420 CURVE",
"728 420 LINE"
);
},
{
closed = 1;
nodes = (
"315 205 LINE",
"315 420 LINE",
"50 410 LINE",
"50 201 OFFCURVE",
"67 13 OFFCURVE",
"67 12 CURVE",
"67 12 OFFCURVE",
"173 -10 OFFCURVE",
"350 -10 CURVE"
);
},
{
closed = 1;
nodes = (
"473 420 LINE",
"473 232 OFFCURVE",
"401 188 OFFCURVE",
"315 205 CURVE",
"350 -10 LINE",
"552 -10 OFFCURVE",
"727 54 OFFCURVE",
"728 420 CURVE"
);
},
{
closed = 1;
nodes = (
"315 420 LINE",
"315 635 LINE",
"350 850 LINE",
"173 850 OFFCURVE",
"67 828 OFFCURVE",
"67 828 CURVE",
"67 828 OFFCURVE",
"50 620 OFFCURVE",
"50 410 CURVE"
);
}
);
width = 773;
}
);
leftKerningGroup = I;
note = D;
rightKerningGroup = D;
unicode = 0044;
},
{
glyphname = Eth;
lastChange = "2023-04-03 08:16:02 +0000";
layers = (
{
components = (
{
name = D;
transform = "{1, 0, 0, 1, 50, 0}";
}
);
layerId = "BADE114B-EA49-45B4-AE36-72A7CEB6E1BE";
paths = (
{
closed = 1;
nodes = (
"450 319 LINE",
"450 503 LINE",
"50 503 LINE",
"50 319 LINE"
);
}
);
width = 823;
}
);
leftKerningGroup = Eth;
rightKerningGroup = D;
unicode = 00D0;
},
{
glyphname = E;
lastChange = "2023-08-10 15:36:31 +0000";
layers = (
{
anchors = (
{
name = bottom;
position = "{344, 0}";
},
{
name = ogonek;
position = "{500, 0}";
},
{
name = top;
position = "{344, 840}";
},
{
name = topleft;
position = "{20, 840}";
}
);
layerId = "BADE114B-EA49-45B4-AE36-72A7CEB6E1BE";
paths = (
{
closed = 1;
nodes = (
"309 420 LINE",
"321 691 LINE",
"315 840 LINE",
"138 840 OFFCURVE",
"67 818 OFFCURVE",
"67 818 CURVE",
"67 818 OFFCURVE",
"50 630 OFFCURVE",
"50 420 CURVE"
);
},
{
closed = 1;
nodes = (
"50 210 OFFCURVE",
"67 22 OFFCURVE",
"67 22 CURVE",
"67 22 OFFCURVE",
"138 0 OFFCURVE",
"315 0 CURVE",
"321 149 LINE",
"309 420 LINE",
"50 420 LINE"
);
},
{
closed = 1;
nodes = (
"316 0 LINE",
"463 -1 OFFCURVE",
"519 0 OFFCURVE",
"629 12 CURVE",
"633 33 OFFCURVE",
"638 68 OFFCURVE",
"637 138 CURVE SMOOTH",
"636 203 OFFCURVE",
"632 235 OFFCURVE",
"625 254 CURVE",
"532 252 LINE",
"524 232 OFFCURVE",
"500 215 OFFCURVE",
"459 215 CURVE SMOOTH",
"390 215 OFFCURVE",
"333 217 OFFCURVE",
"306 221 CURVE"
);
},
{
closed = 1;
nodes = (
"332 623 OFFCURVE",
"389 625 OFFCURVE",
"458 625 CURVE SMOOTH",
"499 625 OFFCURVE",
"523 608 OFFCURVE",
"531 588 CURVE",
"624 586 LINE",
"631 605 OFFCURVE",
"635 637 OFFCURVE",
"636 702 CURVE SMOOTH",
"637 772 OFFCURVE",
"632 807 OFFCURVE",
"628 828 CURVE",
"518 840 OFFCURVE",
"462 841 OFFCURVE",
"315 840 CURVE",
"305 619 LINE"
);
},
{
closed = 1;
nodes = (
"502 323 LINE",
"506 351 OFFCURVE",
"508 390 OFFCURVE",
"508 421 CURVE",
"508 450 OFFCURVE",
"505 489 OFFCURVE",
"502 517 CURVE",
"245 512 LINE",
"245 326 LINE"
);
}
);
width = 687;
}
);
leftKerningGroup = I;
note = E;
rightKerningGroup = E;
unicode = 0045;
},
{
glyphname = F;
lastChange = "2023-08-10 15:36:58 +0000";
layers = (
{
anchors = (
{
name = _top;
position = "{341, 840}";
},
{
name = bottom;
position = "{341, 0}";
},
{
name = bottomright;
position = "{663, 0}";
},
{
name = top;
position = "{341, 840}";
}
);
components = (
{
name = Gamma;
}
);
layerId = "BADE114B-EA49-45B4-AE36-72A7CEB6E1BE";
paths = (
{
closed = 1;
nodes = (
"532 313 LINE",
"536 341 OFFCURVE",
"538 380 OFFCURVE",
"538 411 CURVE",
"538 440 OFFCURVE",
"535 479 OFFCURVE",
"532 507 CURVE",
"265 502 LINE",
"265 316 LINE"
);
}
);
width = 682;
}
);
leftKerningGroup = I;
note = F;
rightKerningGroup = F;
unicode = 0046;
},
{
glyphname = G;
lastChange = "2023-08-11 08:59:14 +0000";
layers = (
{
anchors = (
{
name = bottom;
position = "{403, 0}";
},
{
name = top;
position = "{395, 840}";
}
);
layerId = "BADE114B-EA49-45B4-AE36-72A7CEB6E1BE";
paths = (
{
closed = 1;
nodes = (
"527 -10 OFFCURVE",
"654 23 OFFCURVE",
"709 65 CURVE",
"720 150 OFFCURVE",
"731 296 OFFCURVE",
"736 422 CURVE",
"660 438 OFFCURVE",
"520 448 OFFCURVE",
"430 446 CURVE",
"431 445 OFFCURVE",
"425 390 OFFCURVE",
"420 312 CURVE",
"476 308 OFFCURVE",
"505 279 OFFCURVE",
"505 239 CURVE SMOOTH",
"505 205 OFFCURVE",
"475 176 OFFCURVE",
"439 176 CURVE SMOOTH",
"360 176 OFFCURVE",
"310 220 OFFCURVE",
"310 420 CURVE SMOOTH",
"310 574 OFFCURVE",
"341 664 OFFCURVE",
"395 664 CURVE SMOOTH",
"437 664 OFFCURVE",
"463 618 OFFCURVE",
"474 524 CURVE",
"569 522 OFFCURVE",
"657 532 OFFCURVE",
"736 552 CURVE",
"707 764 OFFCURVE",
"596 850 OFFCURVE",
"395 850 CURVE SMOOTH",
"167 850 OFFCURVE",
"45 741 OFFCURVE",
"45 420 CURVE SMOOTH",
"45 166 OFFCURVE",
"116 -10 OFFCURVE",
"403 -10 CURVE SMOOTH"
);
}
);
width = 770;
}
);
leftKerningGroup = O;
rightKerningGroup = C;
unicode = 0047;
},
{
glyphname = H;
lastChange = "2023-04-04 12:24:24 +0000";
layers = (
{
anchors = (
{
name = bottom;
position = "{398, 0}";
},
{
name = center;
position = "{398, 420}";
},
{
name = top;
position = "{398, 840}";
},
{
name = topleft;
position = "{20, 840}";
}
);
layerId = "BADE114B-EA49-45B4-AE36-72A7CEB6E1BE";
paths = (
{
closed = 1;
nodes = (
"745 420 LINE",
"745 660 OFFCURVE",
"736 818 OFFCURVE",
"736 818 CURVE",
"736 818 OFFCURVE",
"701 840 OFFCURVE",
"612 840 CURVE",
"612 420 LINE"
);
},
{
closed = 1;
nodes = (
"183 420 LINE",
"50 420 LINE",
"50 180 OFFCURVE",
"59 22 OFFCURVE",
"59 22 CURVE",
"59 22 OFFCURVE",
"94 0 OFFCURVE",
"183 0 CURVE"
);
},
{
closed = 1;
nodes = (
"272 0 OFFCURVE",
"315 22 OFFCURVE",
"315 22 CURVE",
"315 309 LINE",
"315 420 LINE",
"183 420 LINE",
"183 0 LINE"
);
},
{
closed = 1;
nodes = (
"183 420 LINE",
"183 840 LINE",
"94 840 OFFCURVE",
"59 818 OFFCURVE",
"59 818 CURVE",
"59 818 OFFCURVE",
"50 660 OFFCURVE",
"50 420 CURVE"
);
},
{
closed = 1;
nodes = (
"612 420 LINE",
"480 420 LINE",
"480 309 LINE",
"480 22 LINE",
"480 22 OFFCURVE",
"523 0 OFFCURVE",
"612 0 CURVE"
);
},
{
closed = 1;
nodes = (
"480 309 LINE",
"480 533 LINE",
"315 533 LINE",
"315 309 LINE"
);
},
{
closed = 1;
nodes = (
"315 420 LINE",
"315 533 LINE",
"315 818 LINE",
"315 818 OFFCURVE",
"272 840 OFFCURVE",
"183 840 CURVE",
"183 420 LINE"
);
},
{
closed = 1;
nodes = (
"701 0 OFFCURVE",
"736 22 OFFCURVE",
"736 22 CURVE",
"736 22 OFFCURVE",
"745 180 OFFCURVE",
"745 420 CURVE",
"612 420 LINE",
"612 0 LINE"
);
},
{
closed = 1;
nodes = (
"612 420 LINE",
"612 840 LINE",
"523 840 OFFCURVE",
"480 818 OFFCURVE",
"480 818 CURVE",
"480 533 LINE",
"480 420 LINE"
);
}
);
width = 795;
}
);
leftKerningGroup = I;
note = H;
rightKerningGroup = I;
unicode = 0048;
},
{
glyphname = Hbar;
lastChange = "2023-04-03 08:16:29 +0000";
layers = (
{
components = (
{
name = H;
transform = "{1, 0, 0, 1, 10, 0}";
}
);
layerId = "BADE114B-EA49-45B4-AE36-72A7CEB6E1BE";
paths = (
{
closed = 1;
nodes = (
"795 617 LINE",
"795 709 LINE",
"20 709 LINE",
"20 617 LINE"
);
}
);
width = 815;
}
);
leftKerningGroup = Hbar;
rightKerningGroup = Hbar;
unicode = 0126;
},
{
glyphname = I;
lastChange = "2023-04-04 04:54:06 +0000";
layers = (
{
anchors = (
{
name = bottom;
position = "{183, 0}";
},
{
name = ogonek;
position = "{183, 0}";
},
{
name = top;
position = "{183, 840}";
},
{
name = topleft;
position = "{20, 840}";
}
);
layerId = "BADE114B-EA49-45B4-AE36-72A7CEB6E1BE";
paths = (
{
closed = 1;
nodes = (
"183 420 LINE",
"183 840 LINE",
"85 840 OFFCURVE",
"56 823 OFFCURVE",
"56 823 CURVE",
"55 823 OFFCURVE",
"50 589 OFFCURVE",
"50 420 CURVE"
);
},
{
closed = 1;
nodes = (
"316 589 OFFCURVE",
"311 823 OFFCURVE",
"310 823 CURVE",
"310 823 OFFCURVE",
"281 840 OFFCURVE",
"183 840 CURVE",
"183 420 LINE",
"316 420 LINE"
);
},
{
closed = 1;
nodes = (
"50 251 OFFCURVE",
"55 17 OFFCURVE",
"56 17 CURVE",
"56 17 OFFCURVE",
"85 0 OFFCURVE",
"183 0 CURVE",
"183 420 LINE",
"50 420 LINE"
);
},
{
closed = 1;
nodes = (
"183 420 LINE",
"183 0 LINE",
"281 0 OFFCURVE",
"310 17 OFFCURVE",
"310 17 CURVE",
"311 17 OFFCURVE",
"316 251 OFFCURVE",
"316 420 CURVE"
);
}
);
width = 366;
}
);
leftKerningGroup = I;
note = I;
rightKerningGroup = I;
unicode = 0049;
},
{
glyphname = J;
lastChange = "2023-04-03 08:15:56 +0000";
layers = (
{
anchors = (
{
name = bottom;
position = "{205, 0}";
},
{
name = top;
position = "{308, 840}";
}
);
layerId = "BADE114B-EA49-45B4-AE36-72A7CEB6E1BE";
paths = (
{
closed = 1;
nodes = (
"351 0 OFFCURVE",
"439 67 OFFCURVE",
"439 281 CURVE",
"308 515 LINE",
"181 515 LINE",
"179 278 LINE",
"180 210 OFFCURVE",
"170 184 OFFCURVE",
"91 202 CURVE",
"64 137 OFFCURVE",
"48 67 OFFCURVE",
"45 24 CURVE",
"95 7 OFFCURVE",
"143 0 OFFCURVE",
"205 0 CURVE"
);
},
{
closed = 1;
nodes = (
"308 515 LINE",
"308 840 LINE",
"252 840 OFFCURVE",
"210 834 OFFCURVE",
"181 821 CURVE",
"181 515 LINE"
);
},
{
closed = 1;
nodes = (
"439 631 OFFCURVE",
"435 823 OFFCURVE",
"433 823 CURVE",
"433 823 OFFCURVE",
"406 840 OFFCURVE",
"308 840 CURVE",
"308 515 LINE",
"439 281 LINE"
);
},
{
closed = 0;
nodes = (
"308 840 LINE"
);
}
);
width = 489;
}
);
leftKerningGroup = J;
note = J;
rightKerningGroup = J;
unicode = 004A;
},
{
glyphname = K;
lastChange = "2023-04-03 08:15:56 +0000";
layers = (
{
anchors = (
{
name = bottom;
position = "{391, 0}";
},
{
name = top;
position = "{391, 840}";
}
);
layerId = "BADE114B-EA49-45B4-AE36-72A7CEB6E1BE";
paths = (
{
closed = 1;
nodes = (
"689 1 OFFCURVE {stroke = {w = \"1\";};}",
"736 36 OFFCURVE {stroke = {w = \"1\";};}",
"736 36 CURVE {stroke = {w = \"1\";};}",
"553 420 LINE",
"316 420 LINE {stroke = {w = \"1\";};}",
"316 375 LINE {stroke = {w = \"1\";};}",
"473 19 LINE {stroke = {w = \"1\";};}",
"473 19 OFFCURVE {stroke = {w = \"1\";};}",
"500 0 OFFCURVE {stroke = {w = \"1\";};}",
"590 1 CURVE {stroke = {w = \"1\";};}"
);
},
{
closed = 1;
nodes = (
"183 420 LINE",
"50 420 LINE",
"50 180 OFFCURVE",
"59 22 OFFCURVE",
"59 22 CURVE",
"59 22 OFFCURVE",
"94 0 OFFCURVE",
"183 0 CURVE"
);
},
{
closed = 1;
nodes = (
"272 0 OFFCURVE",
"316 22 OFFCURVE",
"316 22 CURVE",
"316 375 LINE {stroke = {w = \"1\";};}",
"316 420 LINE",
"183 420 LINE",
"183 0 LINE"
);
},
{
closed = 1;
nodes = (
"183 420 LINE",
"183 840 LINE",
"94 840 OFFCURVE",
"59 818 OFFCURVE",
"59 818 CURVE",
"59 818 OFFCURVE",
"50 660 OFFCURVE",
"50 420 CURVE"
);
},
{
closed = 1;
nodes = (
"316 420 LINE",
"316 466 LINE {stroke = {w = \"1\";};}",
"316 818 LINE",
"316 818 OFFCURVE",
"272 840 OFFCURVE",
"183 840 CURVE",
"183 420 LINE"
);
},
{
closed = 1;
nodes = (
"553 420 LINE",
"736 805 LINE {stroke = {w = \"1\";};}",
"736 805 OFFCURVE {stroke = {w = \"1\";};}",
"689 840 OFFCURVE {stroke = {w = \"1\";};}",
"590 840 CURVE {stroke = {w = \"1\";};}",
"500 840 OFFCURVE {stroke = {w = \"1\";};}",
"473 822 OFFCURVE {stroke = {w = \"1\";};}",
"473 822 CURVE {stroke = {w = \"1\";};}",
"316 465 LINE {stroke = {w = \"1\";};}",
"316 420 LINE {stroke = {w = \"1\";};}"
);
}
);
width = 781;
}
);
leftKerningGroup = I;
note = K;
rightKerningGroup = K;
unicode = 004B;
},
{
glyphname = L;
lastChange = "2023-08-10 15:18:02 +0000";
layers = (
{
anchors = (
{
name = bottom;
position = "{341, 0}";
},
{
name = center;
position = "{183, 420}";
},
{
name = top;
position = "{183, 840}";
},
{
name = topright;
position = "{512, 840}";
}
);
layerId = "BADE114B-EA49-45B4-AE36-72A7CEB6E1BE";
paths = (
{
closed = 1;
nodes = (
"316 0 LINE",
"463 -1 OFFCURVE",
"519 0 OFFCURVE",
"629 12 CURVE",
"633 33 OFFCURVE",
"638 68 OFFCURVE",
"637 138 CURVE SMOOTH",
"636 203 OFFCURVE",
"632 235 OFFCURVE",
"625 254 CURVE",
"532 252 LINE",
"524 232 OFFCURVE",
"500 215 OFFCURVE",
"459 215 CURVE SMOOTH",
"390 215 OFFCURVE",
"333 217 OFFCURVE",
"306 221 CURVE"
);
},
{
closed = 1;
nodes = (
"50 154 OFFCURVE",
"57 7 OFFCURVE",
"57 7 CURVE SMOOTH",
"57 7 OFFCURVE",
"139 0 OFFCURVE",
"316 0 CURVE",
"306 221 OFFCURVE",
"306 254 OFFCURVE",
"306 343 CURVE SMOOTH",
"306 449 OFFCURVE",
"306 660 OFFCURVE",
"316 825 CURVE",
"316 825 OFFCURVE",
"272 840 OFFCURVE",
"183 840 CURVE SMOOTH",
"94 840 OFFCURVE",
"57 825 OFFCURVE",
"57 825 CURVE SMOOTH",
"57 825 OFFCURVE",
"50 724 OFFCURVE",
"50 420 CURVE SMOOTH"
);
}
);
width = 683;
}
);
leftKerningGroup = I;
note = L;
rightKerningGroup = L;
unicode = 004C;
},
{
glyphname = Lslash;
lastChange = "2023-04-03 08:16:15 +0000";
layers = (
{
components = (
{
name = L;
transform = "{1, 0, 0, 1, 65, 0}";
}
);
layerId = "BADE114B-EA49-45B4-AE36-72A7CEB6E1BE";
paths = (
{
closed = 1;
nodes = (
"443 412 LINE",
"443 504 LINE",
"50 428 LINE",
"50 336 LINE"
);
}
);
width = 759;
}
);
leftKerningGroup = Lslash;
rightKerningGroup = I;
unicode = 0141;
},
{
glyphname = M;
lastChange = "2023-04-03 08:15:56 +0000";
layers = (
{
anchors = (
{
name = _top;
position = "{488, 840}";
},
{
name = bottom;
position = "{488, 0}";
},
{
name = top;
position = "{488, 840}";
}
);
layerId = "BADE114B-EA49-45B4-AE36-72A7CEB6E1BE";
paths = (
{
closed = 1;
nodes = (
"661 828 OFFCURVE",
"558 639 OFFCURVE",
"488 509 CURVE",
"488 122 LINE",
"537 122 OFFCURVE",
"558 132 OFFCURVE",
"558 132 CURVE",
"661 350 LINE",
"661 828 LINE"
);
},
{
closed = 1;
nodes = (
"59 22 OFFCURVE",
"50 180 OFFCURVE",
"50 420 CURVE",
"183 420 LINE",
"183 0 LINE",
"94 0 OFFCURVE",
"59 22 OFFCURVE",
"59 22 CURVE"
);
},
{
closed = 1;
nodes = (
"315 22 OFFCURVE",
"272 0 OFFCURVE",
"183 0 CURVE",
"183 420 LINE",
"315 420 LINE",
"315 22 LINE"
);
},
{
closed = 1;
nodes = (
"59 818 OFFCURVE",
"94 840 OFFCURVE",
"183 840 CURVE",
"183 420 LINE",
"50 420 LINE",
"50 660 OFFCURVE",
"59 818 OFFCURVE",
"59 818 CURVE"
);
},
{
closed = 1;
nodes = (
"315 350 LINE",
"418 132 LINE",
"418 132 OFFCURVE",
"439 122 OFFCURVE",
"488 122 CURVE",
"488 509 LINE",
"418 639 OFFCURVE",
"315 828 OFFCURVE",
"315 828 CURVE"
);
},
{
closed = 1;
nodes = (
"315 420 LINE",
"183 420 LINE",
"183 840 LINE",
"272 840 OFFCURVE",
"315 828 OFFCURVE",
"315 828 CURVE"
);
},
{
closed = 1;
nodes = (
"661 420 LINE",
"793 420 LINE",
"793 0 LINE",
"704 0 OFFCURVE",
"661 22 OFFCURVE",
"661 22 CURVE"
);
},
{
closed = 1;
nodes = (
"917 22 OFFCURVE",
"882 0 OFFCURVE",
"793 0 CURVE",
"793 420 LINE",
"926 420 LINE",
"926 180 OFFCURVE",
"917 22 OFFCURVE",
"917 22 CURVE"
);
},
{
closed = 1;
nodes = (
"661 828 OFFCURVE",
"704 840 OFFCURVE",
"793 840 CURVE",
"793 420 LINE",
"661 420 LINE",
"661 828 LINE"
);
},
{
closed = 1;
nodes = (
"917 818 OFFCURVE",
"926 660 OFFCURVE",
"926 420 CURVE",
"793 420 LINE",
"793 840 LINE",
"882 840 OFFCURVE",
"917 818 OFFCURVE",
"917 818 CURVE"
);
}
);
width = 976;
}
);
leftKerningGroup = I;
note = M;
rightKerningGroup = I;
unicode = 004D;
},
{
glyphname = N;
lastChange = "2023-04-03 08:15:56 +0000";
layers = (
{
anchors = (
{
name = bottom;
position = "{413, 0}";
},
{
name = top;
position = "{413, 840}";
}
);
layerId = "BADE114B-EA49-45B4-AE36-72A7CEB6E1BE";
paths = (
{
closed = 1;
nodes = (
"511 482 LINE",
"315 828 LINE",
"315 358 LINE",
"511 12 LINE"
);
},
{
closed = 1;
nodes = (
"183 420 LINE",
"50 420 LINE",
"50 180 OFFCURVE",
"59 22 OFFCURVE",
"59 22 CURVE",
"59 22 OFFCURVE",
"94 0 OFFCURVE",
"183 0 CURVE"
);
},
{
closed = 1;
nodes = (
"272 0 OFFCURVE",
"315 22 OFFCURVE",
"315 22 CURVE",
"315 420 LINE",
"183 420 LINE",
"183 0 LINE"
);
},
{
closed = 1;
nodes = (
"183 420 LINE",
"183 840 LINE",
"94 840 OFFCURVE",
"59 818 OFFCURVE",
"59 818 CURVE",
"59 818 OFFCURVE",
"50 660 OFFCURVE",
"50 420 CURVE"
);
},
{
closed = 1;
nodes = (
"643 420 LINE",
"511 420 LINE",
"511 12 LINE",
"511 12 OFFCURVE",
"554 0 OFFCURVE",
"643 0 CURVE"
);
},
{
closed = 1;
nodes = (
"315 420 LINE",
"315 828 LINE",
"315 828 OFFCURVE",
"272 840 OFFCURVE",
"183 840 CURVE",
"183 420 LINE"
);
},
{
closed = 1;
nodes = (
"732 0 OFFCURVE",
"767 22 OFFCURVE",
"767 22 CURVE",
"767 22 OFFCURVE",
"776 180 OFFCURVE",
"776 420 CURVE",
"643 420 LINE",
"643 0 LINE"
);
},
{
closed = 1;
nodes = (
"643 420 LINE",
"643 840 LINE",
"554 840 OFFCURVE",
"511 818 OFFCURVE",
"511 818 CURVE",
"511 420 LINE"
);
},
{
closed = 1;
nodes = (
"776 420 LINE",
"776 660 OFFCURVE",
"767 818 OFFCURVE",
"767 818 CURVE",
"767 818 OFFCURVE",
"732 840 OFFCURVE",
"643 840 CURVE",
"643 420 LINE"
);
}
);
width = 826;
}
);
leftKerningGroup = I;
note = N;
rightKerningGroup = I;
unicode = 004E;
},
{
glyphname = Eng;
lastChange = "2023-08-11 13:26:07 +0000";
layers = (
{
layerId = "BADE114B-EA49-45B4-AE36-72A7CEB6E1BE";
paths = (
{
closed = 1;
nodes = (
"735 -80 OFFCURVE",
"776 22 OFFCURVE",
"776 370 CURVE",
"643 420 LINE",
"511 420 LINE",
"521 219 LINE",
"532 109 OFFCURVE",
"493 99 OFFCURVE",
"415 129 CURVE",
"391 88 OFFCURVE",
"379 2 OFFCURVE",
"383 -50 CURVE",
"435 -69 OFFCURVE",
"482 -80 OFFCURVE",
"565 -80 CURVE"
);
},
{
closed = 1;
nodes = (
"183 420 LINE",
"50 370 LINE",
"50 180 OFFCURVE",
"59 22 OFFCURVE",
"59 22 CURVE",
"59 22 OFFCURVE",
"94 0 OFFCURVE",
"183 0 CURVE"
);
},
{
closed = 1;
nodes = (
"272 0 OFFCURVE",
"315 22 OFFCURVE",
"315 22 CURVE",
"315 420 LINE",
"183 420 LINE",
"183 0 LINE"
);
},
{
closed = 1;
nodes = (
"183 420 LINE",
"183 840 LINE",
"94 840 OFFCURVE",
"59 818 OFFCURVE",
"59 818 CURVE",
"59 818 OFFCURVE",
"50 660 OFFCURVE",
"50 370 CURVE"
);
},
{
closed = 1;
nodes = (
"315 420 LINE",
"315 828 LINE",
"315 828 OFFCURVE",
"272 840 OFFCURVE",
"183 840 CURVE",
"183 420 LINE"
);
},
{
closed = 1;
nodes = (
"511 420 LINE",
"511 592 LINE",
"315 828 LINE",
"315 458 LINE",
"521 219 LINE"
);
},
{
closed = 1;
nodes = (
"643 420 LINE",
"643 840 LINE",
"554 840 OFFCURVE",
"511 818 OFFCURVE",
"511 818 CURVE",
"511 420 LINE"
);
},
{
closed = 1;
nodes = (
"776 660 OFFCURVE",
"767 818 OFFCURVE",
"767 818 CURVE",
"767 818 OFFCURVE",
"732 840 OFFCURVE",
"643 840 CURVE",
"643 420 LINE",
"776 370 LINE"
);
}
);
width = 826;
}
);
leftKerningGroup = L;
rightKerningGroup = flat;
unicode = 014A;
},
{
glyphname = O;
lastChange = "2023-08-11 13:11:22 +0000";
layers = (
{
anchors = (
{
name = bottom;
position = "{395, 0}";
},
{
name = center;
position = "{395, 420}";
},
{
name = horn;
position = "{537, 791}";
},
{
name = ogonek;
position = "{395, 0}";
},
{
name = top;
position = "{395, 840}";
},
{
name = topleft;
position = "{20, 840}";
},
{
name = topright;
position = "{770, 840}";
}
);
layerId = "BADE114B-EA49-45B4-AE36-72A7CEB6E1BE";
paths = (
{
closed = 1;
nodes = (
"655 -10 OFFCURVE",
"745 138 OFFCURVE",
"745 420 CURVE SMOOTH",
"745 736 OFFCURVE",
"628 850 OFFCURVE",
"395 850 CURVE SMOOTH",
"163 850 OFFCURVE",
"45 736 OFFCURVE",
"45 420 CURVE SMOOTH",
"45 104 OFFCURVE",
"163 -10 OFFCURVE",
"395 -10 CURVE SMOOTH"
);
},
{
closed = 1;
nodes = (
"320 176 OFFCURVE",
"310 331 OFFCURVE",
"310 420 CURVE SMOOTH",
"310 509 OFFCURVE",
"320 664 OFFCURVE",
"395 664 CURVE SMOOTH",
"471 664 OFFCURVE",
"480 509 OFFCURVE",
"480 420 CURVE SMOOTH",
"480 331 OFFCURVE",
"471 176 OFFCURVE",
"395 176 CURVE SMOOTH"
);
}
);
width = 790;
}
);
leftKerningGroup = O;
note = O;
rightKerningGroup = O;
unicode = 004F;
},
{
glyphname = Oslash;
lastChange = "2023-08-11 13:26:12 +0000";
layers = (
{
anchors = (
{
name = bottom;
position = "{416, 0}";
},
{
name = top;
position = "{416, 840}";
}
);
components = (
{
name = O;
transform = "{1, 0, 0, 1, 21, 0}";
}
);
layerId = "BADE114B-EA49-45B4-AE36-72A7CEB6E1BE";
paths = (
{
closed = 1;
nodes = (
"787 756 LINE",
"752 791 LINE",
"45 84 LINE",
"80 49 LINE"
);
}
);
width = 832;
}
);
leftKerningGroup = O;
rightKerningGroup = O;
unicode = 00D8;
},
{
glyphname = P;
lastChange = "2023-04-03 08:15:56 +0000";
layers = (
{
anchors = (
{
name = _top;
position = "{367, 840}";
},
{
name = bottom;
position = "{368, 0}";
},
{
name = top;
position = "{368, 840}";
}
);
layerId = "BADE114B-EA49-45B4-AE36-72A7CEB6E1BE";
paths = (
{
closed = 1;
nodes = (
"534 287 OFFCURVE",
"690 347 OFFCURVE",
"690 576 CURVE SMOOTH",
"690 793 OFFCURVE",
"534 851 OFFCURVE",
"316 850 CURVE",
"316 651 LINE",
"344 651 LINE SMOOTH",
"401 651 OFFCURVE",
"434 629 OFFCURVE",
"434 570 CURVE SMOOTH",
"435 509 OFFCURVE",
"401 487 OFFCURVE",
"344 487 CURVE SMOOTH",
"316 487 LINE",
"316 287 LINE"
);
},
{
closed = 1;
nodes = (
"183 420 LINE",
"50 420 LINE",
"50 180 OFFCURVE",
"60 23 OFFCURVE",
"59 22 CURVE",
"59 22 OFFCURVE",
"94 0 OFFCURVE",
"183 0 CURVE"
);
},
{
closed = 1;
nodes = (
"183 420 LINE",
"50 420 LINE",
"50 180 OFFCURVE",
"59 22 OFFCURVE",
"59 22 CURVE",
"59 22 OFFCURVE",
"94 0 OFFCURVE",
"183 0 CURVE"
);
},
{
closed = 1;
nodes = (
"272 0 OFFCURVE",
"316 22 OFFCURVE",
"316 22 CURVE",
"316 375 LINE {stroke = {w = \"1\";};}",
"316 420 LINE",
"183 420 LINE",
"183 0 LINE"
);
},
{
closed = 1;
nodes = (
"272 0 OFFCURVE",
"316 22 OFFCURVE",
"316 22 CURVE",
"316 375 LINE {stroke = {w = \"1\";};}",
"316 420 LINE",
"183 420 LINE",
"183 0 LINE"
);
},
{
closed = 1;
nodes = (
"316 420 LINE",
"316 850 LINE",
"234 850 OFFCURVE",
"119 838 OFFCURVE",
"59 818 CURVE",
"59 818 OFFCURVE",
"50 684 OFFCURVE",
"50 420 CURVE"
);
},
{
closed = 1;
nodes = (
"316 420 LINE",
"316 850 LINE",
"234 850 OFFCURVE",
"119 838 OFFCURVE",
"59 818 CURVE",
"59 818 OFFCURVE",
"50 684 OFFCURVE",
"50 420 CURVE"
);
}
);
width = 735;
}
);
leftKerningGroup = I;
note = P;
rightKerningGroup = P;
unicode = 0050;
},
{
glyphname = Thorn;
lastChange = "2023-04-03 08:16:02 +0000";
layers = (
{
anchors = (
{
name = bottom;
position = "{374, 0}";
},
{
name = top;
position = "{374, 840}";
}
);
layerId = "BADE114B-EA49-45B4-AE36-72A7CEB6E1BE";
paths = (
{
closed = 1;
nodes = (
"703 420 LINE",
"703 659 OFFCURVE",
"585 745 OFFCURVE",
"353 745 CURVE SMOOTH",
"316 745 LINE",
"316 574 LINE",
"419 574 OFFCURVE",
"438 515 OFFCURVE",
"438 420 CURVE"
);
},
{
closed = 1;
nodes = (
"183 420 LINE",
"50 420 LINE",
"50 180 OFFCURVE",
"59 22 OFFCURVE",
"59 22 CURVE",
"59 22 OFFCURVE",
"94 0 OFFCURVE",
"183 0 CURVE"
);
},
{
closed = 0;
nodes = (
"316 22 LINE"
);
},
{
closed = 1;
nodes = (
"272 0 OFFCURVE",
"316 22 OFFCURVE",
"316 22 CURVE",
"316 420 LINE",
"183 420 LINE",
"183 0 LINE"
);
},
{
closed = 1;
nodes = (
"183 420 LINE",
"183 840 LINE",
"94 840 OFFCURVE",
"59 818 OFFCURVE",
"59 818 CURVE",
"60 817 OFFCURVE",
"50 660 OFFCURVE",
"50 420 CURVE"
);
},
{
closed = 1;
nodes = (
"353 95 LINE SMOOTH",
"585 95 OFFCURVE",
"703 181 OFFCURVE",
"703 420 CURVE",
"438 420 LINE",
"438 325 OFFCURVE",
"419 266 OFFCURVE",
"316 266 CURVE",
"316 95 LINE"
);
},
{
closed = 1;
nodes = (
"316 420 LINE",
"316 818 LINE",
"316 818 OFFCURVE",
"272 840 OFFCURVE",
"183 840 CURVE",
"183 420 LINE"
);
}
);
width = 748;
}
);
leftKerningGroup = L;
rightKerningGroup = Thorn;
unicode = 00DE;
},
{
glyphname = Q;
lastChange = "2023-04-03 08:15:56 +0000";
layers = (
{
anchors = (
{
name = _top;
position = "{395, 840}";
},
{
name = bottom;
position = "{402, 0}";
},
{
name = top;
position = "{402, 840}";
}
);
components = (
{
name = O;
}
);
layerId = "BADE114B-EA49-45B4-AE36-72A7CEB6E1BE";
paths = (
{
closed = 1;
nodes = (
"626 -81 OFFCURVE",
"656 -73 OFFCURVE",
"704 -26 CURVE SMOOTH",
"751 21 OFFCURVE",
"758 51 OFFCURVE",
"758 51 CURVE SMOOTH",
"758 51 OFFCURVE",
"729 76 OFFCURVE",
"684 124 CURVE",
"524 5 LINE",
"583 -42 OFFCURVE",
"626 -81 OFFCURVE",
"626 -81 CURVE SMOOTH"
);
}
);
width = 803;
}
);
leftKerningGroup = O;
note = Q;
rightKerningGroup = Q;
unicode = 0051;
},
{
glyphname = R;
lastChange = "2023-04-03 08:15:56 +0000";
layers = (
{
anchors = (
{
name = bottom;
position = "{381, 0}";
},
{
name = top;
position = "{368, 840}";
}
);
components = (
{
name = P;
}
);
layerId = "BADE114B-EA49-45B4-AE36-72A7CEB6E1BE";
paths = (
{
closed = 1;
nodes = (
"669 0 OFFCURVE {stroke = {w = \"1\";};}",
"716 35 OFFCURVE {stroke = {w = \"1\";};}",
"716 35 CURVE {stroke = {w = \"1\";};}",
"575 387 LINE",
"360 297 LINE {stroke = {w = \"1\";};}",
"453 18 LINE {stroke = {w = \"1\";};}",
"453 18 OFFCURVE {stroke = {w = \"1\";};}",
"480 -1 OFFCURVE {stroke = {w = \"1\";};}",
"570 0 CURVE {stroke = {w = \"1\";};}"
);
}
);
width = 761;
}
);
leftKerningGroup = I;
note = R;
rightKerningGroup = R;
unicode = 0052;
},
{
glyphname = S;
lastChange = "2023-08-11 09:56:42 +0000";
layers = (
{
anchors = (
{
name = bottom;
position = "{366, 0}";
},
{
name = top;
position = "{371, 840}";
}
);
layerId = "BADE114B-EA49-45B4-AE36-72A7CEB6E1BE";
paths = (
{
closed = 1;
nodes = (
"352 177 LINE",
"313 177 OFFCURVE",
"290 212 OFFCURVE",
"290 252 CURVE",
"122 252 OFFCURVE",
"45 232 OFFCURVE",
"45 232 CURVE",
"56 49 OFFCURVE",
"182 -10 OFFCURVE",
"352 -10 CURVE"
);
},
{
closed = 1;
nodes = (
"596 -10 OFFCURVE",
"686 101 OFFCURVE",
"686 232 CURVE SMOOTH",
"686 364 OFFCURVE",
"628 448 OFFCURVE",
"439 499 CURVE",
"283 351 LINE",
"393 322 OFFCURVE",
"426 290 OFFCURVE",
"427 248 CURVE SMOOTH",
"428 204 OFFCURVE",
"404 177 OFFCURVE",
"352 177 CURVE",
"352 -10 LINE"
);
},
{
closed = 1;
nodes = (
"594 588 OFFCURVE",
"669 608 OFFCURVE",
"669 608 CURVE",
"658 791 OFFCURVE",
"537 850 OFFCURVE",
"371 850 CURVE",
"367 663 LINE",
"409 663 OFFCURVE",
"431 628 OFFCURVE",
"431 588 CURVE"
);
},
{
closed = 1;
nodes = (
"157 850 OFFCURVE",
"67 743 OFFCURVE",
"66 613 CURVE SMOOTH",
"65 472 OFFCURVE",
"131 392 OFFCURVE",
"283 351 CURVE",
"439 499 LINE",
"329 528 OFFCURVE",
"294 560 OFFCURVE",
"295 602 CURVE SMOOTH",
"296 636 OFFCURVE",
"319 663 OFFCURVE",
"367 663 CURVE",
"371 850 LINE"
);
}
);
width = 731;
}
);
leftKerningGroup = S;
note = S;
rightKerningGroup = S;
unicode = 0053;
},
{
glyphname = Germandbls;
lastChange = "2023-04-04 04:17:23 +0000";
layers = (
{
anchors = (
{
name = bottom;
position = "{383, 0}";
},
{
name = top;
position = "{383, 840}";
}
);
layerId = "BADE114B-EA49-45B4-AE36-72A7CEB6E1BE";
paths = (
{
closed = 1;
nodes = (
"622 3 OFFCURVE",
"721 90 OFFCURVE",
"721 243 CURVE SMOOTH",
"721 364 OFFCURVE",
"690 403 OFFCURVE",
"627 469 CURVE",
"684 656 LINE",
"684 703 OFFCURVE",
"677 756 OFFCURVE",
"662 815 CURVE",
"613 824 OFFCURVE",
"541 843 OFFCURVE",
"350 843 CURVE SMOOTH",
"74 843 OFFCURVE",
"45 725 OFFCURVE",
"45 420 CURVE",
"311 420 LINE",
"311 511 LINE SMOOTH",
"311 632 OFFCURVE",
"338 661 OFFCURVE",
"419 653 CURVE",
"370 485 LINE",
"370 348 LINE",
"429 349 OFFCURVE",
"456 323 OFFCURVE",
"456 248 CURVE SMOOTH",
"456 176 OFFCURVE",
"427 150 OFFCURVE",
"370 149 CURVE",
"370 23 LINE",
"393 11 OFFCURVE",
"427 3 OFFCURVE",
"465 3 CURVE SMOOTH"
);
},
{
closed = 1;
nodes = (
"178 420 LINE",
"45 420 LINE",
"45 180 OFFCURVE",
"54 22 OFFCURVE",
"54 22 CURVE",
"54 22 OFFCURVE",
"89 0 OFFCURVE",
"178 0 CURVE"
);
},
{
closed = 1;
nodes = (
"267 0 OFFCURVE",
"311 22 OFFCURVE",
"311 22 CURVE",
"311 375 LINE {stroke = {w = \"1\";};}",
"311 420 LINE",
"178 420 LINE",
"178 0 LINE"
);
}
);
width = 766;
}
);
leftKerningGroup = Germandbls;
note = uni1E9E;
rightKerningGroup = Germandbls;
unicode = 1E9E;
},
{
glyphname = T;
lastChange = "2023-04-04 05:32:56 +0000";
layers = (
{
anchors = (
{
name = bottom;
position = "{353, 0}";
},
{
name = center;
position = "{354, 420}";
},
{
name = top;
position = "{354, 840}";
}
);
layerId = "BADE114B-EA49-45B4-AE36-72A7CEB6E1BE";
paths = (
{
closed = 1;
nodes = (
"450 613 OFFCURVE",
"558 613 OFFCURVE",
"665 608 CURVE",
"665 703 OFFCURVE",
"660 806 OFFCURVE",
"656 827 CURVE",
"546 840 OFFCURVE",
"490 841 OFFCURVE",
"354 841 CURVE",
"354 612 LINE"
);
},
{
closed = 1;
nodes = (
"354 841 LINE",
"218 841 OFFCURVE",
"162 840 OFFCURVE",
"52 827 CURVE",
"48 806 OFFCURVE",
"43 703 OFFCURVE",
"43 608 CURVE",
"150 613 OFFCURVE",
"258 613 OFFCURVE",
"354 612 CURVE"
);
},
{
closed = 1;
nodes = (
"220 251 OFFCURVE",
"225 17 OFFCURVE",
"226 17 CURVE",
"226 17 OFFCURVE",
"255 0 OFFCURVE",
"353 0 CURVE",
"353 620 LINE",
"220 620 LINE"
);
},
{
closed = 1;
nodes = (
"353 620 LINE",
"353 0 LINE",
"451 0 OFFCURVE",
"480 17 OFFCURVE",
"480 17 CURVE",
"481 17 OFFCURVE",
"486 251 OFFCURVE",
"486 620 CURVE"
);
}
);
width = 708;
}
);
leftKerningGroup = T;
note = T;
rightKerningGroup = T;
unicode = 0054;
},
{
glyphname = Tbar;
lastChange = "2023-04-03 08:16:15 +0000";
layers = (
{
components = (
{
name = T;
},
{
name = strokeshortcomb;
}
);
layerId = "BADE114B-EA49-45B4-AE36-72A7CEB6E1BE";
paths = (
{
closed = 1;
nodes = (
"630 365 LINE",
"630 457 LINE",
"80 457 LINE",
"80 365 LINE"
);
}
);
width = 708;
}
);
leftKerningGroup = Tbar;
rightKerningGroup = Tbar;
unicode = 0166;
},
{
glyphname = U;
lastChange = "2023-08-11 13:11:37 +0000";
layers = (
{
anchors = (
{
name = bottom;
position = "{391, 0}";
},
{
name = horn;
position = "{723, 791}";
},
{
name = ogonek;
position = "{391, 0}";
},
{
name = top;
position = "{391, 840}";
},
{
name = topright;
position = "{762, 840}";
}
);
layerId = "BADE114B-EA49-45B4-AE36-72A7CEB6E1BE";
paths = (
{
closed = 1;
nodes = (
"391 200 LINE",
"334 200 OFFCURVE",
"315 250 OFFCURVE",
"315 320 CURVE",
"183 420 LINE",
"50 354 LINE",
"50 74 OFFCURVE",
"167 -10 OFFCURVE",
"391 -10 CURVE"
);
},
{
closed = 1;
nodes = (
"183 420 LINE",
"183 840 LINE",
"94 840 OFFCURVE",
"59 824 OFFCURVE",
"59 824 CURVE",
"59 824 OFFCURVE",
"50 600 OFFCURVE",
"50 354 CURVE"
);
},
{
closed = 1;
nodes = (
"315 320 LINE",
"315 824 LINE",
"315 824 OFFCURVE",
"272 840 OFFCURVE",
"183 840 CURVE",
"183 420 LINE"
);
},
{
closed = 1;
nodes = (
"615 -10 OFFCURVE",
"732 74 OFFCURVE",
"732 354 CURVE",
"599 420 LINE",
"467 320 LINE",
"467 250 OFFCURVE",
"448 200 OFFCURVE",
"391 200 CURVE",
"391 -10 LINE"
);
},
{
closed = 1;
nodes = (
"732 600 OFFCURVE",
"723 824 OFFCURVE",
"723 824 CURVE",
"723 824 OFFCURVE",
"688 840 OFFCURVE",
"599 840 CURVE",
"599 420 LINE",
"732 354 LINE"
);
},
{
closed = 1;
nodes = (
"599 840 LINE",
"510 840 OFFCURVE",
"467 824 OFFCURVE",
"467 824 CURVE",
"467 320 LINE",
"599 420 LINE"
);
}
);
width = 782;
}
);
leftKerningGroup = U;
note = U;
rightKerningGroup = U;
unicode = 0055;
},
{
glyphname = V;
lastChange = "2023-08-10 15:35:25 +0000";
layers = (
{
anchors = (
{
name = _top;
position = "{405, 840}";
},
{
name = bottom;
position = "{405, 0}";
},
{
name = top;
position = "{405, 840}";
}
);
layerId = "BADE114B-EA49-45B4-AE36-72A7CEB6E1BE";
paths = (
{
closed = 1;
nodes = (
"598 840 OFFCURVE",
"544 835 OFFCURVE",
"515 825 CURVE",
"413 269 LINE",
"404 205 LINE",
"405 0 LINE",
"405 0 OFFCURVE",
"406 0 OFFCURVE",
"406 0 CURVE SMOOTH",
"489 0 OFFCURVE",
"550 15 OFFCURVE",
"590 29 CURVE",
"648 186 OFFCURVE",
"762 671 OFFCURVE",
"780 810 CURVE",
"739 830 OFFCURVE",
"701 840 OFFCURVE",
"635 840 CURVE SMOOTH"
);
},
{
closed = 1;
nodes = (
"109 840 OFFCURVE",
"71 830 OFFCURVE",
"30 810 CURVE",
"48 671 OFFCURVE",
"162 186 OFFCURVE",
"220 29 CURVE",
"260 15 OFFCURVE",
"321 0 OFFCURVE",
"404 0 CURVE SMOOTH",
"404 0 OFFCURVE",
"405 0 OFFCURVE",
"405 0 CURVE",
"404 205 LINE",
"395 269 LINE",
"295 825 LINE",
"266 835 OFFCURVE",
"212 840 OFFCURVE",
"175 840 CURVE SMOOTH"
);
}
);
width = 810;
}
);
leftKerningGroup = V;
note = V;
rightKerningGroup = V;
unicode = 0056;
},
{
glyphname = W;
lastChange = "2023-04-03 08:15:56 +0000";
layers = (
{
anchors = (
{
name = _top;
position = "{496, 840}";
},
{
name = bottom;
position = "{496, 0}";
},
{
name = top;
position = "{496, 840}";
}
);
layerId = "BADE114B-EA49-45B4-AE36-72A7CEB6E1BE";
paths = (
{
closed = 1;
nodes = (
"760 0 OFFCURVE",
"783 10 OFFCURVE",
"818 21 CURVE",
"879 236 OFFCURVE",
"949 641 OFFCURVE",
"962 810 CURVE",
"921 830 OFFCURVE",
"883 840 OFFCURVE",
"817 840 CURVE SMOOTH",
"780 840 OFFCURVE",
"726 835 OFFCURVE",
"697 825 CURVE",
"638 390 LINE",
"584 621 LINE",
"562 629 OFFCURVE",
"527 632 OFFCURVE",
"496 632 CURVE",
"496 223 LINE",
"585 21 LINE",
"604 11 OFFCURVE",
"627 0 OFFCURVE",
"688 0 CURVE SMOOTH"
);
},
{
closed = 1;
nodes = (
"365 0 OFFCURVE",
"388 11 OFFCURVE",
"407 21 CURVE",
"496 223 LINE",
"496 632 LINE",
"465 632 OFFCURVE",
"430 629 OFFCURVE",
"408 621 CURVE",
"354 390 LINE",
"295 825 LINE",
"266 835 OFFCURVE",
"212 840 OFFCURVE",
"175 840 CURVE SMOOTH",
"109 840 OFFCURVE",
"71 830 OFFCURVE",
"30 810 CURVE",
"43 641 OFFCURVE",
"113 236 OFFCURVE",
"174 21 CURVE",
"209 10 OFFCURVE",
"232 0 OFFCURVE",
"304 0 CURVE SMOOTH"
);
}
);
width = 992;
}
);
leftKerningGroup = W;
note = W;
rightKerningGroup = W;
unicode = 0057;
},
{
glyphname = X;
lastChange = "2023-04-03 08:15:56 +0000";
layers = (
{
anchors = (
{
name = _top;
position = "{390, 840}";
},
{
name = bottom;
position = "{390, 0}";
},
{
name = top;
position = "{390, 840}";
}
);
layerId = "BADE114B-EA49-45B4-AE36-72A7CEB6E1BE";
paths = (
{
closed = 1;
nodes = (
"646 0 OFFCURVE",
"694 6 OFFCURVE",
"735 18 CURVE",
"588 425 LINE",
"735 822 LINE",
"694 834 OFFCURVE",
"646 840 OFFCURVE",
"588 840 CURVE SMOOTH",
"550 840 OFFCURVE",
"504 837 OFFCURVE",
"474 831 CURVE",
"390 537 LINE",
"390 313 LINE",
"474 12 LINE",
"504 4 OFFCURVE",
"550 0 OFFCURVE",
"588 0 CURVE SMOOTH"
);
},
{
closed = 1;
nodes = (
"230 0 OFFCURVE",
"276 4 OFFCURVE",
"306 12 CURVE",
"390 313 LINE",
"390 537 LINE",
"306 831 LINE",
"276 837 OFFCURVE",
"230 840 OFFCURVE",
"192 840 CURVE SMOOTH",
"134 840 OFFCURVE",
"86 834 OFFCURVE",
"45 822 CURVE",
"192 425 LINE",
"45 18 LINE",
"86 6 OFFCURVE",
"134 0 OFFCURVE",
"192 0 CURVE SMOOTH"
);
}
);
width = 780;
}
);
leftKerningGroup = X;
note = X;
rightKerningGroup = X;
unicode = 0058;
},
{
glyphname = Y;
lastChange = "2023-08-10 14:53:50 +0000";
layers = (
{
anchors = (
{
name = _top;
position = "{415, 840}";
},
{
name = bottom;
position = "{415, 0}";
},
{
name = top;
position = "{415, 840}";
},
{
name = topleft;
position = "{20, 840}";
}
);
layerId = "BADE114B-EA49-45B4-AE36-72A7CEB6E1BE";
paths = (
{
closed = 1;
nodes = (
"504 0 OFFCURVE",
"539 22 OFFCURVE",
"539 22 CURVE SMOOTH",
"539 22 OFFCURVE",
"545 210 OFFCURVE",
"547 322 CURVE",
"785 820 LINE",
"744 833 OFFCURVE",
"686 840 OFFCURVE",
"631 840 CURVE SMOOTH",
"589 840 OFFCURVE",
"549 837 OFFCURVE",
"520 830 CURVE",
"415 579 LINE",
"310 830 LINE",
"281 837 OFFCURVE",
"241 840 OFFCURVE",
"199 840 CURVE SMOOTH",
"144 840 OFFCURVE",
"86 833 OFFCURVE",
"45 820 CURVE",
"283 322 LINE",
"285 210 OFFCURVE",
"291 22 OFFCURVE",
"291 22 CURVE SMOOTH",
"291 22 OFFCURVE",
"326 0 OFFCURVE",
"415 0 CURVE SMOOTH"
);
}
);
width = 830;
}
);
leftKerningGroup = Y;
note = Y;
rightKerningGroup = Y;
unicode = 0059;
},
{
glyphname = Z;
lastChange = "2023-04-03 08:15:56 +0000";
layers = (
{
anchors = (
{
name = bottom;
position = "{353, 0}";
},
{
name = center;
position = "{353, 420}";
},
{
name = top;
position = "{353, 840}";
}
);
layerId = "BADE114B-EA49-45B4-AE36-72A7CEB6E1BE";
paths = (
{
closed = 1;
nodes = (
"608 531 LINE",
"361 611 LINE",
"338 207 LINE"
);
},
{
closed = 1;
nodes = (
"338 207 LINE",
"91 269 LINE",
"56 227 OFFCURVE",
"50 202 OFFCURVE",
"50 149 CURVE SMOOTH",
"50 109 OFFCURVE",
"55 51 OFFCURVE",
"61 15 CURVE",
"175 2 OFFCURVE",
"348 0 OFFCURVE",
"348 0 CURVE"
);
},
{
closed = 1;
nodes = (
"495 -1 OFFCURVE",
"568 4 OFFCURVE",
"649 13 CURVE",
"655 57 OFFCURVE",
"655 121 OFFCURVE",
"655 211 CURVE",
"549 205 OFFCURVE",
"444 205 OFFCURVE",
"338 207 CURVE",
"348 0 LINE"
);
},
{
closed = 1;
nodes = (
"361 611 LINE",
"91 269 LINE",
"338 207 LINE"
);
},
{
closed = 1;
nodes = (
"644 573 OFFCURVE",
"649 598 OFFCURVE",
"649 651 CURVE SMOOTH",
"649 691 OFFCURVE",
"644 790 OFFCURVE",
"638 826 CURVE",
"524 839 OFFCURVE",
"351 840 OFFCURVE",
"351 840 CURVE",
"361 611 LINE",
"608 531 LINE"
);
},
{
closed = 1;
nodes = (
"351 840 LINE",
"256 841 OFFCURVE",
"176 837 OFFCURVE",
"66 828 CURVE",
"62 807 OFFCURVE",
"57 704 OFFCURVE",
"57 609 CURVE",
"164 614 OFFCURVE",
"265 614 OFFCURVE",
"361 611 CURVE"
);
}
);
width = 705;
}
);
leftKerningGroup = Z;
note = Z;
rightKerningGroup = Z;
unicode = 005A;
},
{
glyphname = G.alt;
lastChange = "2023-08-10 12:31:53 +0000";
layers = (
{
anchors = (
{
name = _top;
position = "{602, 174}";
}
);
layerId = "BADE114B-EA49-45B4-AE36-72A7CEB6E1BE";
paths = (
{
closed = 1;
nodes = (
"666 135 OFFCURVE",
"736 205 OFFCURVE",
"736 296 CURVE SMOOTH",
"736 385 OFFCURVE",
"666 455 OFFCURVE",
"575 455 CURVE SMOOTH",
"486 455 OFFCURVE",
"416 385 OFFCURVE",
"416 296 CURVE SMOOTH",
"416 205 OFFCURVE",
"486 135 OFFCURVE",
"575 135 CURVE SMOOTH"
);
},
{
closed = 1;
nodes = (
"618 -10 OFFCURVE",
"736 125 OFFCURVE",
"736 296 CURVE",
"519 163 LINE",
"499 148 OFFCURVE",
"469 138 OFFCURVE",
"441 138 CURVE SMOOTH",
"361 138 OFFCURVE",
"310 208 OFFCURVE",
"310 420 CURVE SMOOTH",
"310 515 OFFCURVE",
"320 664 OFFCURVE",
"395 664 CURVE SMOOTH",
"437 664 OFFCURVE",
"463 618 OFFCURVE",
"474 524 CURVE",
"569 522 OFFCURVE",
"657 532 OFFCURVE",
"736 552 CURVE",
"707 764 OFFCURVE",
"596 850 OFFCURVE",
"395 850 CURVE SMOOTH",
"167 850 OFFCURVE",
"45 741 OFFCURVE",
"45 420 CURVE SMOOTH",
"45 166 OFFCURVE",
"116 -10 OFFCURVE",
"395 -10 CURVE SMOOTH"
);
}
);
width = 781;
}
);
},
{
glyphname = J.alt;
lastChange = "2023-08-11 09:18:05 +0000";
layers = (
{
layerId = "BADE114B-EA49-45B4-AE36-72A7CEB6E1BE";
paths = (
{
closed = 1;
nodes = (
"319 0 OFFCURVE",
"379 66 OFFCURVE",
"379 215 CURVE SMOOTH",
"379 631 OFFCURVE",
"375 823 OFFCURVE",
"373 823 CURVE SMOOTH",
"373 823 OFFCURVE",
"346 840 OFFCURVE",
"248 840 CURVE SMOOTH",
"192 840 OFFCURVE",
"150 834 OFFCURVE",
"121 821 CURVE",
"121 570 LINE",
"121 407 OFFCURVE",
"225 394 OFFCURVE",
"225 299 CURVE SMOOTH",
"225 224 OFFCURVE",
"178 187 OFFCURVE",
"91 220 CURVE",
"64 137 OFFCURVE",
"48 67 OFFCURVE",
"45 24 CURVE",
"95 7 OFFCURVE",
"143 0 OFFCURVE",
"185 0 CURVE SMOOTH"
);
}
);
width = 429;
}
);
leftKerningGroup = J;
rightKerningGroup = J;
},
{
glyphname = G.alt2;
lastChange = "2023-08-11 06:47:49 +0000";
layers = (
{
layerId = "BADE114B-EA49-45B4-AE36-72A7CEB6E1BE";
paths = (
{
closed = 1;
nodes = (
"512 -10 OFFCURVE",
"610 10 OFFCURVE",
"678 47 CURVE",
"707 117 OFFCURVE",
"728 222 OFFCURVE",
"736 328 CURVE",
"654 349 OFFCURVE",
"569 358 OFFCURVE",
"469 356 CURVE",
"475 292 OFFCURVE",
"481 252 OFFCURVE",
"495 200 CURVE",
"479 190 OFFCURVE",
"448 176 OFFCURVE",
"418 176 CURVE SMOOTH",
"320 176 OFFCURVE",
"310 325 OFFCURVE",
"310 420 CURVE SMOOTH",
"310 515 OFFCURVE",
"320 664 OFFCURVE",
"395 664 CURVE SMOOTH",
"437 664 OFFCURVE",
"463 618 OFFCURVE",
"474 524 CURVE",
"569 522 OFFCURVE",
"657 532 OFFCURVE",
"736 552 CURVE",
"707 764 OFFCURVE",
"596 850 OFFCURVE",
"395 850 CURVE SMOOTH",
"167 850 OFFCURVE",
"45 741 OFFCURVE",
"45 420 CURVE SMOOTH",
"45 166 OFFCURVE",
"116 -10 OFFCURVE",
"395 -10 CURVE SMOOTH"
);
}
);
width = 781;
}
);
},
{
glyphname = G.alt3;
lastChange = "2023-08-11 06:49:37 +0000";
layers = (
{
layerId = "BADE114B-EA49-45B4-AE36-72A7CEB6E1BE";
paths = (
{
closed = 1;
nodes = (
"416 -10 OFFCURVE",
"485 12 OFFCURVE",
"534 43 CURVE",
"463 195 LINE",
"449 184 OFFCURVE",
"424 176 OFFCURVE",
"399 176 CURVE SMOOTH",
"352 176 OFFCURVE",
"310 233 OFFCURVE",
"310 420 CURVE SMOOTH",
"310 515 OFFCURVE",
"320 664 OFFCURVE",
"395 664 CURVE SMOOTH",
"437 664 OFFCURVE",
"463 618 OFFCURVE",
"474 524 CURVE",
"569 522 OFFCURVE",
"657 532 OFFCURVE",
"736 552 CURVE",
"707 764 OFFCURVE",
"596 850 OFFCURVE",
"395 850 CURVE SMOOTH",
"167 850 OFFCURVE",
"45 741 OFFCURVE",
"45 420 CURVE SMOOTH",
"45 166 OFFCURVE",
"116 -10 OFFCURVE",
"334 -10 CURVE SMOOTH"
);
},
{
closed = 1;
nodes = (
"549 14 OFFCURVE",
"611 0 OFFCURVE",
"678 0 CURVE",
"713 137 OFFCURVE",
"728 202 OFFCURVE",
"736 308 CURVE",
"654 329 OFFCURVE",
"569 338 OFFCURVE",
"469 336 CURVE",
"468 272 OFFCURVE",
"459 211 OFFCURVE",
"438 157 CURVE",
"511 45 LINE"
);
}
);
width = 781;
}
);
},
{
export = 0;
glyphname = "Alpha-latin";
lastChange = "2023-08-11 13:25:32 +0000";
layers = (
{
anchors = (
{
name = bottom;
position = "{607, 0}";
},
{
name = ogonek;
position = "{587, 0}";
},
{
name = top;
position = "{607, 840}";
},
{
name = topleft;
position = "{444, 840}";
}
);
layerId = "BADE114B-EA49-45B4-AE36-72A7CEB6E1BE";
paths = (
{
closed = 1;
nodes = (
"310 420 LINE",
"310 535 OFFCURVE",
"330 664 OFFCURVE",
"395 664 CURVE SMOOTH",
"436 664 OFFCURVE",
"463 646 OFFCURVE",
"474 608 CURVE",
"474 823 LINE",
"474 823 OFFCURVE",
"426 850 OFFCURVE",
"334 850 CURVE SMOOTH",
"177 850 OFFCURVE",
"45 741 OFFCURVE",
"45 420 CURVE"
);
},
{
closed = 1;
nodes = (
"607 420 LINE",
"607 840 LINE",
"509 840 OFFCURVE",
"474 823 OFFCURVE",
"474 823 CURVE",
"474 823 OFFCURVE",
"474 589 OFFCURVE",
"474 420 CURVE"
);
},
{
closed = 1;
nodes = (
"740 589 OFFCURVE",
"735 823 OFFCURVE",
"734 823 CURVE",
"734 823 OFFCURVE",
"705 840 OFFCURVE",
"607 840 CURVE",
"607 420 LINE",
"740 420 LINE"
);
},
{
closed = 1;
nodes = (
"607 420 LINE",
"607 0 LINE",
"705 0 OFFCURVE",
"734 17 OFFCURVE",
"734 17 CURVE",
"735 17 OFFCURVE",
"740 251 OFFCURVE",
"740 420 CURVE"
);
},
{
closed = 1;
nodes = (
"474 271 OFFCURVE",
"474 17 OFFCURVE",
"474 17 CURVE",
"474 17 OFFCURVE",
"509 0 OFFCURVE",
"607 0 CURVE",
"607 420 LINE",
"474 420 LINE"
);
},
{
closed = 1;
nodes = (
"45 99 OFFCURVE",
"170 -10 OFFCURVE",
"313 -10 CURVE SMOOTH",
"426 -10 OFFCURVE",
"474 47 OFFCURVE",
"474 47 CURVE",
"474 282 LINE",
"467 223 OFFCURVE",
"436 196 OFFCURVE",
"395 196 CURVE SMOOTH",
"320 196 OFFCURVE",
"310 325 OFFCURVE",
"310 420 CURVE",
"45 420 LINE"
);
}
);
width = 788;
}
);
unicode = 2C6D;
},
{
export = 0;
glyphname = Bhook;
lastChange = "2023-08-11 13:25:32 +0000";
layers = (
{
anchors = (
{
name = bottom;
position = "{603, 0}";
},
{
name = top;
position = "{603, 840}";
}
);
layerId = "BADE114B-EA49-45B4-AE36-72A7CEB6E1BE";
paths = (
{
closed = 1;
nodes = (
"27 763 OFFCURVE",
"27 632 CURVE SMOOTH",
"27 572 OFFCURVE",
"38 530 OFFCURVE",
"49 508 CURVE",
"110 500 OFFCURVE",
"190 501 OFFCURVE",
"269 514 CURVE",
"262 530 OFFCURVE",
"255 548 OFFCURVE",
"255 569 CURVE SMOOTH",
"255 614 OFFCURVE",
"275 635 OFFCURVE",
"307 635 CURVE",
"307 850 LINE",
"277 850 LINE",
"130 850 OFFCURVE"
);
},
{
closed = 1;
nodes = (
"844 -10 OFFCURVE",
"935 96 OFFCURVE",
"935 239 CURVE SMOOTH",
"935 317 OFFCURVE",
"908 384 OFFCURVE",
"820 420 CURVE",
"541 420 LINE",
"541 342 LINE",
"593 342 LINE",
"635 342 OFFCURVE",
"677 323 OFFCURVE",
"677 264 CURVE",
"677 207 OFFCURVE",
"643 178 OFFCURVE",
"584 178 CURVE",
"541 178 LINE",
"561 -10 LINE"
);
},
{
closed = 1;
nodes = (
"541 178 LINE",
"541 420 LINE",
"306 582 LINE",
"306 201 OFFCURVE",
"323 13 OFFCURVE",
"323 12 CURVE",
"323 12 OFFCURVE",
"384 -10 OFFCURVE",
"561 -10 CURVE"
);
},
{
closed = 1;
nodes = (
"541 420 LINE",
"541 662 LINE",
"561 850 LINE",
"307 850 LINE",
"306 582 LINE"
);
},
{
closed = 1;
nodes = (
"820 420 LINE",
"893 456 OFFCURVE",
"925 523 OFFCURVE",
"925 601 CURVE SMOOTH",
"925 744 OFFCURVE",
"834 850 OFFCURVE",
"561 850 CURVE",
"541 662 LINE",
"594 662 LINE",
"635 662 OFFCURVE",
"669 633 OFFCURVE",
"669 576 CURVE",
"669 517 OFFCURVE",
"628 498 OFFCURVE",
"603 498 CURVE",
"541 498 LINE",
"541 420 LINE"
);
}
);
width = 962;
}
);
unicode = 0181;
},
{
export = 0;
glyphname = Dhook;
lastChange = "2023-08-11 13:25:32 +0000";
layers = (
{
anchors = (
{
name = bottom;
position = "{631, 0}";
},
{
name = center;
position = "{631, 420}";
},
{
name = top;
position = "{594, 838}";
}
);
layerId = "BADE114B-EA49-45B4-AE36-72A7CEB6E1BE";
paths = (
{
closed = 1;
nodes = (
"971 786 OFFCURVE",
"796 850 OFFCURVE",
"594 850 CURVE",
"559 635 LINE",
"645 652 OFFCURVE",
"717 608 OFFCURVE",
"717 420 CURVE",
"972 420 LINE"
);
},
{
closed = 1;
nodes = (
"559 205 LINE",
"559 420 LINE",
"324 582 LINE",
"324 283 OFFCURVE",
"341 13 OFFCURVE",
"341 12 CURVE",
"341 12 OFFCURVE",
"417 -10 OFFCURVE",
"594 -10 CURVE"
);
},
{
closed = 1;
nodes = (
"717 420 LINE",
"717 232 OFFCURVE",
"645 188 OFFCURVE",
"559 205 CURVE",
"594 -10 LINE",
"796 -10 OFFCURVE",
"971 54 OFFCURVE",
"972 420 CURVE"
);
},
{
closed = 1;
nodes = (
"45 763 OFFCURVE",
"45 632 CURVE SMOOTH",
"45 572 OFFCURVE",
"56 530 OFFCURVE",
"67 508 CURVE",
"128 500 OFFCURVE",
"208 501 OFFCURVE",
"287 514 CURVE",
"280 530 OFFCURVE",
"273 548 OFFCURVE",
"273 569 CURVE SMOOTH",
"273 614 OFFCURVE",
"293 635 OFFCURVE",
"325 635 CURVE",
"325 850 LINE",
"295 850 LINE",
"148 850 OFFCURVE"
);
},
{
closed = 1;
nodes = (
"559 420 LINE",
"559 635 LINE",
"594 850 LINE",
"325 850 LINE",
"324 582 LINE"
);
}
);
width = 1017;
}
);
unicode = 018A;
},
{
export = 0;
glyphname = Dlinebelow;
lastChange = "2023-08-11 13:25:32 +0000";
layers = (
{
anchors = (
{
name = _bottom;
position = "{373, 0}";
}
);
components = (
{
name = D;
}
);
layerId = "BADE114B-EA49-45B4-AE36-72A7CEB6E1BE";
paths = (
{
closed = 1;
nodes = (
"63 -125 LINE",
"696 -125 LINE",
"696 -50 LINE",
"63 -50 LINE"
);
}
);
width = 745;
}
);
unicode = 1E0E;
},
{
export = 0;
glyphname = Fhook;
lastChange = "2023-08-11 13:25:32 +0000";
layers = (
{
anchors = (
{
name = _top;
position = "{457, 840}";
},
{
name = bottom;
position = "{457, 0}";
},
{
name = bottomright;
position = "{779, 0}";
},
{
name = center;
position = "{299, 420}";
},
{
name = top;
position = "{457, 840}";
}
);
layerId = "BADE114B-EA49-45B4-AE36-72A7CEB6E1BE";
paths = (
{
closed = 1;
nodes = (
"422 420 LINE",
"422 604 LINE",
"422 840 LINE",
"245 840 OFFCURVE",
"173 833 OFFCURVE",
"173 833 CURVE SMOOTH",
"173 833 OFFCURVE",
"166 686 OFFCURVE",
"166 420 CURVE"
);
},
{
closed = 1;
nodes = (
"370 -90 OFFCURVE",
"421 -26 OFFCURVE",
"421 230 CURVE",
"422 420 LINE",
"166 420 LINE",
"166 209 LINE",
"166 99 OFFCURVE",
"138 89 OFFCURVE",
"60 119 CURVE",
"36 78 OFFCURVE",
"24 -8 OFFCURVE",
"28 -60 CURVE",
"80 -79 OFFCURVE",
"127 -90 OFFCURVE",
"210 -90 CURVE"
);
},
{
closed = 1;
nodes = (
"439 623 OFFCURVE",
"496 625 OFFCURVE",
"565 625 CURVE SMOOTH",
"606 625 OFFCURVE",
"630 608 OFFCURVE",
"638 588 CURVE",
"731 586 LINE",
"738 605 OFFCURVE",
"742 637 OFFCURVE",
"743 702 CURVE SMOOTH",
"744 772 OFFCURVE",
"739 807 OFFCURVE",
"735 828 CURVE",
"625 840 OFFCURVE",
"569 841 OFFCURVE",
"422 840 CURVE",
"412 619 LINE"
);
},
{
closed = 1;
nodes = (
"629 313 LINE",
"633 341 OFFCURVE",
"635 380 OFFCURVE",
"635 411 CURVE",
"635 440 OFFCURVE",
"632 479 OFFCURVE",
"629 507 CURVE",
"372 502 LINE",
"372 316 LINE"
);
}
);
width = 789;
}
);
unicode = 0191;
},
{
export = 0;
glyphname = Hhook;
lastChange = "2023-08-11 13:25:32 +0000";
layers = (
{
anchors = (
{
name = bottom;
position = "{655, 0}";
},
{
name = center;
position = "{655, 420}";
},
{
name = top;
position = "{655, 840}";
},
{
name = topleft;
position = "{277, 840}";
}
);
layerId = "BADE114B-EA49-45B4-AE36-72A7CEB6E1BE";
paths = (
{
closed = 1;
nodes = (
"1002 420 LINE",
"1002 660 OFFCURVE",
"993 818 OFFCURVE",
"993 818 CURVE",
"993 818 OFFCURVE",
"958 840 OFFCURVE",
"869 840 CURVE",
"869 420 LINE"
);
},
{
closed = 1;
nodes = (
"440 420 LINE",
"307 420 LINE",
"307 180 OFFCURVE",
"316 22 OFFCURVE",
"316 22 CURVE",
"316 22 OFFCURVE",
"351 0 OFFCURVE",
"440 0 CURVE"
);
},
{
closed = 1;
nodes = (
"529 0 OFFCURVE",
"572 22 OFFCURVE",
"572 22 CURVE",
"572 309 LINE",
"572 420 LINE",
"440 420 LINE",
"440 0 LINE"
);
},
{
closed = 1;
nodes = (
"869 420 LINE",
"737 420 LINE",
"737 309 LINE",
"737 22 LINE",
"737 22 OFFCURVE",
"780 0 OFFCURVE",
"869 0 CURVE"
);
},
{
closed = 1;
nodes = (
"737 309 LINE",
"737 533 LINE",
"572 533 LINE",
"572 309 LINE"
);
},
{
closed = 1;
nodes = (
"572 420 LINE",
"572 533 LINE",
"572 818 LINE",
"572 818 OFFCURVE",
"486 840 OFFCURVE",
"307 840 CURVE",
"307 420 LINE"
);
},
{
closed = 1;
nodes = (
"958 0 OFFCURVE",
"993 22 OFFCURVE",
"993 22 CURVE",
"993 22 OFFCURVE",
"1002 180 OFFCURVE",
"1002 420 CURVE",
"869 420 LINE",
"869 0 LINE"
);
},
{
closed = 1;
nodes = (
"869 420 LINE",
"869 840 LINE",
"780 840 OFFCURVE",
"737 818 OFFCURVE",
"737 818 CURVE",
"737 533 LINE",
"737 420 LINE"
);
},
{
closed = 1;
nodes = (
"130 840 OFFCURVE",
"27 753 OFFCURVE",
"27 622 CURVE SMOOTH",
"27 562 OFFCURVE",
"38 520 OFFCURVE",
"49 498 CURVE",
"110 490 OFFCURVE",
"190 491 OFFCURVE",
"269 504 CURVE",
"262 520 OFFCURVE",
"255 538 OFFCURVE",
"255 559 CURVE SMOOTH",
"255 604 OFFCURVE",
"275 625 OFFCURVE",
"307 625 CURVE",
"307 840 LINE",
"277 840 LINE"
);
}
);
width = 1052;
}
);
unicode = A7AA;
},
{
export = 0;
glyphname = Nhookleft;
lastChange = "2023-08-11 13:25:32 +0000";
layers = (
{
layerId = "BADE114B-EA49-45B4-AE36-72A7CEB6E1BE";
paths = (
{
closed = 1;
nodes = (
"627 482 LINE",
"431 828 LINE",
"431 358 LINE",
"627 12 LINE"
);
},
{
closed = 1;
nodes = (
"299 420 LINE",
"299 840 LINE",
"210 840 OFFCURVE",
"175 818 OFFCURVE",
"175 818 CURVE",
"175 818 OFFCURVE",
"166 660 OFFCURVE",
"166 420 CURVE"
);
},
{
closed = 1;
nodes = (
"759 420 LINE",
"627 420 LINE",
"627 12 LINE",
"627 12 OFFCURVE",
"670 0 OFFCURVE",
"759 0 CURVE"
);
},
{
closed = 1;
nodes = (
"431 230 LINE",
"431 828 LINE",
"431 828 OFFCURVE",
"388 840 OFFCURVE",
"299 840 CURVE",
"299 420 LINE"
);
},
{
closed = 1;
nodes = (
"848 0 OFFCURVE",
"883 22 OFFCURVE",
"883 22 CURVE",
"883 22 OFFCURVE",
"892 180 OFFCURVE",
"892 420 CURVE",
"759 420 LINE",
"759 0 LINE"
);
},
{
closed = 1;
nodes = (
"759 420 LINE",
"759 840 LINE",
"670 840 OFFCURVE",
"627 818 OFFCURVE",
"627 818 CURVE",
"627 420 LINE"
);
},
{
closed = 1;
nodes = (
"892 420 LINE",
"892 660 OFFCURVE",
"883 818 OFFCURVE",
"883 818 CURVE",
"883 818 OFFCURVE",
"848 840 OFFCURVE",
"759 840 CURVE",
"759 420 LINE"
);
},
{
closed = 1;
nodes = (
"380 -90 OFFCURVE",
"431 -26 OFFCURVE",
"431 230 CURVE",
"299 420 LINE",
"166 420 LINE",
"166 209 LINE",
"166 99 OFFCURVE",
"138 89 OFFCURVE",
"60 119 CURVE",
"36 78 OFFCURVE",
"24 -8 OFFCURVE",
"28 -60 CURVE",
"80 -79 OFFCURVE",
"127 -90 OFFCURVE",
"210 -90 CURVE"
);
}
);
width = 942;
}
);
unicode = 019D;
},
{
export = 0;
glyphname = Rtail;
lastChange = "2023-08-11 13:25:32 +0000";
layers = (
{
anchors = (
{
name = _top;
position = "{367, 840}";
},
{
name = bottom;
position = "{381, 0}";
},
{
name = top;
position = "{368, 840}";
}
);
layerId = "BADE114B-EA49-45B4-AE36-72A7CEB6E1BE";
paths = (
{
closed = 1;
nodes = (
"669 0 OFFCURVE {stroke = {w = \"1\";};}",
"716 35 OFFCURVE {stroke = {w = \"1\";};}",
"716 35 CURVE {stroke = {w = \"1\";};}",
"575 387 LINE",
"360 297 LINE {stroke = {w = \"1\";};}",
"453 18 LINE {stroke = {w = \"1\";};}",
"453 18 OFFCURVE {stroke = {w = \"1\";};}",
"480 -1 OFFCURVE {stroke = {w = \"1\";};}",
"570 0 CURVE {stroke = {w = \"1\";};}"
);
},
{
closed = 1;
nodes = (
"534 287 OFFCURVE",
"690 347 OFFCURVE",
"690 576 CURVE SMOOTH",
"690 793 OFFCURVE",
"534 851 OFFCURVE",
"316 850 CURVE",
"316 651 LINE",
"344 651 LINE SMOOTH",
"401 651 OFFCURVE",
"434 629 OFFCURVE",
"434 570 CURVE SMOOTH",
"435 509 OFFCURVE",
"401 487 OFFCURVE",
"344 487 CURVE SMOOTH",
"316 487 LINE",
"316 287 LINE"
);
},
{
closed = 1;
nodes = (
"316 420 LINE",
"316 850 LINE",
"234 850 OFFCURVE",
"119 838 OFFCURVE",
"59 818 CURVE",
"59 818 OFFCURVE",
"50 684 OFFCURVE",
"50 420 CURVE"
);
},
{
closed = 1;
nodes = (
"316 420 LINE",
"316 850 LINE",
"234 850 OFFCURVE",
"119 838 OFFCURVE",
"59 818 CURVE",
"59 818 OFFCURVE",
"50 684 OFFCURVE",
"50 420 CURVE"
);
},
{
closed = 1;
nodes = (
"355 -240 OFFCURVE",
"402 -229 OFFCURVE",
"454 -210 CURVE",
"458 -158 OFFCURVE",
"446 -72 OFFCURVE",
"422 -31 CURVE",
"344 -61 OFFCURVE",
"316 -51 OFFCURVE",
"316 59 CURVE",
"316 420 LINE",
"50 420 LINE",
"51 80 LINE",
"51 -176 OFFCURVE",
"102 -240 OFFCURVE",
"272 -240 CURVE"
);
}
);
width = 761;
}
);
unicode = 2C64;
},
{
export = 0;
glyphname = Tlinebelow;
lastChange = "2023-08-11 13:25:32 +0000";
layers = (
{
components = (
{
name = T;
}
);
layerId = "BADE114B-EA49-45B4-AE36-72A7CEB6E1BE";
paths = (
{
closed = 1;
nodes = (
"75 -125 LINE",
"633 -125 LINE",
"633 -50 LINE",
"75 -50 LINE"
);
}
);
width = 708;
}
);
unicode = 1E6E;
},
{
glyphname = Gsmallhook;
lastChange = "2023-04-03 08:16:38 +0000";
layers = (
{
components = (
{
name = Gsmall;
}
);
layerId = "BADE114B-EA49-45B4-AE36-72A7CEB6E1BE";
paths = (
{
closed = 1;
nodes = (
"486 860 OFFCURVE",
"423 826 OFFCURVE",
"422 667 CURVE",
"422 465 LINE",
"637 389 LINE",
"637 608 LINE",
"637 665 OFFCURVE",
"649 679 OFFCURVE",
"708 667 CURVE",
"714 718 OFFCURVE",
"718 787 OFFCURVE",
"714 845 CURVE",
"687 854 OFFCURVE",
"655 860 OFFCURVE",
"593 860 CURVE"
);
}
);
width = 716;
}
);
unicode = 029B;
},
{
glyphname = Ismall;
lastChange = "2023-04-04 12:13:19 +0000";
layers = (
{
layerId = "BADE114B-EA49-45B4-AE36-72A7CEB6E1BE";
paths = (
{
closed = 1;
nodes = (
"351 478 LINE",
"139 478 LINE",
"139 127 LINE",
"351 127 LINE"
);
},
{
closed = 1;
nodes = (
"245 544 LINE",
"245 650 LINE",
"180 650 OFFCURVE",
"122 648 OFFCURVE",
"51 644 CURVE",
"48 635 OFFCURVE",
"45 589 OFFCURVE",
"45 544 CURVE"
);
},
{
closed = 1;
nodes = (
"445 544 LINE",
"445 589 OFFCURVE",
"442 635 OFFCURVE",
"439 644 CURVE",
"368 648 OFFCURVE",
"310 650 OFFCURVE",
"245 650 CURVE",
"245 544 LINE"
);
},
{
closed = 1;
nodes = (
"45 499 OFFCURVE",
"48 453 OFFCURVE",
"51 444 CURVE",
"122 444 OFFCURVE",
"180 444 OFFCURVE",
"245 444 CURVE",
"245 544 LINE",
"45 544 LINE"
);
},
{
closed = 1;
nodes = (
"245 444 LINE",
"310 444 OFFCURVE",
"368 444 OFFCURVE",
"439 444 CURVE",
"442 453 OFFCURVE",
"445 499 OFFCURVE",
"445 544 CURVE",
"245 544 LINE"
);
},
{
closed = 1;
nodes = (
"45 61 OFFCURVE",
"48 15 OFFCURVE",
"51 6 CURVE",
"122 2 OFFCURVE",
"180 0 OFFCURVE",
"245 0 CURVE",
"245 106 LINE",
"45 106 LINE"
);
},
{
closed = 1;
nodes = (
"245 0 LINE",
"310 0 OFFCURVE",
"368 2 OFFCURVE",
"439 6 CURVE",
"442 15 OFFCURVE",
"445 61 OFFCURVE",
"445 106 CURVE",
"245 106 LINE"
);
},
{
closed = 1;
nodes = (
"245 106 LINE",
"245 206 LINE",
"180 206 OFFCURVE",
"122 206 OFFCURVE",
"51 206 CURVE",
"48 197 OFFCURVE",
"45 151 OFFCURVE",
"45 106 CURVE"
);
},
{
closed = 1;
nodes = (
"445 106 LINE",
"445 151 OFFCURVE",
"442 197 OFFCURVE",
"439 206 CURVE",
"368 206 OFFCURVE",
"310 206 OFFCURVE",
"245 206 CURVE",
"245 106 LINE"
);
}
);
width = 490;
}
);
unicode = 026A;
},
{
glyphname = Lsmall;
lastChange = "2023-04-03 08:16:38 +0000";
layers = (
{
layerId = "BADE114B-EA49-45B4-AE36-72A7CEB6E1BE";
paths = (
{
closed = 1;
nodes = (
"279 325 LINE",
"45 325 LINE",
"45 139 OFFCURVE",
"55 17 OFFCURVE",
"55 17 CURVE",
"55 17 OFFCURVE",
"104 0 OFFCURVE",
"279 0 CURVE"
);
},
{
closed = 1;
nodes = (
"164 325 LINE",
"164 650 LINE",
"77 650 OFFCURVE",
"50 633 OFFCURVE",
"50 633 CURVE",
"49 633 OFFCURVE",
"45 511 OFFCURVE",
"45 325 CURVE"
);
},
{
closed = 1;
nodes = (
"279 633 LINE",
"279 633 OFFCURVE",
"251 650 OFFCURVE",
"164 650 CURVE",
"164 325 LINE",
"279 325 LINE"
);
},
{
closed = 1;
nodes = (
"394 -1 OFFCURVE",
"446 4 OFFCURVE",
"503 12 CURVE",
"507 55 OFFCURVE",
"507 118 OFFCURVE",
"507 201 CURVE",
"279 200 LINE",
"279 0 LINE"
);
}
);
width = 552;
}
);
unicode = 029F;
},
{
glyphname = Rsmall;
lastChange = "2023-04-04 12:14:47 +0000";
layers = (
{
layerId = "BADE114B-EA49-45B4-AE36-72A7CEB6E1BE";
paths = (
{
closed = 1;
nodes = (
"463 198 OFFCURVE",
"595 247 OFFCURVE",
"595 435 CURVE SMOOTH",
"595 612 OFFCURVE",
"463 660 OFFCURVE",
"279 659 CURVE",
"279 487 LINE",
"300 487 LINE SMOOTH",
"341 487 OFFCURVE",
"365 471 OFFCURVE",
"365 429 CURVE SMOOTH",
"365 387 OFFCURVE",
"341 371 OFFCURVE",
"300 371 CURVE SMOOTH",
"279 371 LINE",
"279 198 LINE"
);
},
{
closed = 1;
nodes = (
"104 659 OFFCURVE",
"55 642 OFFCURVE",
"55 642 CURVE",
"55 642 OFFCURVE",
"45 516 OFFCURVE",
"45 325 CURVE",
"279 325 LINE",
"279 659 LINE"
);
},
{
closed = 1;
nodes = (
"45 139 OFFCURVE",
"49 17 OFFCURVE",
"50 17 CURVE",
"50 17 OFFCURVE",
"77 0 OFFCURVE",
"164 0 CURVE",
"164 325 LINE",
"45 325 LINE"
);
},
{
closed = 1;
nodes = (
"164 325 LINE",
"164 0 LINE",
"251 0 OFFCURVE",
"279 17 OFFCURVE",
"279 17 CURVE",
"279 325 LINE"
);
},
{
closed = 1;
nodes = (
"549 2 OFFCURVE {stroke = {w = \"1\";};}",
"590 29 OFFCURVE {stroke = {w = \"1\";};}",
"590 29 CURVE {stroke = {w = \"1\";};}",
"529 299 LINE",
"462 299 OFFCURVE",
"384 299 OFFCURVE",
"317 299 CURVE {stroke = {w = \"1\";};}",
"317 265 LINE {stroke = {w = \"1\";};}",
"355 16 LINE {stroke = {w = \"1\";};}",
"355 16 OFFCURVE {stroke = {w = \"1\";};}",
"389 1 OFFCURVE {stroke = {w = \"1\";};}",
"466 2 CURVE {stroke = {w = \"1\";};}"
);
}
);
width = 640;
}
);
leftKerningGroup = i;
unicode = 0280;
},
{
glyphname = Ysmall;
lastChange = "2023-04-03 08:16:38 +0000";
layers = (
{
layerId = "BADE114B-EA49-45B4-AE36-72A7CEB6E1BE";
paths = (
{
closed = 1;
nodes = (
"490 249 LINE",
"674 635 LINE",
"639 645 OFFCURVE",
"586 650 OFFCURVE",
"545 650 CURVE SMOOTH",
"512 650 OFFCURVE",
"463 648 OFFCURVE",
"431 642 CURVE",
"359 458 LINE",
"287 642 LINE",
"255 648 OFFCURVE",
"206 650 OFFCURVE",
"173 650 CURVE SMOOTH",
"132 650 OFFCURVE",
"79 645 OFFCURVE",
"45 635 CURVE",
"228 249 LINE"
);
},
{
closed = 1;
nodes = (
"359 249 LINE",
"228 249 LINE",
"228 106 OFFCURVE",
"234 13 OFFCURVE",
"234 13 CURVE",
"234 13 OFFCURVE",
"261 0 OFFCURVE",
"359 0 CURVE"
);
},
{
closed = 1;
nodes = (
"457 0 OFFCURVE",
"484 13 OFFCURVE",
"484 13 CURVE",
"485 13 OFFCURVE",
"491 106 OFFCURVE",
"490 249 CURVE",
"359 249 LINE",
"359 0 LINE"
);
}
);
width = 719;
}
);
unicode = 028F;
},
{
glyphname = a;
lastChange = "2023-08-11 05:32:51 +0000";
layers = (
{
anchors = (
{
name = bottom;
position = "{356, 0}";
},
{
name = ogonek;
position = "{547, 0}";
},
{
name = top;
position = "{376, 650}";
}
);
layerId = "BADE114B-EA49-45B4-AE36-72A7CEB6E1BE";
paths = (
{
closed = 1;
nodes = (
"346 -10 OFFCURVE",
"417 5 OFFCURVE",
"432 41 CURVE",
"432 249 LINE",
"432 219 OFFCURVE",
"409 166 OFFCURVE",
"356 166 CURVE SMOOTH",
"310 166 OFFCURVE",
"277 214 OFFCURVE",
"277 325 CURVE SMOOTH",
"277 436 OFFCURVE",
"310 484 OFFCURVE",
"356 484 CURVE SMOOTH",
"400 484 OFFCURVE",
"432 455 OFFCURVE",
"432 430 CURVE",
"432 631 LINE",
"406 642 OFFCURVE",
"360 650 OFFCURVE",
"294 650 CURVE SMOOTH",
"128 650 OFFCURVE",
"45 549 OFFCURVE",
"45 325 CURVE SMOOTH",
"45 102 OFFCURVE",
"128 -8 OFFCURVE",
"294 -10 CURVE SMOOTH"
);
},
{
closed = 1;
nodes = (
"636 0 OFFCURVE",
"661 17 OFFCURVE",
"661 17 CURVE",
"661 18 OFFCURVE",
"666 140 OFFCURVE",
"666 325 CURVE",
"547 325 LINE",
"547 0 LINE"
);
},
{
closed = 1;
nodes = (
"547 650 LINE",
"496 650 OFFCURVE",
"458 644 OFFCURVE",
"432 631 CURVE",
"432 41 LINE",
"432 18 LINE",
"463 6 OFFCURVE",
"492 0 OFFCURVE",
"547 0 CURVE"
);
},
{
closed = 1;
nodes = (
"666 325 LINE",
"666 511 OFFCURVE",
"662 633 OFFCURVE",
"661 633 CURVE",
"661 633 OFFCURVE",
"636 650 OFFCURVE",
"547 650 CURVE",
"547 325 LINE"
);
}
);
width = 711;
}
);
leftKerningGroup = o;
note = a;
rightKerningGroup = i;
unicode = 0061;
},
{
glyphname = ae;
lastChange = "2023-08-10 14:24:18 +0000";
layers = (
{
anchors = (
{
name = bottom;
position = "{532, 0}";
},
{
name = ogonek;
position = "{742, 0}";
},
{
name = top;
position = "{532, 650}";
}
);
components = (
{
name = e;
transform = "{1, 0, 0, 1, 388, 0}";
}
);
layerId = "BADE114B-EA49-45B4-AE36-72A7CEB6E1BE";
paths = (
{
closed = 1;
nodes = (
"384 -10 OFFCURVE",
"482 10 OFFCURVE",
"533 65 CURVE",
"532 327 LINE",
"395 374 LINE",
"395 323 LINE",
"394 199 OFFCURVE",
"374 153 OFFCURVE",
"299 153 CURVE SMOOTH",
"270 153 OFFCURVE",
"233 167 OFFCURVE",
"233 206 CURVE SMOOTH",
"233 280 OFFCURVE",
"313 312 OFFCURVE",
"395 323 CURVE",
"395 399 LINE",
"179 383 OFFCURVE",
"45 327 OFFCURVE",
"45 177 CURVE SMOOTH",
"45 55 OFFCURVE",
"143 -10 OFFCURVE",
"284 -10 CURVE SMOOTH"
);
},
{
closed = 1;
nodes = (
"532 327 LINE",
"533 556 LINE",
"487 621 OFFCURVE",
"406 660 OFFCURVE",
"317 660 CURVE",
"230 660 OFFCURVE",
"138 621 OFFCURVE",
"52 547 CURVE",
"116 404 LINE",
"181 451 OFFCURVE",
"234 474 OFFCURVE",
"298 474 CURVE",
"364 474 OFFCURVE",
"395 433 OFFCURVE",
"395 374 CURVE"
);
}
);
width = 1095;
}
);
leftKerningGroup = o;
rightKerningGroup = e;
unicode = 00E6;
},
{
glyphname = b;
lastChange = "2023-04-03 08:15:56 +0000";
layers = (
{
anchors = (
{
name = bottom;
position = "{361, 0}";
},
{
name = top;
position = "{361, 650}";
}
);
layerId = "BADE114B-EA49-45B4-AE36-72A7CEB6E1BE";
paths = (
{
closed = 1;
nodes = (
"588 -8 OFFCURVE",
"671 102 OFFCURVE",
"671 325 CURVE SMOOTH",
"671 549 OFFCURVE",
"588 660 OFFCURVE",
"422 660 CURVE SMOOTH",
"356 660 OFFCURVE",
"310 652 OFFCURVE",
"284 641 CURVE",
"284 430 LINE",
"284 455 OFFCURVE",
"316 484 OFFCURVE",
"360 484 CURVE SMOOTH",
"406 484 OFFCURVE",
"439 436 OFFCURVE",
"439 325 CURVE SMOOTH",
"439 214 OFFCURVE",
"406 166 OFFCURVE",
"360 166 CURVE SMOOTH",
"307 166 OFFCURVE",
"284 219 OFFCURVE",
"284 249 CURVE",
"284 41 LINE",
"299 5 OFFCURVE",
"370 -10 OFFCURVE",
"422 -10 CURVE SMOOTH"
);
},
{
closed = 1;
nodes = (
"169 325 LINE",
"50 325 LINE",
"50 139 OFFCURVE",
"55 17 OFFCURVE",
"55 17 CURVE",
"55 17 OFFCURVE",
"80 0 OFFCURVE",
"169 0 CURVE"
);
},
{
closed = 1;
nodes = (
"224 0 OFFCURVE",
"253 6 OFFCURVE",
"284 18 CURVE",
"284 41 LINE",
"284 871 LINE",
"258 884 OFFCURVE",
"220 890 OFFCURVE",
"169 890 CURVE",
"169 0 LINE"
);
},
{
closed = 1;
nodes = (
"169 325 LINE",
"169 890 LINE",
"80 890 OFFCURVE",
"55 873 OFFCURVE",
"55 873 CURVE",
"54 873 OFFCURVE",
"50 751 OFFCURVE",
"50 325 CURVE"
);
}
);
width = 716;
}
);
leftKerningGroup = I;
note = b;
rightKerningGroup = o;
unicode = 0062;
},
{
glyphname = bhook;
lastChange = "2023-08-11 13:25:37 +0000";
layers = (
{
layerId = "BADE114B-EA49-45B4-AE36-72A7CEB6E1BE";
paths = (
{
closed = 1;
nodes = (
"169 515 LINE",
"50 515 LINE",
"52 329 OFFCURVE",
"55 17 OFFCURVE",
"55 17 CURVE",
"55 17 OFFCURVE",
"80 0 OFFCURVE",
"169 0 CURVE"
);
},
{
closed = 1;
nodes = (
"224 0 OFFCURVE",
"253 6 OFFCURVE",
"284 18 CURVE",
"284 515 LINE",
"169 515 LINE",
"169 0 LINE"
);
},
{
closed = 1;
nodes = (
"120 900 OFFCURVE",
"51 866 OFFCURVE",
"50 707 CURVE",
"50 515 LINE",
"284 515 LINE",
"284 648 LINE",
"284 705 OFFCURVE",
"297 719 OFFCURVE",
"361 707 CURVE",
"367 758 OFFCURVE",
"372 827 OFFCURVE",
"367 885 CURVE",
"338 894 OFFCURVE",
"303 900 OFFCURVE",
"236 900 CURVE"
);
},
{
closed = 1;
nodes = (
"588 -8 OFFCURVE",
"671 102 OFFCURVE",
"671 325 CURVE SMOOTH",
"671 549 OFFCURVE",
"588 660 OFFCURVE",
"422 660 CURVE SMOOTH",
"356 660 OFFCURVE",
"310 652 OFFCURVE",
"284 641 CURVE",
"284 430 LINE",
"284 455 OFFCURVE",
"316 484 OFFCURVE",
"360 484 CURVE SMOOTH",
"406 484 OFFCURVE",
"439 436 OFFCURVE",
"439 325 CURVE SMOOTH",
"439 214 OFFCURVE",
"406 166 OFFCURVE",
"360 166 CURVE SMOOTH",
"307 166 OFFCURVE",
"284 219 OFFCURVE",
"284 249 CURVE",
"284 41 LINE",
"299 5 OFFCURVE",
"370 -10 OFFCURVE",
"422 -10 CURVE SMOOTH"
);
}
);
width = 716;
}
);
unicode = 0253;
},
{
glyphname = bilabialclick;
lastChange = "2023-04-03 08:16:38 +0000";
layers = (
{
hints = (
{
horizontal = 1;
place = "{421, 21}";
target = up;
type = BottomGhost;
}
);
layerId = "BADE114B-EA49-45B4-AE36-72A7CEB6E1BE";
paths = (
{
closed = 1;
nodes = (
"45 103 OFFCURVE",
"187 -10 OFFCURVE",
"396 -10 CURVE SMOOTH",
"632 -10 OFFCURVE",
"745 137 OFFCURVE",
"745 420 CURVE SMOOTH",
"745 737 OFFCURVE",
"607 850 OFFCURVE",
"396 850 CURVE SMOOTH",
"187 850 OFFCURVE",
"45 737 OFFCURVE",
"45 420 CURVE SMOOTH"
);
},
{
closed = 1;
nodes = (
"255 568 OFFCURVE",
"321 627 OFFCURVE",
"396 627 CURVE SMOOTH",
"475 627 OFFCURVE",
"535 568 OFFCURVE",
"535 420 CURVE SMOOTH",
"535 273 OFFCURVE",
"475 213 OFFCURVE",
"396 213 CURVE SMOOTH",
"321 213 OFFCURVE",
"255 272 OFFCURVE",
"255 420 CURVE SMOOTH"
);
},
{
closed = 1;
nodes = (
"450 320 OFFCURVE",
"495 365 OFFCURVE",
"495 421 CURVE SMOOTH",
"495 475 OFFCURVE",
"450 520 OFFCURVE",
"395 520 CURVE SMOOTH",
"339 520 OFFCURVE",
"295 475 OFFCURVE",
"295 421 CURVE SMOOTH",
"295 365 OFFCURVE",
"339 320 OFFCURVE",
"395 320 CURVE SMOOTH"
);
}
);
width = 790;
}
);
unicode = 0298;
},
{
glyphname = c;
lastChange = "2023-04-03 08:15:56 +0000";
layers = (
{
anchors = (
{
name = bottom;
position = "{349, 0}";
},
{
name = top;
position = "{349, 650}";
}
);
layerId = "BADE114B-EA49-45B4-AE36-72A7CEB6E1BE";
paths = (
{
closed = 1;
nodes = (
"275 325 LINE",
"275 431 OFFCURVE",
"315 475 OFFCURVE",
"357 475 CURVE",
"351 660 LINE",
"168 660 OFFCURVE",
"45 581 OFFCURVE",
"45 325 CURVE"
);
},
{
closed = 1;
nodes = (
"357 175 LINE",
"315 175 OFFCURVE",
"275 219 OFFCURVE",
"275 325 CURVE",
"45 325 LINE",
"45 69 OFFCURVE",
"168 -10 OFFCURVE",
"351 -10 CURVE"
);
},
{
closed = 1;
nodes = (
"532 -9 OFFCURVE",
"629 58 OFFCURVE",
"653 222 CURVE",
"595 237 OFFCURVE",
"514 245 OFFCURVE",
"425 243 CURVE",
"414 190 OFFCURVE",
"389 175 OFFCURVE",
"357 175 CURVE",
"351 -10 LINE"
);
},
{
closed = 1;
nodes = (
"514 405 OFFCURVE",
"595 413 OFFCURVE",
"653 428 CURVE",
"629 592 OFFCURVE",
"532 659 OFFCURVE",
"351 660 CURVE",
"357 475 LINE",
"389 475 OFFCURVE",
"414 460 OFFCURVE",
"425 407 CURVE"
);
}
);
width = 698;
}
);
leftKerningGroup = o;
note = c;
rightKerningGroup = o;
unicode = 0063;
},
{
glyphname = ccurl;
lastChange = "2023-04-03 08:16:38 +0000";
layers = (
{
layerId = "BADE114B-EA49-45B4-AE36-72A7CEB6E1BE";
paths = (
{
closed = 1;
nodes = (
"275 291 LINE",
"275 431 OFFCURVE",
"315 475 OFFCURVE",
"357 475 CURVE",
"351 660 LINE",
"168 660 OFFCURVE",
"45 581 OFFCURVE",
"45 325 CURVE"
);
},
{
closed = 1;
nodes = (
"397 101 LINE",
"297 101 OFFCURVE",
"275 185 OFFCURVE",
"275 291 CURVE",
"45 325 LINE",
"45 69 OFFCURVE",
"208 -10 OFFCURVE",
"391 -10 CURVE"
);
},
{
closed = 1;
nodes = (
"514 405 OFFCURVE",
"595 413 OFFCURVE",
"653 428 CURVE",
"629 592 OFFCURVE",
"532 659 OFFCURVE",
"351 660 CURVE",
"357 475 LINE",
"389 475 OFFCURVE",
"414 460 OFFCURVE",
"425 407 CURVE"
);
},
{
closed = 1;
nodes = (
"439 343 OFFCURVE",
"388 307 OFFCURVE",
"348 204 CURVE SMOOTH",
"306 95 OFFCURVE",
"288 35 OFFCURVE",
"266 -74 CURVE",
"266 -74 OFFCURVE",
"277 -82 OFFCURVE",
"321 -83 CURVE SMOOTH",
"365 -83 OFFCURVE",
"378 -73 OFFCURVE",
"378 -73 CURVE",
"394 4 OFFCURVE",
"417 89 OFFCURVE",
"445 163 CURVE SMOOTH",
"463 209 OFFCURVE",
"485 224 OFFCURVE",
"513 224 CURVE SMOOTH",
"536 224 OFFCURVE",
"546 206 OFFCURVE",
"546 187 CURVE SMOOTH",
"546 135 OFFCURVE",
"500 101 OFFCURVE",
"397 101 CURVE",
"351 -10 LINE",
"545 -10 OFFCURVE",
"657 69 OFFCURVE",
"657 195 CURVE SMOOTH",
"657 274 OFFCURVE",
"602 343 OFFCURVE",
"514 343 CURVE SMOOTH"
);
}
);
width = 702;
}
);
unicode = 0255;
},
{
glyphname = eth;
lastChange = "2023-04-03 08:16:02 +0000";
layers = (
{
layerId = "BADE114B-EA49-45B4-AE36-72A7CEB6E1BE";
paths = (
{
closed = 1;
nodes = (
"681 719 LINE",
"671 768 LINE",
"181 667 LINE",
"191 618 LINE"
);
},
{
closed = 1;
nodes = (
"317 173 OFFCURVE",
"310 240 OFFCURVE",
"310 294 CURVE",
"310 347 OFFCURVE",
"317 414 OFFCURVE",
"370 414 CURVE",
"423 414 OFFCURVE",
"430 347 OFFCURVE",
"430 294 CURVE",
"430 240 OFFCURVE",
"423 173 OFFCURVE",
"370 173 CURVE"
);
},
{
closed = 1;
nodes = (
"575 -10 OFFCURVE",
"678 86 OFFCURVE",
"678 294 CURVE",
"678 670 OFFCURVE",
"577 840 OFFCURVE",
"231 840 CURVE",
"207 715 LINE",
"319 715 OFFCURVE",
"387 672 OFFCURVE",
"412 566 CURVE",
"377 589 OFFCURVE",
"343 597 OFFCURVE",
"294 597 CURVE",
"176 597 OFFCURVE",
"62 514 OFFCURVE",
"62 294 CURVE",
"62 86 OFFCURVE",
"165 -10 OFFCURVE",
"370 -10 CURVE"
);
}
);
width = 740;
}
);
leftKerningGroup = eth;
rightKerningGroup = flat;
unicode = 00F0;
},
{
glyphname = dcroat;
lastChange = "2023-08-11 13:25:53 +0000";
layers = (
{
components = (
{
name = d;
transform = "{1, 0, 0, 1, -5, 0}";
},
{
name = strokeshortcomb;
transform = "{1, 0, 0, 1, -5, 0}";
}
);
layerId = "BADE114B-EA49-45B4-AE36-72A7CEB6E1BE";
paths = (
{
closed = 1;
nodes = (
"719 707 LINE",
"719 799 LINE",
"339 799 LINE",
"339 707 LINE"
);
}
);
width = 754;
}
);
leftKerningGroup = o_diacritic;
rightKerningGroup = flat;
unicode = 0111;
},
{
glyphname = dezh;
lastChange = "2023-04-03 08:16:38 +0000";
layers = (
{
anchors = (
{
name = bottom;
position = "{358, 0}";
},
{
name = center;
position = "{358, 325}";
},
{
name = top;
position = "{552, 840}";
},
{
name = topright;
position = "{696, 650}";
}
);
components = (
{
name = ezh;
transform = "{1, 0, 0, 1, 552, 0}";
}
);
layerId = "BADE114B-EA49-45B4-AE36-72A7CEB6E1BE";
paths = (
{
closed = 1;
nodes = (
"346 -10 OFFCURVE",
"417 5 OFFCURVE",
"432 41 CURVE",
"432 249 LINE",
"432 219 OFFCURVE",
"409 166 OFFCURVE",
"356 166 CURVE SMOOTH",
"310 166 OFFCURVE",
"277 214 OFFCURVE",
"277 325 CURVE SMOOTH",
"277 436 OFFCURVE",
"310 484 OFFCURVE",
"356 484 CURVE SMOOTH",
"400 484 OFFCURVE",
"432 455 OFFCURVE",
"432 430 CURVE",
"432 641 LINE",
"406 652 OFFCURVE",
"360 660 OFFCURVE",
"294 660 CURVE SMOOTH",
"128 660 OFFCURVE",
"45 549 OFFCURVE",
"45 325 CURVE SMOOTH",
"45 102 OFFCURVE",
"128 -8 OFFCURVE",
"294 -10 CURVE SMOOTH"
);
},
{
closed = 1;
nodes = (
"547 890 LINE",
"496 890 OFFCURVE",
"458 884 OFFCURVE",
"432 871 CURVE",
"432 41 LINE",
"432 18 LINE",
"463 6 OFFCURVE",
"492 0 OFFCURVE",
"547 0 CURVE"
);
},
{
closed = 1;
nodes = (
"602 0 OFFCURVE",
"631 11 OFFCURVE",
"662 32 CURVE",
"662 871 LINE",
"636 884 OFFCURVE",
"598 890 OFFCURVE",
"547 890 CURVE",
"547 0 LINE"
);
}
);
width = 1231;
}
);
unicode = 02A4;
},
{
glyphname = dhook;
lastChange = "2023-08-11 13:25:37 +0000";
layers = (
{
layerId = "BADE114B-EA49-45B4-AE36-72A7CEB6E1BE";
paths = (
{
closed = 1;
nodes = (
"641 0 OFFCURVE",
"666 17 OFFCURVE",
"666 17 CURVE",
"666 17 OFFCURVE",
"669 329 OFFCURVE",
"671 515 CURVE",
"552 515 LINE",
"552 0 LINE"
);
},
{
closed = 1;
nodes = (
"552 515 LINE",
"437 515 LINE",
"437 18 LINE",
"468 6 OFFCURVE",
"497 0 OFFCURVE",
"552 0 CURVE"
);
},
{
closed = 1;
nodes = (
"507 900 OFFCURVE",
"438 866 OFFCURVE",
"437 707 CURVE",
"437 515 LINE",
"671 515 LINE",
"671 648 LINE",
"671 705 OFFCURVE",
"684 719 OFFCURVE",
"748 707 CURVE",
"754 758 OFFCURVE",
"759 827 OFFCURVE",
"754 885 CURVE",
"725 894 OFFCURVE",
"690 900 OFFCURVE",
"623 900 CURVE"
);
},
{
closed = 1;
nodes = (
"351 -10 OFFCURVE",
"422 5 OFFCURVE",
"437 41 CURVE",
"437 249 LINE",
"437 219 OFFCURVE",
"414 166 OFFCURVE",
"361 166 CURVE SMOOTH",
"315 166 OFFCURVE",
"282 214 OFFCURVE",
"282 325 CURVE SMOOTH",
"282 436 OFFCURVE",
"315 484 OFFCURVE",
"361 484 CURVE SMOOTH",
"405 484 OFFCURVE",
"437 455 OFFCURVE",
"437 430 CURVE",
"437 641 LINE",
"411 652 OFFCURVE",
"365 660 OFFCURVE",
"299 660 CURVE SMOOTH",
"133 660 OFFCURVE",
"50 549 OFFCURVE",
"50 325 CURVE SMOOTH",
"50 102 OFFCURVE",
"133 -8 OFFCURVE",
"299 -10 CURVE SMOOTH"
);
}
);
width = 756;
}
);
unicode = 0257;
},
{
glyphname = dtail;
lastChange = "2023-08-11 13:25:37 +0000";
layers = (
{
layerId = "BADE114B-EA49-45B4-AE36-72A7CEB6E1BE";
paths = (
{
closed = 1;
nodes = (
"351 -10 OFFCURVE",
"422 5 OFFCURVE",
"437 41 CURVE",
"437 249 LINE",
"437 219 OFFCURVE",
"414 166 OFFCURVE",
"361 166 CURVE SMOOTH",
"315 166 OFFCURVE",
"282 214 OFFCURVE",
"282 325 CURVE SMOOTH",
"282 436 OFFCURVE",
"315 484 OFFCURVE",
"361 484 CURVE SMOOTH",
"405 484 OFFCURVE",
"437 455 OFFCURVE",
"437 430 CURVE",
"437 641 LINE",
"411 652 OFFCURVE",
"365 660 OFFCURVE",
"299 660 CURVE SMOOTH",
"133 660 OFFCURVE",
"50 549 OFFCURVE",
"50 325 CURVE SMOOTH",
"50 102 OFFCURVE",
"133 -8 OFFCURVE",
"299 -10 CURVE SMOOTH"
);
},
{
closed = 1;
nodes = (
"552 840 LINE",
"501 840 OFFCURVE",
"463 834 OFFCURVE",
"437 821 CURVE",
"437 41 LINE",
"437 325 LINE",
"468 325 OFFCURVE",
"497 325 OFFCURVE",
"552 325 CURVE"
);
},
{
closed = 1;
nodes = (
"671 701 OFFCURVE",
"667 823 OFFCURVE",
"666 823 CURVE",
"666 823 OFFCURVE",
"641 840 OFFCURVE",
"552 840 CURVE",
"552 325 LINE",
"671 325 LINE"
);
},
{
closed = 1;
nodes = (
"689 -240 OFFCURVE",
"723 -234 OFFCURVE",
"753 -225 CURVE",
"758 -167 OFFCURVE",
"753 -98 OFFCURVE",
"747 -47 CURVE",
"683 -59 OFFCURVE",
"671 -45 OFFCURVE",
"671 12 CURVE",
"671 325 LINE",
"437 325 LINE",
"437 -47 LINE",
"438 -206 OFFCURVE",
"506 -240 OFFCURVE",
"623 -240 CURVE"
);
}
);
width = 755;
}
);
unicode = 0256;
},
{
glyphname = e;
lastChange = "2023-08-11 13:16:23 +0000";
layers = (
{
anchors = (
{
name = bottom;
position = "{344, 0}";
},
{
name = ogonek;
position = "{328, 0}";
},
{
name = top;
position = "{344, 650}";
}
);
layerId = "BADE114B-EA49-45B4-AE36-72A7CEB6E1BE";
paths = (
{
closed = 1;
nodes = (
"279 244 LINE",
"460 203 OFFCURVE",
"633 282 OFFCURVE",
"633 431 CURVE SMOOTH",
"633 558 OFFCURVE",
"563 660 OFFCURVE",
"345 660 CURVE SMOOTH",
"127 660 OFFCURVE",
"35 558 OFFCURVE",
"35 308 CURVE"
);
},
{
closed = 1;
nodes = (
"449 -10 OFFCURVE",
"557 12 OFFCURVE",
"642 78 CURVE",
"628 147 OFFCURVE",
"615 186 OFFCURVE",
"579 246 CURVE",
"497 193 OFFCURVE",
"443 181 OFFCURVE",
"374 182 CURVE SMOOTH",
"320 183 OFFCURVE",
"279 206 OFFCURVE",
"279 244 CURVE",
"35 308 LINE",
"35 107 OFFCURVE",
"128 -10 OFFCURVE",
"343 -10 CURVE SMOOTH"
);
},
{
closed = 1;
nodes = (
"282 428 OFFCURVE",
"313 489 OFFCURVE",
"370 489 CURVE SMOOTH",
"398 489 OFFCURVE",
"413 472 OFFCURVE",
"413 452 CURVE SMOOTH",
"413 402 OFFCURVE",
"360 382 OFFCURVE",
"278 383 CURVE"
);
}
);
width = 672;
}
);
leftKerningGroup = o;
note = e;
rightKerningGroup = o;
unicode = 0065;
},
{
glyphname = eopenreversedclosed;
lastChange = "2023-04-03 08:16:38 +0000";
layers = (
{
layerId = "BADE114B-EA49-45B4-AE36-72A7CEB6E1BE";
paths = (
{
closed = 1;
nodes = (
"518 -10 OFFCURVE",
"592 62 OFFCURVE",
"592 196 CURVE SMOOTH",
"592 260 OFFCURVE",
"566 309 OFFCURVE",
"518 331 CURVE",
"561 354 OFFCURVE",
"585 400 OFFCURVE",
"585 468 CURVE SMOOTH",
"585 590 OFFCURVE",
"512 660 OFFCURVE",
"329 660 CURVE",
"332 488 LINE",
"359 488 OFFCURVE",
"378 472 OFFCURVE",
"378 437 CURVE SMOOTH",
"378 406 OFFCURVE",
"366 390 OFFCURVE",
"317 390 CURVE",
"317 271 LINE",
"367 271 OFFCURVE",
"379 255 OFFCURVE",
"379 222 CURVE SMOOTH",
"379 183 OFFCURVE",
"361 166 OFFCURVE",
"329 166 CURVE",
"329 -10 LINE"
);
},
{
closed = 1;
nodes = (
"239 325 LINE",
"239 439 OFFCURVE",
"266 488 OFFCURVE",
"332 488 CURVE",
"329 660 LINE",
"105 660 OFFCURVE",
"25 555 OFFCURVE",
"25 325 CURVE"
);
},
{
closed = 1;
nodes = (
"25 95 OFFCURVE",
"105 -10 OFFCURVE",
"329 -10 CURVE",
"329 166 LINE",
"263 166 OFFCURVE",
"239 211 OFFCURVE",
"239 325 CURVE",
"25 325 LINE"
);
}
);
width = 637;
}
);
unicode = 025E;
},
{
glyphname = eopenreversedhook;
lastChange = "2023-04-03 08:16:38 +0000";
layers = (
{
layerId = "BADE114B-EA49-45B4-AE36-72A7CEB6E1BE";
paths = (
{
closed = 1;
nodes = (
"479 -10 OFFCURVE",
"543 64 OFFCURVE",
"543 196 CURVE SMOOTH",
"543 268 OFFCURVE",
"517 309 OFFCURVE",
"469 331 CURVE",
"512 354 OFFCURVE",
"536 392 OFFCURVE",
"536 468 CURVE SMOOTH",
"536 588 OFFCURVE",
"473 660 OFFCURVE",
"292 660 CURVE SMOOTH",
"223 660 OFFCURVE",
"171 647 OFFCURVE",
"127 615 CURVE SMOOTH",
"83 582 OFFCURVE",
"56 521 OFFCURVE",
"52 435 CURVE",
"70 429 LINE",
"95 423 OFFCURVE",
"165 415 OFFCURVE",
"256 421 CURVE",
"256 459 OFFCURVE",
"270 488 OFFCURVE",
"295 488 CURVE SMOOTH",
"314 488 OFFCURVE",
"329 468 OFFCURVE",
"329 424 CURVE SMOOTH",
"329 385 OFFCURVE",
"321 365 OFFCURVE",
"288 365 CURVE",
"288 290 LINE",
"322 290 OFFCURVE",
"330 271 OFFCURVE",
"330 232 CURVE SMOOTH",
"330 186 OFFCURVE",
"316 166 OFFCURVE",
"292 166 CURVE SMOOTH",
"262 166 OFFCURVE",
"255 203 OFFCURVE",
"255 237 CURVE",
"164 244 OFFCURVE",
"77 233 OFFCURVE",
"45 222 CURVE",
"49 133 OFFCURVE",
"75 71 OFFCURVE",
"122 37 CURVE SMOOTH",
"168 2 OFFCURVE",
"220 -10 OFFCURVE",
"292 -10 CURVE SMOOTH"
);
},
{
closed = 1;
nodes = (
"549 184 OFFCURVE",
"647 140 OFFCURVE",
"737 205 CURVE",
"737 255 LINE",
"679 239 OFFCURVE",
"641 272 OFFCURVE",
"659 365 CURVE",
"438 365 LINE",
"438 290 LINE",
"567 290 LINE"
);
}
);
width = 796;
}
);
unicode = 025D;
},
{
glyphname = esh;
lastChange = "2023-08-11 13:25:37 +0000";
layers = (
{
layerId = "BADE114B-EA49-45B4-AE36-72A7CEB6E1BE";
paths = (
{
closed = 0;
nodes = (
"263 650 LINE"
);
},
{
closed = 1;
nodes = (
"306 -240 OFFCURVE",
"394 -173 OFFCURVE",
"394 66 CURVE",
"136 594 LINE",
"134 38 LINE",
"135 -30 OFFCURVE",
"125 -56 OFFCURVE",
"46 -38 CURVE",
"19 -103 OFFCURVE",
"3 -173 OFFCURVE",
"0 -216 CURVE",
"49 -233 OFFCURVE",
"98 -240 OFFCURVE",
"159 -240 CURVE"
);
},
{
closed = 0;
nodes = (
"263 650 LINE"
);
},
{
closed = 1;
nodes = (
"224 900 OFFCURVE",
"136 833 OFFCURVE",
"136 594 CURVE",
"394 66 LINE",
"396 622 LINE",
"395 690 OFFCURVE",
"405 716 OFFCURVE",
"484 698 CURVE",
"511 763 OFFCURVE",
"527 833 OFFCURVE",
"530 876 CURVE",
"481 893 OFFCURVE",
"432 900 OFFCURVE",
"371 900 CURVE"
);
},
{
closed = 1;
nodes = (
"396 630 LINE",
"396 699 OFFCURVE",
"419 716 OFFCURVE",
"483 698 CURVE",
"499 754 OFFCURVE",
"513 809 OFFCURVE",
"520 868 CURVE",
"481 888 OFFCURVE",
"426 900 OFFCURVE",
"371 900 CURVE",
"206 900 OFFCURVE",
"162 812 OFFCURVE",
"162 630 CURVE"
);
}
);
width = 530;
}
);
leftKerningGroup = longs;
rightKerningGroup = f;
unicode = 0283;
},
{
glyphname = schwahook;
lastChange = "2023-04-03 08:16:38 +0000";
layers = (
{
anchors = (
{
name = bottom;
position = "{391, 650}";
},
{
name = ogonek;
position = "{391, 650}";
},
{
name = top;
position = "{391, 0}";
}
);
components = (
{
name = schwa;
transform = "{1, 0, 0, 1, -1, 0}";
}
);
layerId = "BADE114B-EA49-45B4-AE36-72A7CEB6E1BE";
paths = (
{
closed = 1;
nodes = (
"675 184 OFFCURVE",
"773 140 OFFCURVE",
"863 205 CURVE",
"863 255 LINE",
"805 239 OFFCURVE",
"767 272 OFFCURVE",
"785 365 CURVE",
"634 365 LINE",
"634 290 LINE",
"693 290 LINE"
);
}
);
width = 883;
}
);
unicode = 025A;
},
{
glyphname = ezh;
lastChange = "2023-08-11 13:25:37 +0000";
layers = (
{
layerId = "BADE114B-EA49-45B4-AE36-72A7CEB6E1BE";
paths = (
{
closed = 1;
nodes = (
"630 50 LINE",
"630 179 OFFCURVE",
"575 253 OFFCURVE",
"480 292 CURVE",
"220 291 LINE",
"220 137 LINE",
"342 173 OFFCURVE",
"407 152 OFFCURVE",
"407 63 CURVE"
);
},
{
closed = 1;
nodes = (
"562 396 LINE",
"345 463 LINE",
"220 291 LINE",
"480 292 LINE"
);
},
{
closed = 1;
nodes = (
"500 -240 OFFCURVE",
"630 -134 OFFCURVE",
"630 50 CURVE",
"407 63 LINE",
"407 -62 OFFCURVE",
"251 -59 OFFCURVE",
"106 23 CURVE",
"79 -21 OFFCURVE",
"54 -84 OFFCURVE",
"45 -134 CURVE",
"106 -201 OFFCURVE",
"220 -240 OFFCURVE",
"333 -240 CURVE"
);
},
{
closed = 1;
nodes = (
"592 431 OFFCURVE",
"596 451 OFFCURVE",
"596 495 CURVE SMOOTH",
"596 527 OFFCURVE",
"592 607 OFFCURVE",
"587 637 CURVE",
"487 648 OFFCURVE",
"335 649 OFFCURVE",
"335 649 CURVE",
"345 463 LINE",
"562 396 LINE"
);
},
{
closed = 1;
nodes = (
"167 465 OFFCURVE",
"257 465 OFFCURVE",
"345 463 CURVE",
"335 649 LINE",
"252 650 OFFCURVE",
"182 647 OFFCURVE",
"86 640 CURVE",
"82 622 OFFCURVE",
"78 542 OFFCURVE",
"78 462 CURVE"
);
}
);
width = 675;
}
);
unicode = 0292;
},
{
glyphname = f;
lastChange = "2023-04-04 06:00:45 +0000";
layers = (
{
anchors = (
{
name = bottom;
position = "{254, 0}";
},
{
name = top;
position = "{254, 650}";
}
);
layerId = "BADE114B-EA49-45B4-AE36-72A7CEB6E1BE";
paths = (
{
closed = 1;
nodes = (
"329 630 LINE",
"315 711 OFFCURVE",
"346 736 OFFCURVE",
"426 698 CURVE",
"442 754 OFFCURVE",
"456 809 OFFCURVE",
"463 868 CURVE",
"424 888 OFFCURVE",
"369 900 OFFCURVE",
"314 900 CURVE",
"149 900 OFFCURVE",
"105 812 OFFCURVE",
"105 630 CURVE"
);
},
{
closed = 1;
nodes = (
"224 486 LINE",
"105 486 LINE",
"105 326 OFFCURVE",
"109 17 OFFCURVE",
"110 17 CURVE",
"110 17 OFFCURVE",
"135 0 OFFCURVE",
"224 0 CURVE"
);
},
{
closed = 1;
nodes = (
"439 476 LINE",
"439 640 LINE",
"45 640 LINE",
"45 476 LINE"
);
},
{
closed = 1;
nodes = (
"313 0 OFFCURVE",
"339 17 OFFCURVE",
"339 17 CURVE",
"339 486 LINE",
"224 486 LINE",
"224 0 LINE"
);
}
);
width = 508;
}
);
leftKerningGroup = f;
note = f;
rightKerningGroup = f;
unicode = 0066;
},
{
glyphname = g;
lastChange = "2023-08-11 13:16:47 +0000";
layers = (
{
anchors = (
{
name = bottom;
position = "{356, 0}";
},
{
name = top;
position = "{393, 650}";
}
);
layerId = "BADE114B-EA49-45B4-AE36-72A7CEB6E1BE";
paths = (
{
closed = 1;
nodes = (
"666 171 LINE",
"666 185 LINE",
"547 325 LINE",
"432 325 LINE",
"432 63 LINE"
);
},
{
closed = 1;
nodes = (
"547 325 LINE",
"547 650 LINE",
"496 650 OFFCURVE",
"458 644 OFFCURVE",
"432 631 CURVE",
"432 325 LINE"
);
},
{
closed = 1;
nodes = (
"666 441 OFFCURVE",
"662 633 OFFCURVE",
"661 633 CURVE",
"661 633 OFFCURVE",
"636 650 OFFCURVE",
"547 650 CURVE",
"547 325 LINE",
"666 185 LINE"
);
},
{
closed = 1;
nodes = (
"594 -240 OFFCURVE",
"666 -101 OFFCURVE",
"666 171 CURVE",
"432 63 LINE",
"432 -92 OFFCURVE",
"276 -79 OFFCURVE",
"131 23 CURVE",
"104 -21 OFFCURVE",
"79 -84 OFFCURVE",
"70 -134 CURVE",
"131 -201 OFFCURVE",
"245 -240 OFFCURVE",
"358 -240 CURVE"
);
},
{
closed = 1;
nodes = (
"346 27 OFFCURVE",
"417 41 OFFCURVE",
"432 103 CURVE",
"432 322 LINE",
"432 256 OFFCURVE",
"400 216 OFFCURVE",
"356 216 CURVE SMOOTH",
"308 216 OFFCURVE",
"277 257 OFFCURVE",
"277 348 CURVE SMOOTH",
"277 438 OFFCURVE",
"310 480 OFFCURVE",
"356 480 CURVE SMOOTH",
"400 480 OFFCURVE",
"432 454 OFFCURVE",
"432 433 CURVE",
"432 631 LINE",
"406 641 OFFCURVE",
"360 649 OFFCURVE",
"294 649 CURVE SMOOTH",
"128 649 OFFCURVE",
"45 554 OFFCURVE",
"45 348 CURVE SMOOTH",
"45 142 OFFCURVE",
"129 29 OFFCURVE",
"294 27 CURVE SMOOTH"
);
}
);
width = 716;
}
);
leftKerningGroup = g;
note = g;
rightKerningGroup = g;
unicode = 0067;
},
{
glyphname = "gamma-latin";
lastChange = "2023-08-11 13:25:37 +0000";
layers = (
{
layerId = "BADE114B-EA49-45B4-AE36-72A7CEB6E1BE";
paths = (
{
closed = 1;
nodes = (
"381 -61 LINE",
"326 -61 OFFCURVE",
"316 -16 OFFCURVE",
"316 12 CURVE",
"316 55 OFFCURVE",
"332 105 OFFCURVE",
"381 177 CURVE",
"200 291 LINE",
"111 167 OFFCURVE",
"73 100 OFFCURVE",
"73 -11 CURVE SMOOTH",
"73 -136 OFFCURVE",
"159 -240 OFFCURVE",
"381 -240 CURVE"
);
},
{
closed = 1;
nodes = (
"603 -238 OFFCURVE",
"689 -135 OFFCURVE",
"689 -11 CURVE SMOOTH",
"689 100 OFFCURVE",
"651 167 OFFCURVE",
"562 291 CURVE",
"381 177 LINE",
"430 105 OFFCURVE",
"446 55 OFFCURVE",
"446 12 CURVE",
"446 -16 OFFCURVE",
"436 -61 OFFCURVE",
"381 -61 CURVE",
"381 -240 LINE"
);
},
{
closed = 1;
nodes = (
"381 177 LINE",
"381 420 LINE",
"306 643 LINE",
"276 648 OFFCURVE",
"220 650 OFFCURVE",
"180 650 CURVE SMOOTH",
"124 650 OFFCURVE",
"86 645 OFFCURVE",
"45 636 CURVE",
"200 291 LINE"
);
},
{
closed = 1;
nodes = (
"717 636 LINE",
"676 645 OFFCURVE",
"638 650 OFFCURVE",
"582 650 CURVE SMOOTH",
"542 650 OFFCURVE",
"486 648 OFFCURVE",
"456 643 CURVE",
"381 420 LINE",
"381 177 LINE",
"562 291 LINE"
);
}
);
width = 762;
}
);
unicode = 0263;
},
{
glyphname = ghook;
lastChange = "2023-08-11 13:25:37 +0000";
layers = (
{
components = (
{
name = g;
}
);
layerId = "BADE114B-EA49-45B4-AE36-72A7CEB6E1BE";
paths = (
{
closed = 1;
nodes = (
"502 900 OFFCURVE",
"433 866 OFFCURVE",
"432 707 CURVE",
"432 313 LINE",
"666 135 LINE",
"666 648 LINE",
"666 705 OFFCURVE",
"679 719 OFFCURVE",
"743 707 CURVE",
"749 758 OFFCURVE",
"754 827 OFFCURVE",
"749 885 CURVE",
"720 894 OFFCURVE",
"685 900 OFFCURVE",
"618 900 CURVE"
);
}
);
width = 751;
}
);
unicode = 0260;
},
{
glyphname = glottalstop;
lastChange = "2023-08-11 13:25:37 +0000";
layers = (
{
background = {
paths = (
{
closed = 1;
nodes = (
"615 542 LINE",
"615 761 OFFCURVE",
"519 840 OFFCURVE",
"330 840 CURVE",
"330 674 LINE",
"376 674 OFFCURVE",
"390 590 OFFCURVE",
"390 542 CURVE"
);
},
{
closed = 1;
nodes = (
"233 531 OFFCURVE",
"270 542 OFFCURVE",
"270 542 CURVE",
"45 542 LINE",
"45 542 OFFCURVE",
"81 531 OFFCURVE",
"157 531 CURVE"
);
},
{
closed = 1;
nodes = (
"270 542 LINE",
"270 590 OFFCURVE",
"284 674 OFFCURVE",
"330 674 CURVE",
"330 840 LINE",
"141 840 OFFCURVE",
"45 761 OFFCURVE",
"45 542 CURVE"
);
},
{
closed = 1;
nodes = (
"330 325 LINE",
"205 325 LINE",
"205 139 OFFCURVE",
"211 17 OFFCURVE",
"211 17 CURVE",
"211 17 OFFCURVE",
"236 0 OFFCURVE",
"330 0 CURVE"
);
},
{
closed = 1;
nodes = (
"424 0 OFFCURVE",
"449 17 OFFCURVE",
"449 17 CURVE",
"449 17 OFFCURVE",
"455 139 OFFCURVE",
"455 325 CURVE",
"330 325 LINE",
"330 0 LINE"
);
},
{
closed = 1;
nodes = (
"455 325 LINE",
"455 337 LINE",
"498 347 OFFCURVE",
"533 363 OFFCURVE",
"559 387 CURVE SMOOTH",
"596 421 OFFCURVE",
"615 472 OFFCURVE",
"615 542 CURVE",
"390 542 LINE",
"390 469 OFFCURVE",
"369 433 OFFCURVE",
"306 433 CURVE SMOOTH",
"233 433 OFFCURVE",
"205 393 OFFCURVE",
"205 325 CURVE"
);
}
);
};
layerId = "BADE114B-EA49-45B4-AE36-72A7CEB6E1BE";
paths = (
{
closed = 1;
nodes = (
"615 612 LINE",
"615 821 OFFCURVE",
"519 900 OFFCURVE",
"330 900 CURVE",
"330 734 LINE",
"368 734 OFFCURVE",
"390 700 OFFCURVE",
"390 612 CURVE"
);
},
{
closed = 1;
nodes = (
"233 591 OFFCURVE",
"270 602 OFFCURVE",
"270 602 CURVE",
"45 602 LINE",
"45 602 OFFCURVE",
"81 591 OFFCURVE",
"157 591 CURVE"
);
},
{
closed = 1;
nodes = (
"270 602 LINE",
"270 700 OFFCURVE",
"292 734 OFFCURVE",
"330 734 CURVE",
"330 900 LINE",
"141 900 OFFCURVE",
"45 821 OFFCURVE",
"45 602 CURVE"
);
},
{
closed = 1;
nodes = (
"455 335 LINE",
"455 335 LINE",
"455 413 OFFCURVE",
"514 404 OFFCURVE",
"559 447 CURVE SMOOTH",
"596 481 OFFCURVE",
"615 532 OFFCURVE",
"615 612 CURVE",
"390 612 LINE",
"390 556 OFFCURVE",
"379 518 OFFCURVE",
"306 493 CURVE SMOOTH",
"211 461 OFFCURVE",
"205 416 OFFCURVE",
"205 335 CURVE"
);
},
{
closed = 1;
nodes = (
"330 335 LINE",
"205 335 LINE",
"205 143 OFFCURVE",
"210 18 OFFCURVE",
"210 18 CURVE",
"210 18 OFFCURVE",
"237 0 OFFCURVE",
"330 0 CURVE"
);
},
{
closed = 1;
nodes = (
"423 0 OFFCURVE",
"450 18 OFFCURVE",
"450 18 CURVE",
"450 18 OFFCURVE",
"455 143 OFFCURVE",
"455 335 CURVE",
"330 335 LINE",
"330 0 LINE"
);
}
);
width = 660;
}
);
unicode = 0294;
},
{
glyphname = glottalstopstroke;
lastChange = "2023-04-03 08:16:38 +0000";
layers = (
{
components = (
{
name = glottalstop;
}
);
layerId = "BADE114B-EA49-45B4-AE36-72A7CEB6E1BE";
paths = (
{
closed = 1;
nodes = (
"531 160 LINE",
"531 252 LINE",
"131 252 LINE",
"131 160 LINE"
);
}
);
width = 660;
}
);
unicode = 02A1;
},
{
glyphname = glottalstopstrokereversed;
lastChange = "2023-04-03 08:16:38 +0000";
layers = (
{
components = (
{
name = glottalstopreversed;
}
);
layerId = "BADE114B-EA49-45B4-AE36-72A7CEB6E1BE";
paths = (
{
closed = 1;
nodes = (
"531 160 LINE",
"531 252 LINE",
"131 252 LINE",
"131 160 LINE"
);
}
);
width = 660;
}
);
unicode = 02A2;
},
{
glyphname = h;
lastChange = "2023-08-11 09:25:49 +0000";
layers = (
{
anchors = (
{
name = bottom;
position = "{344, 0}";
},
{
name = center;
position = "{344, 325}";
},
{
name = top;
position = "{169, 890}";
}
);
layerId = "BADE114B-EA49-45B4-AE36-72A7CEB6E1BE";
paths = (
{
closed = 1;
nodes = (
"570 0 OFFCURVE",
"608 6 OFFCURVE",
"630 17 CURVE",
"634 113 OFFCURVE",
"637 223 OFFCURVE",
"637 325 CURVE",
"637 541 OFFCURVE",
"581 650 OFFCURVE",
"432 650 CURVE SMOOTH",
"372 650 OFFCURVE",
"308 630 OFFCURVE",
"284 596 CURVE",
"284 333 LINE",
"284 398 OFFCURVE",
"299 443 OFFCURVE",
"344 443 CURVE SMOOTH",
"392 443 OFFCURVE",
"405 393 OFFCURVE",
"405 333 CURVE SMOOTH",
"405 17 LINE",
"424 7 OFFCURVE",
"468 0 OFFCURVE",
"516 0 CURVE SMOOTH"
);
},
{
closed = 1;
nodes = (
"169 515 LINE",
"50 515 LINE",
"52 329 OFFCURVE",
"55 17 OFFCURVE",
"55 17 CURVE",
"55 17 OFFCURVE",
"80 0 OFFCURVE",
"169 0 CURVE"
);
},
{
closed = 1;
nodes = (
"224 0 OFFCURVE",
"253 6 OFFCURVE",
"284 18 CURVE",
"284 871 LINE",
"258 884 OFFCURVE",
"220 890 OFFCURVE",
"169 890 CURVE",
"169 0 LINE"
);
},
{
closed = 1;
nodes = (
"169 515 LINE",
"169 890 LINE",
"80 890 OFFCURVE",
"55 873 OFFCURVE",
"55 873 CURVE",
"55 873 OFFCURVE",
"51 750 OFFCURVE",
"50 515 CURVE"
);
}
);
width = 682;
}
);
leftKerningGroup = I;
note = h;
rightKerningGroup = h;
unicode = 0068;
},
{
glyphname = hbar;
lastChange = "2023-04-03 08:16:29 +0000";
layers = (
{
components = (
{
name = h;
transform = "{1, 0, 0, 1, 53, 0}";
},
{
name = strokeshortcomb;
transform = "{1, 0, 0, 1, 53, 0}";
}
);
layerId = "BADE114B-EA49-45B4-AE36-72A7CEB6E1BE";
paths = (
{
closed = 1;
nodes = (
"415 677 LINE",
"415 769 LINE",
"25 769 LINE",
"25 677 LINE"
);
}
);
width = 735;
}
);
leftKerningGroup = L;
rightKerningGroup = h;
unicode = 0127;
},
{
glyphname = henghook;
lastChange = "2023-04-03 08:16:38 +0000";
layers = (
{
layerId = "BADE114B-EA49-45B4-AE36-72A7CEB6E1BE";
paths = (
{
closed = 1;
nodes = (
"169 515 LINE",
"50 515 LINE",
"52 329 OFFCURVE",
"55 17 OFFCURVE",
"55 17 CURVE",
"55 17 OFFCURVE",
"80 0 OFFCURVE",
"169 0 CURVE"
);
},
{
closed = 1;
nodes = (
"224 0 OFFCURVE",
"253 6 OFFCURVE",
"284 18 CURVE",
"284 821 LINE",
"258 834 OFFCURVE",
"220 840 OFFCURVE",
"169 840 CURVE",
"169 0 LINE"
);
},
{
closed = 1;
nodes = (
"169 515 LINE",
"169 840 LINE",
"80 840 OFFCURVE",
"55 823 OFFCURVE",
"55 823 CURVE",
"55 823 OFFCURVE",
"51 700 OFFCURVE",
"50 515 CURVE"
);
},
{
closed = 1;
nodes = (
"552 -240 OFFCURVE",
"637 -143 OFFCURVE",
"637 135 CURVE",
"637 325 LINE",
"405 345 LINE",
"405 99 LINE",
"406 -45 OFFCURVE",
"332 -60 OFFCURVE",
"230 -25 CURVE",
"207 -66 OFFCURVE",
"195 -154 OFFCURVE",
"199 -208 CURVE",
"251 -228 OFFCURVE",
"296 -240 OFFCURVE",
"374 -240 CURVE"
);
},
{
closed = 1;
nodes = (
"637 541 OFFCURVE",
"589 650 OFFCURVE",
"432 650 CURVE",
"361 650 OFFCURVE",
"309 635 OFFCURVE",
"284 596 CURVE",
"284 333 LINE",
"284 398 OFFCURVE",
"299 443 OFFCURVE",
"344 443 CURVE",
"394 443 OFFCURVE",
"405 389 OFFCURVE",
"405 345 CURVE",
"637 325 LINE"
);
}
);
width = 682;
}
);
unicode = 0267;
},
{
glyphname = hhook;
lastChange = "2023-08-11 13:25:37 +0000";
layers = (
{
layerId = "BADE114B-EA49-45B4-AE36-72A7CEB6E1BE";
paths = (
{
closed = 1;
nodes = (
"570 0 OFFCURVE",
"608 6 OFFCURVE",
"630 17 CURVE",
"634 113 OFFCURVE",
"637 223 OFFCURVE",
"637 325 CURVE",
"637 541 OFFCURVE",
"581 650 OFFCURVE",
"432 650 CURVE SMOOTH",
"372 650 OFFCURVE",
"308 630 OFFCURVE",
"284 596 CURVE",
"284 333 LINE",
"284 398 OFFCURVE",
"299 443 OFFCURVE",
"344 443 CURVE SMOOTH",
"392 443 OFFCURVE",
"405 393 OFFCURVE",
"405 333 CURVE SMOOTH",
"405 17 LINE",
"424 7 OFFCURVE",
"468 0 OFFCURVE",
"516 0 CURVE SMOOTH"
);
},
{
closed = 1;
nodes = (
"169 515 LINE",
"50 515 LINE",
"52 329 OFFCURVE",
"55 17 OFFCURVE",
"55 17 CURVE",
"55 17 OFFCURVE",
"80 0 OFFCURVE",
"169 0 CURVE"
);
},
{
closed = 1;
nodes = (
"224 0 OFFCURVE",
"253 6 OFFCURVE",
"284 18 CURVE",
"284 515 LINE",
"169 515 LINE",
"169 0 LINE"
);
},
{
closed = 1;
nodes = (
"120 900 OFFCURVE",
"51 866 OFFCURVE",
"50 707 CURVE",
"50 515 LINE",
"284 515 LINE",
"284 648 LINE",
"284 705 OFFCURVE",
"297 719 OFFCURVE",
"361 707 CURVE",
"367 758 OFFCURVE",
"372 827 OFFCURVE",
"367 885 CURVE",
"338 894 OFFCURVE",
"303 900 OFFCURVE",
"236 900 CURVE"
);
}
);
width = 682;
}
);
unicode = 0266;
},
{
glyphname = idotless;
lastChange = "2023-04-04 08:19:46 +0000";
layers = (
{
anchors = (
{
name = bottom;
position = "{168, 0}";
},
{
name = ogonek;
position = "{181, 0}";
},
{
name = top;
position = "{181, 650}";
}
);
layerId = "BADE114B-EA49-45B4-AE36-72A7CEB6E1BE";
paths = (
{
closed = 1;
nodes = (
"181 325 LINE",
"50 325 LINE",
"50 139 OFFCURVE",
"56 17 OFFCURVE",
"56 17 CURVE",
"56 17 OFFCURVE",
"83 0 OFFCURVE",
"181 0 CURVE"
);
},
{
closed = 1;
nodes = (
"279 0 OFFCURVE",
"306 17 OFFCURVE",
"306 17 CURVE",
"307 17 OFFCURVE",
"313 139 OFFCURVE",
"312 325 CURVE",
"181 325 LINE",
"181 0 LINE"
);
},
{
closed = 1;
nodes = (
"181 325 LINE",
"181 650 LINE",
"83 650 OFFCURVE",
"56 633 OFFCURVE",
"56 633 CURVE",
"55 633 OFFCURVE",
"50 511 OFFCURVE",
"50 325 CURVE"
);
},
{
closed = 1;
nodes = (
"312 325 LINE",
"312 511 OFFCURVE",
"308 632 OFFCURVE",
"306 633 CURVE",
"306 633 OFFCURVE",
"279 650 OFFCURVE",
"181 650 CURVE",
"181 325 LINE"
);
}
);
width = 362;
}
);
leftKerningGroup = i;
rightKerningGroup = i;
unicode = 0131;
},
{
glyphname = istroke;
lastChange = "2023-08-11 13:25:37 +0000";
layers = (
{
components = (
{
name = idotless;
transform = "{1, 0, 0, 1, 39, 0}";
},
{
name = dotaccentcomb;
transform = "{1, 0, 0, 1, 82, -190}";
},
{
name = strokeshortcomb;
transform = "{1, 0, 0, 1, 220, 0}";
}
);
layerId = "BADE114B-EA49-45B4-AE36-72A7CEB6E1BE";
paths = (
{
closed = 1;
nodes = (
"415 358 LINE",
"415 450 LINE",
"25 450 LINE",
"25 358 LINE"
);
}
);
width = 440;
}
);
unicode = 0268;
},
{
glyphname = jdotless;
lastChange = "2023-04-04 04:18:57 +0000";
layers = (
{
anchors = (
{
name = bottom;
position = "{290, 0}";
},
{
name = top;
position = "{293, 650}";
}
);
layerId = "BADE114B-EA49-45B4-AE36-72A7CEB6E1BE";
paths = (
{
closed = 1;
nodes = (
"336 -240 OFFCURVE",
"424 -173 OFFCURVE",
"424 41 CURVE",
"293 325 LINE",
"166 325 LINE",
"164 38 LINE",
"165 -30 OFFCURVE",
"155 -56 OFFCURVE",
"76 -38 CURVE",
"49 -103 OFFCURVE",
"33 -173 OFFCURVE",
"30 -216 CURVE",
"79 -233 OFFCURVE",
"128 -240 OFFCURVE",
"189 -240 CURVE"
);
},
{
closed = 1;
nodes = (
"293 325 LINE",
"293 650 LINE",
"237 650 OFFCURVE",
"195 644 OFFCURVE",
"166 631 CURVE",
"166 325 LINE"
);
},
{
closed = 1;
nodes = (
"424 391 OFFCURVE",
"419 633 OFFCURVE",
"418 633 CURVE",
"418 633 OFFCURVE",
"391 650 OFFCURVE",
"293 650 CURVE",
"293 325 LINE",
"424 41 LINE"
);
}
);
width = 474;
}
);
unicode = 0237;
},
{
glyphname = jcrossedtail;
lastChange = "2023-04-03 08:16:38 +0000";
layers = (
{
anchors = (
{
name = top;
position = "{376, 650}";
}
);
components = (
{
name = dotaccentcomb;
transform = "{1, 0, 0, 1, 246, -190}";
}
);
layerId = "BADE114B-EA49-45B4-AE36-72A7CEB6E1BE";
paths = (
{
closed = 1;
nodes = (
"376 325 LINE",
"376 650 LINE",
"320 650 OFFCURVE",
"278 644 OFFCURVE",
"249 631 CURVE",
"249 325 LINE"
);
},
{
closed = 1;
nodes = (
"507 391 OFFCURVE",
"502 633 OFFCURVE",
"501 633 CURVE",
"501 633 OFFCURVE",
"474 650 OFFCURVE",
"376 650 CURVE",
"376 325 LINE",
"507 41 LINE"
);
},
{
closed = 0;
nodes = (
"376 650 LINE"
);
},
{
closed = 1;
nodes = (
"169 -49 LINE",
"169 -15 OFFCURVE",
"192 1 OFFCURVE",
"228 1 CURVE",
"235 134 LINE",
"104 134 OFFCURVE",
"30 59 OFFCURVE",
"30 -49 CURVE"
);
},
{
closed = 1;
nodes = (
"228 1 LINE",
"359 -8 OFFCURVE",
"486 -28 OFFCURVE",
"591 -67 CURVE SMOOTH",
"591 -67 OFFCURVE",
"600 -53 OFFCURVE",
"600 -1 CURVE SMOOTH",
"600 52 OFFCURVE",
"591 66 OFFCURVE",
"591 66 CURVE",
"485 103 OFFCURVE",
"357 124 OFFCURVE",
"235 134 CURVE"
);
},
{
closed = 1;
nodes = (
"419 -240 OFFCURVE",
"507 -173 OFFCURVE",
"507 41 CURVE",
"376 325 LINE",
"249 325 LINE",
"247 -22 LINE SMOOTH",
"247 -71 OFFCURVE",
"242 -97 OFFCURVE",
"205 -100 CURVE",
"183 -99 OFFCURVE",
"169 -83 OFFCURVE",
"169 -49 CURVE",
"30 -49 LINE",
"30 -165 OFFCURVE",
"101 -240 OFFCURVE",
"272 -240 CURVE SMOOTH"
);
}
);
width = 640;
}
);
unicode = 029D;
},
{
glyphname = jdotlessstroke;
lastChange = "2023-04-03 08:16:38 +0000";
layers = (
{
layerId = "BADE114B-EA49-45B4-AE36-72A7CEB6E1BE";
paths = (
{
closed = 1;
nodes = (
"488 303 LINE",
"488 395 LINE",
"98 395 LINE",
"98 303 LINE"
);
},
{
closed = 1;
nodes = (
"336 -240 OFFCURVE",
"424 -173 OFFCURVE",
"424 41 CURVE",
"293 325 LINE",
"166 325 LINE",
"164 38 LINE",
"165 -30 OFFCURVE",
"155 -56 OFFCURVE",
"76 -38 CURVE",
"49 -103 OFFCURVE",
"33 -173 OFFCURVE",
"30 -216 CURVE",
"79 -233 OFFCURVE",
"128 -240 OFFCURVE",
"189 -240 CURVE"
);
},
{
closed = 1;
nodes = (
"293 325 LINE",
"293 650 LINE",
"237 650 OFFCURVE",
"195 644 OFFCURVE",
"166 631 CURVE",
"166 325 LINE"
);
},
{
closed = 1;
nodes = (
"424 391 OFFCURVE",
"419 633 OFFCURVE",
"418 633 CURVE",
"418 633 OFFCURVE",
"391 650 OFFCURVE",
"293 650 CURVE",
"293 325 LINE",
"424 41 LINE"
);
},
{
closed = 0;
nodes = (
"293 650 LINE"
);
}
);
width = 513;
}
);
unicode = 025F;
},
{
glyphname = jdotlessstrokehook;
lastChange = "2023-04-03 08:16:38 +0000";
layers = (
{
layerId = "BADE114B-EA49-45B4-AE36-72A7CEB6E1BE";
paths = (
{
closed = 1;
nodes = (
"490 284 LINE",
"490 376 LINE",
"100 376 LINE",
"100 284 LINE"
);
},
{
closed = 1;
nodes = (
"336 -240 OFFCURVE",
"424 -173 OFFCURVE",
"424 41 CURVE",
"166 619 LINE",
"164 38 LINE",
"165 -30 OFFCURVE",
"155 -56 OFFCURVE",
"76 -38 CURVE",
"49 -103 OFFCURVE",
"33 -173 OFFCURVE",
"30 -216 CURVE",
"79 -233 OFFCURVE",
"128 -240 OFFCURVE",
"189 -240 CURVE"
);
},
{
closed = 1;
nodes = (
"254 900 OFFCURVE",
"166 833 OFFCURVE",
"166 619 CURVE",
"424 41 LINE",
"426 622 LINE",
"425 690 OFFCURVE",
"435 716 OFFCURVE",
"514 698 CURVE",
"541 763 OFFCURVE",
"557 833 OFFCURVE",
"560 876 CURVE",
"511 893 OFFCURVE",
"462 900 OFFCURVE",
"401 900 CURVE"
);
}
);
width = 590;
}
);
unicode = 0284;
},
{
glyphname = k;
lastChange = "2023-04-04 06:15:51 +0000";
layers = (
{
anchors = (
{
name = bottom;
position = "{352, 0}";
},
{
name = top;
position = "{352, 650}";
}
);
layerId = "BADE114B-EA49-45B4-AE36-72A7CEB6E1BE";
paths = (
{
closed = 1;
nodes = (
"325 243 LINE",
"457 379 LINE",
"636 622 LINE",
"636 622 OFFCURVE",
"601 645 OFFCURVE",
"520 649 CURVE SMOOTH",
"435 653 OFFCURVE",
"393 642 OFFCURVE",
"393 642 CURVE",
"279 475 LINE",
"279 204 LINE"
);
},
{
closed = 1;
nodes = (
"164 515 LINE",
"45 515 LINE",
"46 329 OFFCURVE",
"49 17 OFFCURVE",
"50 17 CURVE",
"50 17 OFFCURVE",
"75 0 OFFCURVE",
"164 0 CURVE"
);
},
{
closed = 1;
nodes = (
"219 0 OFFCURVE",
"248 6 OFFCURVE",
"279 18 CURVE",
"279 871 LINE",
"253 884 OFFCURVE",
"215 890 OFFCURVE",
"164 890 CURVE",
"164 0 LINE"
);
},
{
closed = 1;
nodes = (
"631 6 OFFCURVE",
"659 23 OFFCURVE",
"659 23 CURVE",
"451 428 LINE",
"311 272 LINE",
"416 8 LINE",
"416 8 OFFCURVE",
"457 -5 OFFCURVE",
"542 0 CURVE SMOOTH"
);
},
{
closed = 1;
nodes = (
"164 515 LINE",
"164 890 LINE",
"75 890 OFFCURVE",
"50 873 OFFCURVE",
"50 873 CURVE",
"50 873 OFFCURVE",
"46 750 OFFCURVE",
"45 515 CURVE"
);
}
);
width = 704;
}
);
leftKerningGroup = I;
note = k;
rightKerningGroup = k;
unicode = 006B;
},
{
glyphname = kgreenlandic;
lastChange = "2023-04-04 04:18:57 +0000";
layers = (
{
anchors = (
{
name = bottom;
position = "{370, 0}";
},
{
name = top;
position = "{370, 650}";
}
);
layerId = "BADE114B-EA49-45B4-AE36-72A7CEB6E1BE";
paths = (
{
closed = 1;
nodes = (
"490 377 LINE",
"648 622 LINE {stroke = {w = \"1\";};}",
"648 622 OFFCURVE",
"613 645 OFFCURVE {stroke = {w = \"1\";};}",
"532 649 CURVE SMOOTH {stroke = {w = \"1\";};}",
"447 653 OFFCURVE {stroke = {w = \"1\";};}",
"405 631 OFFCURVE {stroke = {w = \"1\";};}",
"405 631 CURVE",
"279 420 LINE",
"279 139 LINE {stroke = {w = \"1\";};}"
);
},
{
closed = 1;
nodes = (
"164 325 LINE",
"45 325 LINE",
"45 139 OFFCURVE",
"50 17 OFFCURVE",
"50 17 CURVE",
"50 17 OFFCURVE",
"75 0 OFFCURVE",
"164 0 CURVE"
);
},
{
closed = 1;
nodes = (
"219 0 OFFCURVE",
"248 6 OFFCURVE",
"279 18 CURVE",
"279 41 LINE",
"279 631 LINE",
"253 644 OFFCURVE",
"215 650 OFFCURVE",
"164 650 CURVE",
"164 0 LINE"
);
},
{
closed = 1;
nodes = (
"164 325 LINE",
"164 650 LINE",
"75 650 OFFCURVE",
"50 633 OFFCURVE",
"50 633 CURVE",
"49 633 OFFCURVE",
"45 511 OFFCURVE",
"45 325 CURVE"
);
},
{
closed = 1;
nodes = (
"591 -2 OFFCURVE {stroke = {w = \"3.78\";};}",
"669 42 OFFCURVE {stroke = {w = \"3.78\";};}",
"690 102 CURVE SMOOTH {stroke = {w = \"3.78\";};}",
"705 143 OFFCURVE {stroke = {w = \"3.78\";};}",
"685 151 OFFCURVE {stroke = {w = \"3.78\";};}",
"674 144 CURVE SMOOTH {stroke = {w = \"3.78\";};}",
"587 87 OFFCURVE {stroke = {w = \"3.78\";};}",
"528 169 OFFCURVE {stroke = {w = \"3.78\";};}",
"482 412 CURVE {stroke = {w = \"3.78\";};}",
"331 244 LINE {stroke = {w = \"3.78\";};}",
"369 76 OFFCURVE {stroke = {w = \"3.78\";};}",
"431 -2 OFFCURVE {stroke = {w = \"3.78\";};}",
"519 -2 CURVE SMOOTH {stroke = {w = \"3.78\";};}"
);
}
);
width = 740;
}
);
leftKerningGroup = lc_flat;
rightKerningGroup = lc_flat;
unicode = 0138;
},
{
glyphname = l;
lastChange = "2023-04-03 08:15:56 +0000";
layers = (
{
anchors = (
{
name = bottom;
position = "{183, 0}";
},
{
name = center;
position = "{183, 325}";
},
{
name = top;
position = "{183, 890}";
},
{
name = topright;
position = "{310, 873}";
},
{
name = topright_;
position = "{310, 890}";
}
);
layerId = "BADE114B-EA49-45B4-AE36-72A7CEB6E1BE";
paths = (
{
closed = 1;
nodes = (
"183 445 LINE",
"183 890 LINE",
"85 890 OFFCURVE",
"56 873 OFFCURVE",
"56 873 CURVE",
"55 873 OFFCURVE",
"50 639 OFFCURVE",
"50 445 CURVE"
);
},
{
closed = 1;
nodes = (
"316 639 OFFCURVE",
"311 873 OFFCURVE",
"310 873 CURVE",
"310 873 OFFCURVE",
"281 890 OFFCURVE",
"183 890 CURVE",
"183 445 LINE",
"316 445 LINE"
);
},
{
closed = 1;
nodes = (
"50 251 OFFCURVE",
"55 17 OFFCURVE",
"56 17 CURVE",
"56 17 OFFCURVE",
"85 0 OFFCURVE",
"183 0 CURVE",
"183 445 LINE",
"50 445 LINE"
);
},
{
closed = 1;
nodes = (
"183 445 LINE",
"183 0 LINE",
"281 0 OFFCURVE",
"310 17 OFFCURVE",
"310 17 CURVE",
"311 17 OFFCURVE",
"316 251 OFFCURVE",
"316 445 CURVE"
);
}
);
width = 366;
}
);
leftKerningGroup = i;
rightKerningGroup = i;
unicode = 006C;
},
{
glyphname = lbelt;
lastChange = "2023-04-03 08:16:38 +0000";
layers = (
{
layerId = "BADE114B-EA49-45B4-AE36-72A7CEB6E1BE";
paths = (
{
closed = 1;
nodes = (
"350 450 LINE",
"350 890 LINE",
"252 890 OFFCURVE",
"223 873 OFFCURVE",
"223 873 CURVE",
"222 873 OFFCURVE",
"220 756 OFFCURVE",
"218 619 CURVE",
"227 430 LINE"
);
},
{
closed = 1;
nodes = (
"483 619 OFFCURVE",
"478 873 OFFCURVE",
"477 873 CURVE",
"477 873 OFFCURVE",
"448 890 OFFCURVE",
"350 890 CURVE",
"350 450 LINE",
"483 450 LINE"
);
},
{
closed = 1;
nodes = (
"217 403 LINE",
"218 258 OFFCURVE",
"222 17 OFFCURVE",
"223 17 CURVE",
"223 17 OFFCURVE",
"252 0 OFFCURVE",
"350 0 CURVE",
"350 450 LINE",
"227 430 LINE"
);
},
{
closed = 1;
nodes = (
"350 450 LINE",
"350 0 LINE",
"448 0 OFFCURVE",
"477 17 OFFCURVE",
"477 17 CURVE",
"478 17 OFFCURVE",
"483 281 OFFCURVE",
"483 450 CURVE"
);
},
{
closed = 1;
nodes = (
"139 480 LINE",
"139 514 OFFCURVE",
"153 530 OFFCURVE",
"175 530 CURVE",
"153 663 LINE",
"75 663 OFFCURVE",
"30 590 OFFCURVE",
"30 480 CURVE"
);
},
{
closed = 1;
nodes = (
"231 602 LINE",
"220 646 OFFCURVE",
"194 662 OFFCURVE",
"153 663 CURVE",
"175 530 LINE",
"205 530 OFFCURVE",
"223 503 OFFCURVE",
"227 430 CURVE"
);
},
{
closed = 1;
nodes = (
"30 357 OFFCURVE",
"81 297 OFFCURVE",
"205 297 CURVE",
"198 430 LINE",
"162 430 OFFCURVE",
"139 446 OFFCURVE",
"139 480 CURVE",
"30 480 LINE"
);
},
{
closed = 1;
nodes = (
"327 307 OFFCURVE",
"455 328 OFFCURVE",
"561 365 CURVE",
"561 365 OFFCURVE",
"570 379 OFFCURVE",
"570 432 CURVE SMOOTH",
"570 484 OFFCURVE",
"561 498 OFFCURVE",
"561 498 CURVE SMOOTH",
"456 459 OFFCURVE",
"329 439 OFFCURVE",
"198 430 CURVE",
"205 297 LINE"
);
}
);
width = 600;
}
);
unicode = 026C;
},
{
glyphname = lezh;
lastChange = "2023-04-03 08:16:38 +0000";
layers = (
{
anchors = (
{
name = bottom;
position = "{146, 0}";
},
{
name = center;
position = "{146, 325}";
},
{
name = top;
position = "{146, 890}";
},
{
name = topright;
position = "{274, 873}";
}
);
components = (
{
name = ezh;
transform = "{1, 0, 0, 1, 169, 0}";
}
);
layerId = "BADE114B-EA49-45B4-AE36-72A7CEB6E1BE";
paths = (
{
closed = 1;
nodes = (
"164 515 LINE",
"45 515 LINE",
"47 329 OFFCURVE",
"50 17 OFFCURVE",
"50 17 CURVE",
"50 17 OFFCURVE",
"75 0 OFFCURVE",
"164 0 CURVE"
);
},
{
closed = 1;
nodes = (
"164 515 LINE",
"164 890 LINE",
"75 890 OFFCURVE",
"50 873 OFFCURVE",
"50 873 CURVE",
"50 873 OFFCURVE",
"46 750 OFFCURVE",
"45 515 CURVE"
);
},
{
closed = 1;
nodes = (
"219 0 OFFCURVE",
"248 11 OFFCURVE",
"279 32 CURVE",
"279 871 LINE",
"253 884 OFFCURVE",
"215 890 OFFCURVE",
"164 890 CURVE",
"164 0 LINE"
);
}
);
width = 888;
}
);
unicode = 026E;
},
{
glyphname = lmiddletilde;
lastChange = "2023-04-03 08:16:38 +0000";
layers = (
{
components = (
{
alignment = -1;
name = l;
transform = "{1, 0, 0, 1, 68, 0}";
}
);
layerId = "BADE114B-EA49-45B4-AE36-72A7CEB6E1BE";
paths = (
{
closed = 1;
nodes = (
"144 374 OFFCURVE",
"144 525 OFFCURVE",
"144 525 CURVE SMOOTH",
"144 525 OFFCURVE",
"126 568 OFFCURVE",
"88 568 CURVE SMOOTH",
"51 568 OFFCURVE",
"30 525 OFFCURVE",
"30 525 CURVE",
"30 374 LINE",
"30 374 OFFCURVE",
"51 417 OFFCURVE",
"88 417 CURVE SMOOTH",
"126 417 OFFCURVE",
"144 374 OFFCURVE",
"144 374 CURVE SMOOTH"
);
},
{
closed = 1;
nodes = (
"358 466 OFFCURVE",
"358 315 OFFCURVE",
"358 315 CURVE SMOOTH",
"358 315 OFFCURVE",
"376 272 OFFCURVE",
"414 272 CURVE SMOOTH",
"451 272 OFFCURVE",
"472 315 OFFCURVE",
"472 315 CURVE",
"472 466 LINE",
"472 466 OFFCURVE",
"451 423 OFFCURVE",
"414 423 CURVE SMOOTH",
"376 423 OFFCURVE",
"358 466 OFFCURVE",
"358 466 CURVE SMOOTH"
);
}
);
width = 502;
}
);
unicode = 026B;
},
{
glyphname = lslash;
lastChange = "2023-04-03 08:16:15 +0000";
layers = (
{
components = (
{
name = l;
transform = "{1, 0, 0, 1, 40, 0}";
}
);
layerId = "BADE114B-EA49-45B4-AE36-72A7CEB6E1BE";
paths = (
{
closed = 1;
nodes = (
"395 433 LINE",
"395 483 LINE",
"45 407 LINE",
"45 357 LINE"
);
}
);
width = 440;
}
);
leftKerningGroup = lslash;
rightKerningGroup = l;
unicode = 0142;
},
{
glyphname = m;
lastChange = "2023-04-03 08:15:56 +0000";
layers = (
{
anchors = (
{
name = bottom;
position = "{525, 0}";
},
{
name = top;
position = "{527, 650}";
}
);
layerId = "BADE114B-EA49-45B4-AE36-72A7CEB6E1BE";
paths = (
{
closed = 1;
nodes = (
"938 0 OFFCURVE",
"978 6 OFFCURVE",
"1001 17 CURVE",
"1006 114 OFFCURVE",
"1009 225 OFFCURVE",
"1009 325 CURVE",
"1009 541 OFFCURVE",
"958 650 OFFCURVE",
"791 650 CURVE",
"718 650 OFFCURVE",
"666 641 OFFCURVE",
"593 561 CURVE",
"645 353 LINE",
"645 411 OFFCURVE",
"653 453 OFFCURVE",
"709 453 CURVE",
"764 453 OFFCURVE",
"776 398 OFFCURVE",
"776 353 CURVE",
"776 17 LINE",
"784 7 OFFCURVE",
"830 0 OFFCURVE",
"881 0 CURVE"
);
},
{
closed = 1;
nodes = (
"164 325 LINE",
"45 325 LINE",
"45 139 OFFCURVE",
"50 17 OFFCURVE",
"50 17 CURVE",
"50 17 OFFCURVE",
"75 0 OFFCURVE",
"164 0 CURVE"
);
},
{
closed = 1;
nodes = (
"219 0 OFFCURVE",
"248 5 OFFCURVE",
"279 14 CURVE",
"279 39 LINE",
"279 635 LINE",
"253 645 OFFCURVE",
"215 650 OFFCURVE",
"164 650 CURVE",
"164 0 LINE"
);
},
{
closed = 1;
nodes = (
"219 0 OFFCURVE",
"248 5 OFFCURVE",
"279 14 CURVE",
"279 39 LINE",
"279 635 LINE",
"253 645 OFFCURVE",
"215 650 OFFCURVE",
"164 650 CURVE",
"164 0 LINE"
);
},
{
closed = 1;
nodes = (
"164 325 LINE",
"164 650 LINE",
"75 650 OFFCURVE",
"50 633 OFFCURVE",
"50 633 CURVE",
"49 633 OFFCURVE",
"45 511 OFFCURVE",
"45 325 CURVE"
);
},
{
closed = 1;
nodes = (
"582 0 OFFCURVE",
"622 6 OFFCURVE",
"645 17 CURVE",
"645 114 OFFCURVE",
"645 225 OFFCURVE",
"645 325 CURVE",
"645 541 OFFCURVE",
"593 650 OFFCURVE",
"435 650 CURVE",
"357 650 OFFCURVE",
"302 619 OFFCURVE",
"279 586 CURVE",
"279 353 LINE",
"279 403 OFFCURVE",
"300 453 OFFCURVE",
"353 453 CURVE",
"408 453 OFFCURVE",
"420 398 OFFCURVE",
"420 353 CURVE",
"420 17 LINE",
"427 7 OFFCURVE",
"474 0 OFFCURVE",
"525 0 CURVE"
);
}
);
width = 1054;
}
);
leftKerningGroup = dotless_i;
note = m;
rightKerningGroup = n;
unicode = 006D;
},
{
glyphname = mhook;
lastChange = "2023-04-03 08:16:38 +0000";
layers = (
{
layerId = "BADE114B-EA49-45B4-AE36-72A7CEB6E1BE";
paths = (
{
closed = 1;
nodes = (
"164 325 LINE",
"45 325 LINE",
"45 139 OFFCURVE",
"50 17 OFFCURVE",
"50 17 CURVE",
"50 17 OFFCURVE",
"75 0 OFFCURVE",
"164 0 CURVE"
);
},
{
closed = 1;
nodes = (
"219 0 OFFCURVE",
"248 5 OFFCURVE",
"279 14 CURVE",
"279 39 LINE",
"279 635 LINE",
"253 645 OFFCURVE",
"215 650 OFFCURVE",
"164 650 CURVE",
"164 0 LINE"
);
},
{
closed = 1;
nodes = (
"219 0 OFFCURVE",
"248 5 OFFCURVE",
"279 14 CURVE",
"279 39 LINE",
"279 635 LINE",
"253 645 OFFCURVE",
"215 650 OFFCURVE",
"164 650 CURVE",
"164 0 LINE"
);
},
{
closed = 1;
nodes = (
"164 325 LINE",
"164 650 LINE",
"75 650 OFFCURVE",
"50 633 OFFCURVE",
"50 633 CURVE",
"49 633 OFFCURVE",
"45 511 OFFCURVE",
"45 325 CURVE"
);
},
{
closed = 1;
nodes = (
"582 0 OFFCURVE",
"622 6 OFFCURVE",
"645 17 CURVE",
"645 114 OFFCURVE",
"645 225 OFFCURVE",
"645 325 CURVE",
"645 541 OFFCURVE",
"593 650 OFFCURVE",
"435 650 CURVE",
"357 650 OFFCURVE",
"302 619 OFFCURVE",
"279 586 CURVE",
"279 353 LINE",
"279 403 OFFCURVE",
"300 453 OFFCURVE",
"353 453 CURVE",
"408 453 OFFCURVE",
"420 398 OFFCURVE",
"420 353 CURVE",
"420 17 LINE",
"427 7 OFFCURVE",
"474 0 OFFCURVE",
"525 0 CURVE"
);
},
{
closed = 1;
nodes = (
"926 -240 OFFCURVE",
"1019 -143 OFFCURVE",
"1019 135 CURVE",
"1019 325 LINE",
"779 353 LINE",
"779 102 LINE",
"780 -45 OFFCURVE",
"695 -60 OFFCURVE",
"576 -24 CURVE",
"551 -66 OFFCURVE",
"538 -154 OFFCURVE",
"542 -208 CURVE",
"598 -228 OFFCURVE",
"647 -240 OFFCURVE",
"733 -240 CURVE"
);
},
{
closed = 1;
nodes = (
"1019 541 OFFCURVE",
"967 650 OFFCURVE",
"795 650 CURVE",
"719 650 OFFCURVE",
"666 641 OFFCURVE",
"593 561 CURVE",
"645 353 LINE",
"645 403 OFFCURVE",
"663 453 OFFCURVE",
"709 453 CURVE",
"767 453 OFFCURVE",
"779 398 OFFCURVE",
"779 353 CURVE",
"1019 325 LINE"
);
}
);
width = 1054;
}
);
unicode = 0271;
},
{
glyphname = mlonglegturned;
lastChange = "2023-04-03 08:16:38 +0000";
layers = (
{
anchors = (
{
name = bottom;
position = "{527, 650}";
},
{
name = top;
position = "{527, 0}";
}
);
layerId = "BADE114B-EA49-45B4-AE36-72A7CEB6E1BE";
paths = (
{
closed = 1;
nodes = (
"116 650 OFFCURVE",
"76 644 OFFCURVE",
"53 633 CURVE",
"48 536 OFFCURVE",
"45 425 OFFCURVE",
"45 325 CURVE",
"45 109 OFFCURVE",
"96 0 OFFCURVE",
"263 0 CURVE",
"336 0 OFFCURVE",
"388 9 OFFCURVE",
"461 89 CURVE",
"409 297 LINE",
"409 239 OFFCURVE",
"401 197 OFFCURVE",
"345 197 CURVE",
"290 197 OFFCURVE",
"278 252 OFFCURVE",
"278 297 CURVE",
"278 633 LINE",
"270 643 OFFCURVE",
"224 650 OFFCURVE",
"173 650 CURVE"
);
},
{
closed = 1;
nodes = (
"890 325 LINE",
"1009 325 LINE",
"1009 511 OFFCURVE",
"1004 633 OFFCURVE",
"1004 633 CURVE",
"1004 633 OFFCURVE",
"979 650 OFFCURVE",
"890 650 CURVE"
);
},
{
closed = 1;
nodes = (
"472 650 OFFCURVE",
"432 644 OFFCURVE",
"409 633 CURVE",
"409 536 OFFCURVE",
"409 425 OFFCURVE",
"409 325 CURVE",
"409 109 OFFCURVE",
"461 0 OFFCURVE",
"619 0 CURVE",
"697 0 OFFCURVE",
"752 31 OFFCURVE",
"775 64 CURVE",
"775 297 LINE",
"775 247 OFFCURVE",
"754 197 OFFCURVE",
"701 197 CURVE",
"646 197 OFFCURVE",
"634 252 OFFCURVE",
"634 297 CURVE",
"634 633 LINE",
"627 643 OFFCURVE",
"580 650 OFFCURVE",
"529 650 CURVE"
);
},
{
closed = 1;
nodes = (
"979 -241 OFFCURVE",
"1004 -224 OFFCURVE",
"1004 -224 CURVE",
"1004 -224 OFFCURVE",
"1009 137 OFFCURVE",
"1009 325 CURVE",
"890 325 LINE",
"890 -241 LINE"
);
},
{
closed = 1;
nodes = (
"890 650 LINE",
"839 650 OFFCURVE",
"801 644 OFFCURVE",
"775 631 CURVE",
"775 -223 LINE",
"806 -235 OFFCURVE",
"835 -241 OFFCURVE",
"890 -241 CURVE"
);
}
);
width = 1054;
}
);
unicode = 0270;
},
{
glyphname = n;
lastChange = "2023-04-04 12:14:16 +0000";
layers = (
{
anchors = (
{
name = bottom;
position = "{355, 0}";
},
{
name = top;
position = "{355, 650}";
}
);
layerId = "BADE114B-EA49-45B4-AE36-72A7CEB6E1BE";
paths = (
{
closed = 1;
nodes = (
"591 0 OFFCURVE",
"632 6 OFFCURVE",
"656 17 CURVE",
"661 114 OFFCURVE",
"664 225 OFFCURVE",
"664 325 CURVE",
"664 541 OFFCURVE",
"612 650 OFFCURVE",
"440 650 CURVE",
"364 650 OFFCURVE",
"308 635 OFFCURVE",
"279 596 CURVE",
"279 353 LINE",
"279 403 OFFCURVE",
"301 453 OFFCURVE",
"355 453 CURVE",
"412 453 OFFCURVE",
"424 398 OFFCURVE",
"424 353 CURVE",
"424 17 LINE",
"432 7 OFFCURVE",
"480 0 OFFCURVE",
"532 0 CURVE"
);
},
{
closed = 1;
nodes = (
"217 0 OFFCURVE",
"249 5 OFFCURVE",
"279 14 CURVE",
"279 325 LINE",
"164 325 LINE",
"164 0 LINE"
);
},
{
closed = 1;
nodes = (
"164 325 LINE",
"45 325 LINE",
"45 139 OFFCURVE",
"50 17 OFFCURVE",
"50 17 CURVE",
"50 17 OFFCURVE",
"75 0 OFFCURVE",
"164 0 CURVE"
);
},
{
closed = 1;
nodes = (
"164 325 LINE",
"164 650 LINE",
"77 650 OFFCURVE",
"50 633 OFFCURVE",
"50 633 CURVE",
"49 633 OFFCURVE",
"45 511 OFFCURVE",
"45 325 CURVE"
);
},
{
closed = 1;
nodes = (
"279 633 LINE",
"279 633 OFFCURVE",
"251 650 OFFCURVE",
"164 650 CURVE",
"164 325 LINE",
"279 325 LINE"
);
}
);
width = 709;
}
);
leftKerningGroup = dotless_i;
note = n;
rightKerningGroup = n;
unicode = 006E;
},
{
glyphname = eng;
lastChange = "2023-08-11 13:25:37 +0000";
layers = (
{
layerId = "BADE114B-EA49-45B4-AE36-72A7CEB6E1BE";
paths = (
{
closed = 1;
nodes = (
"571 -240 OFFCURVE",
"664 -143 OFFCURVE",
"664 135 CURVE",
"664 325 LINE",
"424 353 LINE",
"424 102 LINE",
"425 -45 OFFCURVE",
"340 -60 OFFCURVE",
"221 -24 CURVE",
"196 -66 OFFCURVE",
"183 -154 OFFCURVE",
"187 -208 CURVE",
"243 -228 OFFCURVE",
"292 -240 OFFCURVE",
"378 -240 CURVE"
);
},
{
closed = 1;
nodes = (
"164 325 LINE",
"45 325 LINE",
"45 139 OFFCURVE",
"50 17 OFFCURVE",
"50 17 CURVE",
"50 17 OFFCURVE",
"75 0 OFFCURVE",
"164 0 CURVE"
);
},
{
closed = 1;
nodes = (
"219 0 OFFCURVE",
"248 5 OFFCURVE",
"279 14 CURVE",
"279 635 LINE",
"253 645 OFFCURVE",
"215 650 OFFCURVE",
"164 650 CURVE",
"164 0 LINE"
);
},
{
closed = 1;
nodes = (
"164 325 LINE",
"164 650 LINE",
"75 650 OFFCURVE",
"50 633 OFFCURVE",
"50 633 CURVE",
"49 633 OFFCURVE",
"45 511 OFFCURVE",
"45 325 CURVE"
);
},
{
closed = 1;
nodes = (
"664 541 OFFCURVE",
"612 650 OFFCURVE",
"440 650 CURVE",
"364 650 OFFCURVE",
"308 635 OFFCURVE",
"279 596 CURVE",
"279 353 LINE",
"279 403 OFFCURVE",
"301 453 OFFCURVE",
"355 453 CURVE",
"412 453 OFFCURVE",
"424 398 OFFCURVE",
"424 353 CURVE",
"664 325 LINE"
);
}
);
width = 709;
}
);
leftKerningGroup = n;
rightKerningGroup = n;
unicode = 014B;
},
{
glyphname = nhookleft;
lastChange = "2023-08-11 13:25:37 +0000";
layers = (
{
layerId = "BADE114B-EA49-45B4-AE36-72A7CEB6E1BE";
paths = (
{
closed = 1;
nodes = (
"204 325 LINE",
"204 650 LINE",
"117 650 OFFCURVE",
"90 633 OFFCURVE",
"90 633 CURVE",
"89 633 OFFCURVE",
"85 511 OFFCURVE",
"85 325 CURVE"
);
},
{
closed = 1;
nodes = (
"319 633 LINE",
"319 633 OFFCURVE",
"291 650 OFFCURVE",
"204 650 CURVE",
"204 325 LINE",
"319 325 LINE"
);
},
{
closed = 1;
nodes = (
"249 -240 OFFCURVE",
"318 -206 OFFCURVE",
"319 -47 CURVE",
"319 325 LINE",
"85 325 LINE",
"85 12 LINE",
"85 -45 OFFCURVE",
"72 -59 OFFCURVE",
"8 -47 CURVE",
"2 -98 OFFCURVE",
"-3 -167 OFFCURVE",
"2 -225 CURVE",
"31 -234 OFFCURVE",
"66 -240 OFFCURVE",
"133 -240 CURVE"
);
},
{
closed = 1;
nodes = (
"631 0 OFFCURVE",
"672 6 OFFCURVE",
"696 17 CURVE",
"701 114 OFFCURVE",
"704 225 OFFCURVE",
"704 325 CURVE",
"704 541 OFFCURVE",
"652 650 OFFCURVE",
"480 650 CURVE",
"404 650 OFFCURVE",
"348 635 OFFCURVE",
"319 596 CURVE",
"319 353 LINE",
"319 403 OFFCURVE",
"341 453 OFFCURVE",
"395 453 CURVE",
"452 453 OFFCURVE",
"464 398 OFFCURVE",
"464 353 CURVE",
"464 17 LINE",
"472 7 OFFCURVE",
"520 0 OFFCURVE",
"572 0 CURVE"
);
}
);
width = 749;
}
);
unicode = 0272;
},
{
glyphname = nhookretroflex;
lastChange = "2023-04-03 08:16:38 +0000";
layers = (
{
layerId = "BADE114B-EA49-45B4-AE36-72A7CEB6E1BE";
paths = (
{
closed = 1;
nodes = (
"664 325 LINE",
"664 541 OFFCURVE",
"612 650 OFFCURVE",
"440 650 CURVE",
"364 650 OFFCURVE",
"308 635 OFFCURVE",
"279 596 CURVE",
"279 353 LINE",
"279 403 OFFCURVE",
"301 453 OFFCURVE",
"355 453 CURVE",
"412 453 OFFCURVE",
"424 398 OFFCURVE",
"424 353 CURVE",
"424 325 LINE"
);
},
{
closed = 1;
nodes = (
"217 0 OFFCURVE",
"249 5 OFFCURVE",
"279 14 CURVE",
"279 325 LINE",
"164 325 LINE",
"164 0 LINE"
);
},
{
closed = 1;
nodes = (
"164 325 LINE",
"45 325 LINE",
"45 139 OFFCURVE",
"50 17 OFFCURVE",
"50 17 CURVE",
"50 17 OFFCURVE",
"75 0 OFFCURVE",
"164 0 CURVE"
);
},
{
closed = 1;
nodes = (
"164 325 LINE",
"164 650 LINE",
"77 650 OFFCURVE",
"50 633 OFFCURVE",
"50 633 CURVE",
"49 633 OFFCURVE",
"45 511 OFFCURVE",
"45 325 CURVE"
);
},
{
closed = 1;
nodes = (
"279 633 LINE",
"279 633 OFFCURVE",
"251 650 OFFCURVE",
"164 650 CURVE",
"164 325 LINE",
"279 325 LINE"
);
},
{
closed = 1;
nodes = (
"683 -240 OFFCURVE",
"719 -234 OFFCURVE",
"749 -225 CURVE",
"754 -167 OFFCURVE",
"749 -98 OFFCURVE",
"743 -47 CURVE",
"677 -59 OFFCURVE",
"664 -45 OFFCURVE",
"664 12 CURVE",
"664 325 LINE",
"424 325 LINE",
"424 -47 LINE",
"425 -206 OFFCURVE",
"496 -240 OFFCURVE",
"615 -240 CURVE"
);
}
);
width = 751;
}
);
unicode = 0273;
},
{
glyphname = o;
lastChange = "2023-08-11 13:12:19 +0000";
layers = (
{
anchors = (
{
name = bottom;
position = "{344, -10}";
},
{
name = center;
position = "{389, 325}";
},
{
name = horn;
position = "{507, 587}";
},
{
name = ogonek;
position = "{389, -10}";
},
{
name = top;
position = "{344, 650}";
},
{
name = topright;
position = "{723, 650}";
}
);
layerId = "BADE114B-EA49-45B4-AE36-72A7CEB6E1BE";
paths = (
{
closed = 1;
nodes = (
"265 325 LINE",
"265 395 OFFCURVE",
"274 475 OFFCURVE",
"344 475 CURVE",
"344 660 LINE",
"128 660 OFFCURVE",
"35 529 OFFCURVE",
"35 325 CURVE"
);
},
{
closed = 1;
nodes = (
"653 529 OFFCURVE",
"560 660 OFFCURVE",
"344 660 CURVE",
"344 475 LINE",
"414 475 OFFCURVE",
"423 395 OFFCURVE",
"423 325 CURVE",
"653 325 LINE"
);
},
{
closed = 1;
nodes = (
"35 121 OFFCURVE",
"128 -10 OFFCURVE",
"344 -10 CURVE",
"344 175 LINE",
"274 175 OFFCURVE",
"265 255 OFFCURVE",
"265 325 CURVE",
"35 325 LINE"
);
},
{
closed = 1;
nodes = (
"423 325 LINE",
"423 255 OFFCURVE",
"414 175 OFFCURVE",
"344 175 CURVE",
"344 -10 LINE",
"560 -10 OFFCURVE",
"653 121 OFFCURVE",
"653 325 CURVE"
);
}
);
width = 688;
}
);
leftKerningGroup = o;
note = o;
rightKerningGroup = o;
unicode = 006F;
},
{
glyphname = obarred;
lastChange = "2023-04-03 08:16:38 +0000";
layers = (
{
anchors = (
{
name = bottom;
position = "{354, 0}";
},
{
name = center;
position = "{354, 325}";
},
{
name = ogonek;
position = "{637, 10}";
},
{
name = top;
position = "{354, 650}";
},
{
name = topright;
position = "{688, 650}";
}
);
layerId = "BADE114B-EA49-45B4-AE36-72A7CEB6E1BE";
paths = (
{
closed = 1;
nodes = (
"491 253 LINE",
"491 398 LINE",
"217 398 LINE",
"217 253 LINE"
);
},
{
closed = 1;
nodes = (
"663 325 LINE",
"663 571 OFFCURVE",
"570 660 OFFCURVE",
"354 660 CURVE",
"354 488 LINE",
"439 488 OFFCURVE",
"462 444 OFFCURVE",
"462 325 CURVE"
);
},
{
closed = 1;
nodes = (
"354 162 LINE",
"269 162 OFFCURVE",
"246 206 OFFCURVE",
"246 325 CURVE",
"45 325 LINE",
"45 79 OFFCURVE",
"138 -10 OFFCURVE",
"354 -10 CURVE"
);
},
{
closed = 1;
nodes = (
"570 -10 OFFCURVE",
"663 79 OFFCURVE",
"663 325 CURVE",
"462 325 LINE",
"462 206 OFFCURVE",
"439 162 OFFCURVE",
"354 162 CURVE",
"354 -10 LINE"
);
},
{
closed = 1;
nodes = (
"246 325 LINE",
"246 444 OFFCURVE",
"269 488 OFFCURVE",
"354 488 CURVE",
"354 660 LINE",
"138 660 OFFCURVE",
"45 571 OFFCURVE",
"45 325 CURVE"
);
}
);
width = 708;
}
);
unicode = 0275;
},
{
glyphname = oslash;
lastChange = "2023-08-11 13:25:37 +0000";
layers = (
{
anchors = (
{
name = top;
position = "{370, 650}";
}
);
components = (
{
name = o;
transform = "{1, 0, 0, 1, 16, 0}";
}
);
layerId = "BADE114B-EA49-45B4-AE36-72A7CEB6E1BE";
paths = (
{
closed = 1;
nodes = (
"695 560 LINE",
"663 598 LINE",
"45 90 LINE",
"77 52 LINE"
);
}
);
width = 740;
}
);
leftKerningGroup = o;
rightKerningGroup = o;
unicode = 00F8;
},
{
glyphname = oe;
lastChange = "2023-08-11 13:25:37 +0000";
layers = (
{
anchors = (
{
name = bottom;
position = "{550, 0}";
},
{
name = top;
position = "{550, 650}";
}
);
layerId = "BADE114B-EA49-45B4-AE36-72A7CEB6E1BE";
paths = (
{
closed = 1;
nodes = (
"354 175 LINE",
"284 175 OFFCURVE",
"275 255 OFFCURVE",
"275 325 CURVE",
"45 325 LINE",
"45 79 OFFCURVE",
"138 -10 OFFCURVE",
"354 -10 CURVE"
);
},
{
closed = 1;
nodes = (
"570 -10 OFFCURVE",
"663 79 OFFCURVE",
"663 325 CURVE",
"433 325 LINE",
"433 255 OFFCURVE",
"424 175 OFFCURVE",
"354 175 CURVE",
"354 -10 LINE"
);
},
{
closed = 1;
nodes = (
"275 325 LINE",
"275 395 OFFCURVE",
"284 475 OFFCURVE",
"354 475 CURVE",
"354 660 LINE",
"138 660 OFFCURVE",
"45 571 OFFCURVE",
"45 325 CURVE"
);
},
{
closed = 1;
nodes = (
"663 325 LINE",
"663 571 OFFCURVE",
"570 660 OFFCURVE",
"354 660 CURVE",
"354 475 LINE",
"424 475 OFFCURVE",
"433 395 OFFCURVE",
"433 325 CURVE"
);
},
{
closed = 1;
nodes = (
"699 440 OFFCURVE",
"725 475 OFFCURVE",
"765 475 CURVE SMOOTH",
"805 475 OFFCURVE",
"832 440 OFFCURVE",
"835 392 CURVE",
"695 392 LINE"
);
},
{
closed = 1;
nodes = (
"935 -10 OFFCURVE",
"1029 45 OFFCURVE",
"1061 188 CURVE",
"996 214 OFFCURVE",
"916 228 OFFCURVE",
"834 234 CURVE",
"824 200 OFFCURVE",
"804 175 OFFCURVE",
"765 175 CURVE SMOOTH",
"712 175 OFFCURVE",
"694 221 OFFCURVE",
"688 273 CURVE",
"1071 273 LINE",
"1073 290 OFFCURVE",
"1074 302 OFFCURVE",
"1074 325 CURVE SMOOTH",
"1074 570 OFFCURVE",
"981 659 OFFCURVE",
"765 660 CURVE SMOOTH",
"549 660 OFFCURVE",
"456 571 OFFCURVE",
"456 325 CURVE SMOOTH",
"456 79 OFFCURVE",
"549 -10 OFFCURVE",
"765 -10 CURVE SMOOTH"
);
}
);
width = 1099;
}
);
leftKerningGroup = o;
rightKerningGroup = o;
unicode = 0153;
},
{
glyphname = p;
lastChange = "2023-04-03 08:15:56 +0000";
layers = (
{
anchors = (
{
name = bottom;
position = "{356, 0}";
},
{
name = top;
position = "{356, 650}";
}
);
layerId = "BADE114B-EA49-45B4-AE36-72A7CEB6E1BE";
paths = (
{
closed = 1;
nodes = (
"583 -10 OFFCURVE",
"666 101 OFFCURVE",
"666 325 CURVE SMOOTH",
"666 548 OFFCURVE",
"583 658 OFFCURVE",
"417 660 CURVE SMOOTH",
"365 660 OFFCURVE",
"294 645 OFFCURVE",
"279 609 CURVE",
"279 401 LINE",
"279 431 OFFCURVE",
"302 484 OFFCURVE",
"355 484 CURVE SMOOTH",
"401 484 OFFCURVE",
"434 436 OFFCURVE",
"434 325 CURVE SMOOTH",
"434 214 OFFCURVE",
"401 166 OFFCURVE",
"355 166 CURVE SMOOTH",
"311 166 OFFCURVE",
"279 195 OFFCURVE",
"279 220 CURVE",
"279 9 LINE",
"305 -2 OFFCURVE",
"351 -10 OFFCURVE",
"417 -10 CURVE SMOOTH"
);
},
{
closed = 1;
nodes = (
"164 326 LINE",
"45 326 LINE",
"45 138 OFFCURVE",
"50 -223 OFFCURVE",
"50 -223 CURVE",
"50 -223 OFFCURVE",
"75 -240 OFFCURVE",
"164 -240 CURVE"
);
},
{
closed = 1;
nodes = (
"219 -240 OFFCURVE",
"248 -234 OFFCURVE",
"279 -222 CURVE",
"279 632 LINE",
"253 645 OFFCURVE",
"215 651 OFFCURVE",
"164 651 CURVE",
"164 -240 LINE"
);
},
{
closed = 1;
nodes = (
"164 326 LINE",
"164 651 LINE",
"75 651 OFFCURVE",
"50 634 OFFCURVE",
"50 634 CURVE",
"49 634 OFFCURVE",
"45 512 OFFCURVE",
"45 326 CURVE"
);
}
);
width = 711;
}
);
leftKerningGroup = p;
note = p;
rightKerningGroup = o;
unicode = 0070;
},
{
glyphname = "phi-latin";
lastChange = "2023-04-03 08:16:38 +0000";
layers = (
{
layerId = "BADE114B-EA49-45B4-AE36-72A7CEB6E1BE";
paths = (
{
closed = 1;
nodes = (
"252 335 LINE",
"252 444 OFFCURVE",
"289 479 OFFCURVE",
"415 479 CURVE SMOOTH",
"542 479 OFFCURVE",
"578 444 OFFCURVE",
"578 335 CURVE",
"785 335 LINE",
"786 582 OFFCURVE",
"663 670 OFFCURVE",
"415 670 CURVE SMOOTH",
"169 670 OFFCURVE",
"45 582 OFFCURVE",
"45 335 CURVE"
);
},
{
closed = 1;
nodes = (
"662 0 OFFCURVE",
"785 88 OFFCURVE",
"785 335 CURVE",
"578 335 LINE",
"578 226 OFFCURVE",
"542 191 OFFCURVE",
"415 191 CURVE SMOOTH",
"289 191 OFFCURVE",
"252 226 OFFCURVE",
"252 335 CURVE",
"45 335 LINE",
"45 88 OFFCURVE",
"169 0 OFFCURVE",
"415 0 CURVE SMOOTH"
);
},
{
closed = 1;
nodes = (
"491 -240 OFFCURVE",
"521 -228 OFFCURVE",
"521 -228 CURVE",
"522 -228 OFFCURVE",
"530 -140 OFFCURVE",
"529 134 CURVE",
"517 134 LINE",
"517 575 LINE",
"529 575 LINE",
"530 789 OFFCURVE",
"522 878 OFFCURVE",
"521 878 CURVE SMOOTH",
"521 878 OFFCURVE",
"491 890 OFFCURVE",
"415 890 CURVE SMOOTH",
"339 890 OFFCURVE",
"309 878 OFFCURVE",
"309 878 CURVE SMOOTH",
"308 878 OFFCURVE",
"301 789 OFFCURVE",
"301 575 CURVE",
"313 575 LINE",
"313 134 LINE",
"301 134 LINE",
"301 -140 OFFCURVE",
"308 -228 OFFCURVE",
"309 -228 CURVE",
"309 -228 OFFCURVE",
"339 -240 OFFCURVE",
"415 -240 CURVE SMOOTH"
);
}
);
width = 830;
}
);
unicode = 0278;
},
{
glyphname = thorn;
lastChange = "2023-04-03 08:16:02 +0000";
layers = (
{
anchors = (
{
name = bottom;
position = "{340, 0}";
},
{
name = top;
position = "{340, 650}";
}
);
layerId = "BADE114B-EA49-45B4-AE36-72A7CEB6E1BE";
paths = (
{
closed = 1;
nodes = (
"583 -10 OFFCURVE",
"666 101 OFFCURVE",
"666 325 CURVE SMOOTH",
"666 548 OFFCURVE",
"583 658 OFFCURVE",
"417 660 CURVE SMOOTH",
"365 660 OFFCURVE",
"294 645 OFFCURVE",
"279 609 CURVE",
"279 401 LINE",
"279 431 OFFCURVE",
"302 484 OFFCURVE",
"355 484 CURVE SMOOTH",
"401 484 OFFCURVE",
"434 436 OFFCURVE",
"434 325 CURVE SMOOTH",
"434 214 OFFCURVE",
"401 166 OFFCURVE",
"355 166 CURVE SMOOTH",
"311 166 OFFCURVE",
"279 195 OFFCURVE",
"279 220 CURVE",
"279 9 LINE",
"305 -2 OFFCURVE",
"351 -10 OFFCURVE",
"417 -10 CURVE SMOOTH"
);
},
{
closed = 1;
nodes = (
"164 326 LINE",
"45 326 LINE",
"45 138 OFFCURVE",
"50 -223 OFFCURVE",
"50 -223 CURVE",
"50 -223 OFFCURVE",
"75 -240 OFFCURVE",
"164 -240 CURVE"
);
},
{
closed = 1;
nodes = (
"219 -240 OFFCURVE",
"248 -234 OFFCURVE",
"279 -222 CURVE",
"279 871 LINE",
"253 884 OFFCURVE",
"215 890 OFFCURVE",
"164 890 CURVE",
"164 -240 LINE"
);
},
{
closed = 1;
nodes = (
"164 326 LINE",
"164 890 LINE",
"75 890 OFFCURVE",
"50 873 OFFCURVE",
"50 873 CURVE",
"49 873 OFFCURVE",
"45 512 OFFCURVE",
"45 326 CURVE"
);
}
);
width = 711;
}
);
leftKerningGroup = L;
rightKerningGroup = o;
unicode = 00FE;
},
{
glyphname = r;
lastChange = "2023-04-03 08:15:56 +0000";
layers = (
{
anchors = (
{
name = bottom;
position = "{164, 0}";
},
{
name = top;
position = "{266, 650}";
}
);
layerId = "BADE114B-EA49-45B4-AE36-72A7CEB6E1BE";
paths = (
{
closed = 1;
nodes = (
"467 503 OFFCURVE",
"476 564 OFFCURVE",
"477 630 CURVE",
"448 649 OFFCURVE",
"411 660 OFFCURVE",
"377 660 CURVE SMOOTH",
"323 660 OFFCURVE",
"287 641 OFFCURVE",
"256 601 CURVE",
"279 360 LINE",
"279 426 OFFCURVE",
"327 458 OFFCURVE",
"380 458 CURVE SMOOTH",
"416 458 OFFCURVE",
"444 443 OFFCURVE",
"444 443 CURVE"
);
},
{
closed = 1;
nodes = (
"217 0 OFFCURVE",
"249 5 OFFCURVE",
"279 14 CURVE",
"279 325 LINE",
"164 325 LINE",
"164 0 LINE"
);
},
{
closed = 1;
nodes = (
"164 325 LINE",
"45 325 LINE",
"45 139 OFFCURVE",
"50 17 OFFCURVE",
"50 17 CURVE",
"50 17 OFFCURVE",
"75 0 OFFCURVE",
"164 0 CURVE"
);
},
{
closed = 1;
nodes = (
"164 325 LINE",
"161 650 LINE",
"76 650 OFFCURVE",
"50 633 OFFCURVE",
"50 633 CURVE",
"49 633 OFFCURVE",
"45 511 OFFCURVE",
"45 325 CURVE"
);
},
{
closed = 1;
nodes = (
"279 593 LINE",
"265 602 LINE",
"260 633 LINE",
"260 633 OFFCURVE",
"232 650 OFFCURVE",
"161 650 CURVE",
"164 325 LINE",
"279 325 LINE"
);
}
);
width = 518;
}
);
leftKerningGroup = dotless_i;
rightKerningGroup = r;
unicode = 0072;
},
{
glyphname = ramshorn;
lastChange = "2023-04-03 08:16:38 +0000";
layers = (
{
layerId = "BADE114B-EA49-45B4-AE36-72A7CEB6E1BE";
paths = (
{
closed = 1;
nodes = (
"381 153 LINE",
"326 153 OFFCURVE",
"316 187 OFFCURVE",
"316 209 CURVE",
"316 241 OFFCURVE",
"332 279 OFFCURVE",
"381 334 CURVE",
"200 425 LINE",
"111 326 OFFCURVE",
"73 272 OFFCURVE",
"73 183 CURVE SMOOTH",
"73 83 OFFCURVE",
"159 0 OFFCURVE",
"381 0 CURVE"
);
},
{
closed = 1;
nodes = (
"603 2 OFFCURVE",
"689 84 OFFCURVE",
"689 183 CURVE SMOOTH",
"689 272 OFFCURVE",
"651 326 OFFCURVE",
"562 425 CURVE",
"381 334 LINE",
"430 279 OFFCURVE",
"446 241 OFFCURVE",
"446 209 CURVE",
"446 187 OFFCURVE",
"436 153 OFFCURVE",
"381 153 CURVE",
"381 0 LINE"
);
},
{
closed = 1;
nodes = (
"381 334 LINE",
"381 490 LINE",
"306 643 LINE",
"276 648 OFFCURVE",
"220 650 OFFCURVE",
"180 650 CURVE SMOOTH",
"124 650 OFFCURVE",
"86 645 OFFCURVE",
"45 636 CURVE",
"200 425 LINE"
);
},
{
closed = 1;
nodes = (
"717 636 LINE",
"676 645 OFFCURVE",
"638 650 OFFCURVE",
"582 650 CURVE SMOOTH",
"542 650 OFFCURVE",
"486 648 OFFCURVE",
"456 643 CURVE",
"381 490 LINE",
"381 334 LINE",
"562 425 LINE"
);
}
);
width = 762;
}
);
unicode = 0264;
},
{
glyphname = rfishhook;
lastChange = "2023-08-11 13:25:37 +0000";
layers = (
{
layerId = "BADE114B-EA49-45B4-AE36-72A7CEB6E1BE";
paths = (
{
closed = 1;
nodes = (
"115 660 OFFCURVE",
"46 626 OFFCURVE",
"45 467 CURVE",
"45 325 LINE",
"279 325 LINE",
"279 408 LINE",
"279 465 OFFCURVE",
"291 479 OFFCURVE",
"356 467 CURVE",
"362 518 OFFCURVE",
"366 587 OFFCURVE",
"362 645 CURVE",
"332 654 OFFCURVE",
"297 660 OFFCURVE",
"231 660 CURVE"
);
},
{
closed = 1;
nodes = (
"217 0 OFFCURVE",
"249 5 OFFCURVE",
"279 14 CURVE",
"279 325 LINE",
"164 325 LINE",
"164 0 LINE"
);
},
{
closed = 1;
nodes = (
"164 325 LINE",
"45 325 LINE",
"45 139 OFFCURVE",
"50 17 OFFCURVE",
"50 17 CURVE",
"50 17 OFFCURVE",
"75 0 OFFCURVE",
"164 0 CURVE"
);
}
);
width = 394;
}
);
unicode = 027E;
},
{
glyphname = rhook;
lastChange = "2023-08-11 13:25:37 +0000";
layers = (
{
layerId = "BADE114B-EA49-45B4-AE36-72A7CEB6E1BE";
paths = (
{
closed = 1;
nodes = (
"298 -240 OFFCURVE",
"333 -234 OFFCURVE",
"362 -225 CURVE",
"367 -167 OFFCURVE",
"362 -98 OFFCURVE",
"356 -47 CURVE",
"292 -59 OFFCURVE",
"279 -45 OFFCURVE",
"279 12 CURVE",
"279 325 LINE",
"45 325 LINE",
"45 -47 LINE",
"46 -206 OFFCURVE",
"115 -240 OFFCURVE",
"231 -240 CURVE"
);
},
{
closed = 1;
nodes = (
"467 503 OFFCURVE",
"476 564 OFFCURVE",
"477 630 CURVE",
"448 649 OFFCURVE",
"411 660 OFFCURVE",
"377 660 CURVE SMOOTH",
"323 660 OFFCURVE",
"287 641 OFFCURVE",
"256 601 CURVE",
"279 360 LINE",
"279 426 OFFCURVE",
"327 458 OFFCURVE",
"380 458 CURVE SMOOTH",
"416 458 OFFCURVE",
"444 443 OFFCURVE",
"444 443 CURVE"
);
},
{
closed = 1;
nodes = (
"164 325 LINE",
"161 650 LINE",
"76 650 OFFCURVE",
"50 633 OFFCURVE",
"50 633 CURVE",
"49 633 OFFCURVE",
"45 511 OFFCURVE",
"45 325 CURVE"
);
},
{
closed = 1;
nodes = (
"279 593 LINE",
"265 602 LINE",
"260 633 LINE",
"260 633 OFFCURVE",
"232 650 OFFCURVE",
"161 650 CURVE",
"164 325 LINE",
"279 325 LINE"
);
}
);
width = 518;
}
);
unicode = 027D;
},
{
glyphname = rhookturned;
lastChange = "2023-04-03 08:16:38 +0000";
layers = (
{
anchors = (
{
name = bottom;
position = "{354, 650}";
},
{
name = top;
position = "{239, 0}";
}
);
layerId = "BADE114B-EA49-45B4-AE36-72A7CEB6E1BE";
paths = (
{
closed = 1;
nodes = (
"301 650 OFFCURVE",
"269 645 OFFCURVE",
"239 636 CURVE",
"239 325 LINE",
"356 325 LINE",
"356 650 LINE"
);
},
{
closed = 1;
nodes = (
"491 -240 OFFCURVE",
"526 -234 OFFCURVE",
"555 -225 CURVE",
"560 -167 OFFCURVE",
"555 -98 OFFCURVE",
"550 -47 CURVE",
"485 -59 OFFCURVE",
"473 -45 OFFCURVE",
"473 12 CURVE",
"473 325 LINE",
"258 17 LINE",
"259 -195 OFFCURVE",
"321 -240 OFFCURVE",
"425 -240 CURVE"
);
},
{
closed = 1;
nodes = (
"51 147 OFFCURVE",
"42 86 OFFCURVE",
"41 20 CURVE",
"70 1 OFFCURVE",
"107 -10 OFFCURVE",
"141 -10 CURVE SMOOTH",
"195 -10 OFFCURVE",
"231 9 OFFCURVE",
"262 49 CURVE",
"239 290 LINE",
"239 224 OFFCURVE",
"191 192 OFFCURVE",
"138 192 CURVE SMOOTH",
"102 192 OFFCURVE",
"74 207 OFFCURVE",
"74 207 CURVE"
);
},
{
closed = 1;
nodes = (
"239 57 LINE",
"258 50 LINE",
"258 17 LINE",
"473 325 LINE",
"356 325 LINE",
"239 325 LINE"
);
},
{
closed = 1;
nodes = (
"356 325 LINE",
"473 325 LINE",
"473 636 LINE",
"443 645 OFFCURVE",
"411 650 OFFCURVE",
"356 650 CURVE"
);
}
);
width = 557;
}
);
unicode = 027B;
},
{
glyphname = rlonglegturned;
lastChange = "2023-04-03 08:16:38 +0000";
layers = (
{
anchors = (
{
name = bottom;
position = "{354, 650}";
},
{
name = top;
position = "{239, 0}";
}
);
layerId = "BADE114B-EA49-45B4-AE36-72A7CEB6E1BE";
paths = (
{
closed = 1;
nodes = (
"268 890 OFFCURVE",
"239 873 OFFCURVE",
"239 873 CURVE",
"239 873 OFFCURVE",
"239 511 OFFCURVE",
"239 325 CURVE",
"354 325 LINE",
"354 890 LINE"
);
},
{
closed = 1;
nodes = (
"354 325 LINE",
"473 325 LINE",
"473 872 LINE",
"441 884 OFFCURVE",
"411 890 OFFCURVE",
"354 890 CURVE"
);
},
{
closed = 1;
nodes = (
"51 147 OFFCURVE",
"42 86 OFFCURVE",
"41 20 CURVE",
"70 1 OFFCURVE",
"107 -10 OFFCURVE",
"141 -10 CURVE SMOOTH",
"195 -10 OFFCURVE",
"231 9 OFFCURVE",
"262 49 CURVE",
"239 290 LINE",
"239 224 OFFCURVE",
"191 192 OFFCURVE",
"138 192 CURVE SMOOTH",
"102 192 OFFCURVE",
"74 207 OFFCURVE",
"74 207 CURVE"
);
},
{
closed = 1;
nodes = (
"354 325 LINE",
"357 0 LINE",
"442 -1 OFFCURVE",
"468 16 OFFCURVE",
"468 16 CURVE",
"469 16 OFFCURVE",
"473 139 OFFCURVE",
"473 325 CURVE"
);
},
{
closed = 1;
nodes = (
"239 57 LINE",
"253 48 LINE",
"258 17 LINE",
"258 17 OFFCURVE",
"286 0 OFFCURVE",
"357 0 CURVE",
"354 325 LINE",
"239 325 LINE"
);
}
);
width = 518;
}
);
unicode = 027A;
},
{
glyphname = s;
lastChange = "2023-08-11 13:16:39 +0000";
layers = (
{
anchors = (
{
name = bottom;
position = "{320, 0}";
},
{
name = top;
position = "{320, 650}";
}
);
layerId = "BADE114B-EA49-45B4-AE36-72A7CEB6E1BE";
paths = (
{
closed = 1;
nodes = (
"316 158 LINE",
"281 158 OFFCURVE",
"255 175 OFFCURVE",
"255 196 CURVE",
"111 196 OFFCURVE",
"45 180 OFFCURVE",
"45 180 CURVE",
"54 36 OFFCURVE",
"162 -10 OFFCURVE",
"309 -10 CURVE"
);
},
{
closed = 1;
nodes = (
"518 -10 OFFCURVE",
"595 77 OFFCURVE",
"595 180 CURVE SMOOTH",
"595 284 OFFCURVE",
"544 349 OFFCURVE",
"383 389 CURVE",
"249 273 LINE",
"344 251 OFFCURVE",
"372 225 OFFCURVE",
"373 199 CURVE SMOOTH",
"374 171 OFFCURVE",
"346 158 OFFCURVE",
"316 158 CURVE",
"309 -10 LINE"
);
},
{
closed = 1;
nodes = (
"516 459 OFFCURVE",
"580 475 OFFCURVE",
"580 475 CURVE",
"571 619 OFFCURVE",
"467 665 OFFCURVE",
"325 665 CURVE",
"320 497 LINE",
"350 497 OFFCURVE",
"372 486 OFFCURVE",
"377 459 CURVE"
);
},
{
closed = 1;
nodes = (
"141 665 OFFCURVE",
"64 581 OFFCURVE",
"63 479 CURVE SMOOTH",
"62 368 OFFCURVE",
"119 306 OFFCURVE",
"249 273 CURVE",
"383 389 LINE",
"289 412 OFFCURVE",
"259 432 OFFCURVE",
"260 459 CURVE SMOOTH",
"261 480 OFFCURVE",
"281 497 OFFCURVE",
"320 497 CURVE",
"325 665 LINE"
);
}
);
width = 640;
}
);
leftKerningGroup = s;
note = s;
rightKerningGroup = s;
unicode = 0073;
},
{
glyphname = germandbls;
lastChange = "2023-04-03 08:16:02 +0000";
layers = (
{
anchors = (
{
name = bottom;
position = "{383, 0}";
},
{
name = top;
position = "{383, 650}";
}
);
layerId = "BADE114B-EA49-45B4-AE36-72A7CEB6E1BE";
paths = (
{
closed = 1;
nodes = (
"612 0 OFFCURVE",
"720 68 OFFCURVE",
"720 265 CURVE",
"720 453 OFFCURVE",
"611 527 OFFCURVE",
"395 527 CURVE",
"370 527 LINE",
"370 385 LINE",
"429 385 OFFCURVE",
"455 339 OFFCURVE",
"455 265 CURVE",
"455 181 OFFCURVE",
"428 147 OFFCURVE",
"370 146 CURVE",
"370 20 LINE",
"370 20 OFFCURVE",
"401 0 OFFCURVE",
"465 0 CURVE"
);
},
{
closed = 1;
nodes = (
"178 645 LINE",
"45 645 LINE",
"45 353 OFFCURVE",
"54 31 OFFCURVE",
"54 31 CURVE",
"54 31 OFFCURVE",
"89 0 OFFCURVE",
"178 0 CURVE"
);
},
{
closed = 1;
nodes = (
"266 0 OFFCURVE",
"310 31 OFFCURVE",
"310 31 CURVE",
"310 625 LINE",
"178 645 LINE",
"178 0 LINE"
);
},
{
closed = 1;
nodes = (
"310 625 LINE",
"310 659 OFFCURVE",
"317 719 OFFCURVE",
"370 719 CURVE",
"370 900 LINE",
"154 900 OFFCURVE",
"45 822 OFFCURVE",
"45 645 CURVE"
);
},
{
closed = 1;
nodes = (
"586 385 OFFCURVE",
"695 450 OFFCURVE",
"695 635 CURVE",
"430 616 LINE",
"430 578 OFFCURVE",
"423 527 OFFCURVE",
"370 527 CURVE",
"370 385 LINE"
);
},
{
closed = 1;
nodes = (
"695 635 LINE",
"695 822 OFFCURVE",
"586 900 OFFCURVE",
"370 900 CURVE",
"370 719 LINE",
"423 719 OFFCURVE",
"430 659 OFFCURVE",
"430 616 CURVE"
);
}
);
width = 765;
}
);
leftKerningGroup = germandbls;
rightKerningGroup = germandbls;
unicode = 00DF;
},
{
glyphname = shook;
lastChange = "2023-04-03 08:16:38 +0000";
layers = (
{
components = (
{
name = s;
}
);
layerId = "BADE114B-EA49-45B4-AE36-72A7CEB6E1BE";
paths = (
{
closed = 1;
nodes = (
"293 -240 OFFCURVE",
"328 -234 OFFCURVE",
"356 -225 CURVE",
"361 -182 OFFCURVE",
"356 -131 OFFCURVE",
"351 -94 CURVE",
"287 -102 OFFCURVE",
"275 -92 OFFCURVE",
"275 -49 CURVE",
"275 68 LINE",
"45 170 LINE",
"45 15 LINE",
"46 -165 OFFCURVE",
"82 -240 OFFCURVE",
"228 -240 CURVE"
);
}
);
width = 640;
}
);
unicode = 0282;
},
{
glyphname = longs;
lastChange = "2023-04-04 12:11:31 +0000";
layers = (
{
anchors = (
{
name = bottom;
position = "{230, 0}";
},
{
name = top;
position = "{230, 650}";
}
);
layerId = "BADE114B-EA49-45B4-AE36-72A7CEB6E1BE";
paths = (
{
closed = 1;
nodes = (
"184 0 LINE SMOOTH",
"245 0 OFFCURVE",
"307 18 OFFCURVE",
"324 31 CURVE",
"324 554 LINE",
"324 600 OFFCURVE",
"329 633 OFFCURVE",
"335 647 CURVE SMOOTH",
"345 668 OFFCURVE",
"362 679 OFFCURVE",
"389 679 CURVE",
"406 681 OFFCURVE",
"415 689 OFFCURVE",
"415 704 CURVE SMOOTH",
"415 865 LINE",
"414 885 OFFCURVE",
"405 890 OFFCURVE",
"350 890 CURVE SMOOTH",
"154 890 OFFCURVE",
"45 798 OFFCURVE",
"45 565 CURVE SMOOTH",
"45 394 OFFCURVE",
"48 181 OFFCURVE",
"54 27 CURVE",
"83 11 OFFCURVE",
"128 0 OFFCURVE",
"183 0 CURVE SMOOTH"
);
}
);
width = 460;
}
);
leftKerningGroup = longs;
note = longs;
rightKerningGroup = longs;
unicode = 017F;
},
{
glyphname = t;
lastChange = "2023-08-11 09:10:00 +0000";
layers = (
{
anchors = (
{
name = bottom;
position = "{263, 0}";
},
{
name = center;
position = "{235, 325}";
},
{
name = top;
position = "{224, 840}";
},
{
name = topright;
position = "{449, 650}";
}
);
layerId = "BADE114B-EA49-45B4-AE36-72A7CEB6E1BE";
paths = (
{
closed = 1;
nodes = (
"416 476 LINE",
"416 640 LINE",
"45 640 LINE",
"45 476 LINE"
);
},
{
closed = 1;
nodes = (
"224 565 LINE",
"224 840 LINE",
"135 840 OFFCURVE",
"110 823 OFFCURVE",
"110 823 CURVE",
"110 823 OFFCURVE",
"105 662 OFFCURVE",
"105 565 CURVE"
);
},
{
closed = 1;
nodes = (
"339 630 LINE",
"339 821 LINE",
"313 834 OFFCURVE",
"275 840 OFFCURVE",
"224 840 CURVE",
"224 630 LINE"
);
},
{
closed = 1;
nodes = (
"357 -10 OFFCURVE",
"392 -4 OFFCURVE",
"421 5 CURVE",
"426 63 OFFCURVE",
"421 132 OFFCURVE",
"415 183 CURVE",
"351 171 OFFCURVE",
"338 185 OFFCURVE",
"338 242 CURVE",
"338 486 LINE",
"105 486 LINE",
"105 183 LINE",
"106 24 OFFCURVE",
"175 -10 OFFCURVE",
"291 -10 CURVE"
);
}
);
width = 468;
}
);
leftKerningGroup = t;
note = t;
rightKerningGroup = t;
unicode = 0074;
},
{
glyphname = tbar;
lastChange = "2023-04-03 08:16:15 +0000";
layers = (
{
layerId = "BADE114B-EA49-45B4-AE36-72A7CEB6E1BE";
paths = (
{
closed = 1;
nodes = (
"357 -10 OFFCURVE",
"392 -6 OFFCURVE",
"422 0 CURVE",
"426 63 OFFCURVE",
"422 132 OFFCURVE",
"416 183 CURVE",
"351 171 OFFCURVE",
"339 185 OFFCURVE",
"339 242 CURVE",
"339 538 LINE",
"105 538 LINE",
"105 253 LINE",
"105 63 OFFCURVE",
"149 -10 OFFCURVE",
"314 -10 CURVE"
);
},
{
closed = 1;
nodes = (
"416 365 LINE",
"416 467 LINE",
"45 467 LINE",
"45 365 LINE"
);
},
{
closed = 1;
nodes = (
"416 528 LINE",
"416 630 LINE",
"45 630 LINE",
"45 528 LINE"
);
},
{
closed = 1;
nodes = (
"224 565 LINE",
"224 840 LINE",
"135 840 OFFCURVE",
"110 823 OFFCURVE",
"110 823 CURVE",
"110 823 OFFCURVE",
"105 662 OFFCURVE",
"105 565 CURVE"
);
},
{
closed = 1;
nodes = (
"339 630 LINE",
"339 821 LINE",
"313 834 OFFCURVE",
"275 840 OFFCURVE",
"224 840 CURVE",
"224 630 LINE"
);
}
);
width = 470;
}
);
leftKerningGroup = t;
rightKerningGroup = t;
unicode = 0167;
},
{
glyphname = tesh;
lastChange = "2023-04-03 08:16:38 +0000";
layers = (
{
anchors = (
{
name = bottom;
position = "{275, 0}";
},
{
name = center;
position = "{235, 325}";
},
{
name = top;
position = "{224, 840}";
},
{
name = topright;
position = "{449, 650}";
}
);
components = (
{
alignment = -1;
name = esh;
transform = "{1, 0, 0, 1, 355, 0}";
},
{
name = t;
}
);
layerId = "BADE114B-EA49-45B4-AE36-72A7CEB6E1BE";
paths = (
{
closed = 1;
nodes = (
"516 476 LINE",
"516 640 LINE",
"375 640 LINE",
"375 476 LINE"
);
}
);
width = 885;
}
);
unicode = 02A7;
},
{
glyphname = tretroflexhook;
lastChange = "2023-08-11 13:25:37 +0000";
layers = (
{
layerId = "BADE114B-EA49-45B4-AE36-72A7CEB6E1BE";
paths = (
{
closed = 1;
nodes = (
"224 515 LINE",
"224 840 LINE",
"135 840 OFFCURVE",
"110 823 OFFCURVE",
"110 823 CURVE",
"110 823 OFFCURVE",
"105 662 OFFCURVE",
"105 515 CURVE"
);
},
{
closed = 1;
nodes = (
"339 630 LINE",
"339 821 LINE",
"313 834 OFFCURVE",
"275 840 OFFCURVE",
"224 840 CURVE",
"224 630 LINE"
);
},
{
closed = 1;
nodes = (
"357 -240 OFFCURVE",
"392 -234 OFFCURVE",
"421 -225 CURVE",
"426 -167 OFFCURVE",
"421 -98 OFFCURVE",
"415 -47 CURVE",
"351 -59 OFFCURVE",
"338 -45 OFFCURVE",
"338 12 CURVE",
"338 486 LINE",
"105 486 LINE",
"105 -47 LINE",
"106 -206 OFFCURVE",
"175 -240 OFFCURVE",
"291 -240 CURVE"
);
},
{
closed = 1;
nodes = (
"416 476 LINE",
"416 640 LINE",
"45 640 LINE",
"45 476 LINE"
);
}
);
width = 468;
}
);
unicode = 0288;
},
{
glyphname = u;
lastChange = "2023-08-11 13:15:02 +0000";
layers = (
{
anchors = (
{
name = bottom;
position = "{355, 0}";
},
{
name = horn;
position = "{634, 587}";
},
{
name = ogonek;
position = "{545, 0}";
},
{
name = top;
position = "{355, 650}";
},
{
name = topright;
position = "{689, 650}";
}
);
layerId = "BADE114B-EA49-45B4-AE36-72A7CEB6E1BE";
paths = (
{
closed = 1;
nodes = (
"345 -10 OFFCURVE",
"401 5 OFFCURVE",
"430 44 CURVE",
"430 287 LINE",
"430 225 OFFCURVE",
"408 187 OFFCURVE",
"354 187 CURVE",
"297 187 OFFCURVE",
"285 230 OFFCURVE",
"285 287 CURVE",
"285 633 LINE",
"277 643 OFFCURVE",
"229 650 OFFCURVE",
"177 650 CURVE",
"118 650 OFFCURVE",
"77 644 OFFCURVE",
"53 633 CURVE",
"48 536 OFFCURVE",
"45 415 OFFCURVE",
"45 315 CURVE",
"45 99 OFFCURVE",
"97 -10 OFFCURVE",
"284 -10 CURVE"
);
},
{
closed = 1;
nodes = (
"634 0 OFFCURVE",
"659 17 OFFCURVE",
"659 17 CURVE",
"659 17 OFFCURVE",
"664 139 OFFCURVE",
"664 325 CURVE",
"545 325 LINE",
"545 0 LINE"
);
},
{
closed = 1;
nodes = (
"545 650 LINE",
"490 650 OFFCURVE",
"461 645 OFFCURVE",
"430 636 CURVE",
"430 611 LINE",
"430 15 LINE",
"456 5 OFFCURVE",
"494 0 OFFCURVE",
"545 0 CURVE"
);
},
{
closed = 1;
nodes = (
"664 325 LINE",
"664 511 OFFCURVE",
"660 633 OFFCURVE",
"659 633 CURVE",
"659 633 OFFCURVE",
"634 650 OFFCURVE",
"545 650 CURVE",
"545 325 LINE"
);
}
);
width = 709;
}
);
leftKerningGroup = u;
note = u;
rightKerningGroup = dotless_i;
unicode = 0075;
},
{
glyphname = ubar;
lastChange = "2023-08-11 13:25:37 +0000";
layers = (
{
components = (
{
name = u;
transform = "{1, 0, 0, 1, 40, 0}";
}
);
layerId = "BADE114B-EA49-45B4-AE36-72A7CEB6E1BE";
paths = (
{
closed = 1;
nodes = (
"759 358 LINE",
"759 450 LINE",
"30 450 LINE",
"30 358 LINE"
);
}
);
width = 789;
}
);
unicode = 0289;
},
{
glyphname = "upsilon-latin";
lastChange = "2023-08-11 13:25:37 +0000";
layers = (
{
layerId = "BADE114B-EA49-45B4-AE36-72A7CEB6E1BE";
paths = (
{
closed = 1;
nodes = (
"137 461 LINE",
"79 409 OFFCURVE",
"45 331 OFFCURVE",
"45 227 CURVE SMOOTH",
"45 92 OFFCURVE",
"134 -10 OFFCURVE",
"351 -10 CURVE",
"351 163 LINE",
"297 163 OFFCURVE",
"271 207 OFFCURVE",
"271 286 CURVE SMOOTH",
"271 361 OFFCURVE",
"300 411 OFFCURVE",
"318 430 CURVE"
);
},
{
closed = 1;
nodes = (
"55 525 OFFCURVE",
"59 471 OFFCURVE",
"64 460 CURVE",
"137 461 LINE",
"318 430 LINE",
"318 559 LINE",
"55 559 LINE"
);
},
{
closed = 1;
nodes = (
"318 559 LINE",
"318 640 LINE",
"64 640 LINE",
"59 629 OFFCURVE",
"55 593 OFFCURVE",
"55 559 CURVE"
);
},
{
closed = 1;
nodes = (
"402 411 OFFCURVE",
"431 361 OFFCURVE",
"431 286 CURVE SMOOTH",
"431 207 OFFCURVE",
"405 163 OFFCURVE",
"351 163 CURVE",
"351 -10 LINE",
"568 -10 OFFCURVE",
"657 92 OFFCURVE",
"657 227 CURVE SMOOTH",
"657 331 OFFCURVE",
"623 409 OFFCURVE",
"565 461 CURVE",
"384 430 LINE"
);
},
{
closed = 1;
nodes = (
"384 559 LINE",
"384 430 LINE",
"565 461 LINE",
"638 460 LINE",
"643 471 OFFCURVE",
"647 525 OFFCURVE",
"647 559 CURVE"
);
},
{
closed = 1;
nodes = (
"647 593 OFFCURVE",
"643 629 OFFCURVE",
"638 640 CURVE",
"384 640 LINE",
"384 559 LINE",
"647 559 LINE"
);
}
);
width = 702;
}
);
unicode = 028A;
},
{
glyphname = v;
lastChange = "2023-04-03 08:15:56 +0000";
layers = (
{
anchors = (
{
name = bottom;
position = "{370, 0}";
},
{
name = top;
position = "{370, 650}";
}
);
layerId = "BADE114B-EA49-45B4-AE36-72A7CEB6E1BE";
paths = (
{
closed = 1;
nodes = (
"370 0 OFFCURVE",
"371 0 OFFCURVE",
"371 0 CURVE SMOOTH",
"426 0 OFFCURVE",
"492 8 OFFCURVE",
"536 23 CURVE",
"695 627 LINE",
"657 642 OFFCURVE",
"623 650 OFFCURVE",
"562 650 CURVE SMOOTH",
"528 650 OFFCURVE",
"479 646 OFFCURVE",
"452 638 CURVE",
"370 258 LINE",
"370 0 LINE"
);
},
{
closed = 1;
nodes = (
"369 0 OFFCURVE",
"370 0 OFFCURVE",
"370 0 CURVE",
"370 258 LINE",
"288 638 LINE",
"261 646 OFFCURVE",
"212 650 OFFCURVE",
"178 650 CURVE SMOOTH",
"117 650 OFFCURVE",
"83 642 OFFCURVE",
"45 627 CURVE",
"204 23 LINE",
"248 8 OFFCURVE",
"314 0 OFFCURVE",
"369 0 CURVE SMOOTH"
);
}
);
width = 740;
}
);
leftKerningGroup = v;
note = v;
rightKerningGroup = v;
unicode = 0076;
},
{
glyphname = vrighthook;
lastChange = "2023-04-07 11:20:59 +0000";
layers = (
{
layerId = "BADE114B-EA49-45B4-AE36-72A7CEB6E1BE";
paths = (
{
closed = 1;
nodes = (
"370 0 OFFCURVE",
"371 0 OFFCURVE",
"371 0 CURVE SMOOTH",
"426 0 OFFCURVE",
"492 8 OFFCURVE",
"536 23 CURVE",
"634 395 LINE",
"370 258 LINE",
"370 0 LINE"
);
},
{
closed = 1;
nodes = (
"369 0 OFFCURVE",
"370 0 OFFCURVE",
"370 0 CURVE",
"370 258 LINE",
"288 638 LINE",
"261 646 OFFCURVE",
"212 650 OFFCURVE",
"178 650 CURVE SMOOTH",
"117 650 OFFCURVE",
"83 642 OFFCURVE",
"45 627 CURVE",
"204 23 LINE",
"248 8 OFFCURVE",
"314 0 OFFCURVE",
"369 0 CURVE SMOOTH"
);
},
{
closed = 1;
nodes = (
"524 700 OFFCURVE",
"469 630 OFFCURVE",
"426 466 CURVE",
"370 258 LINE",
"634 395 LINE",
"659 496 OFFCURVE",
"707 526 OFFCURVE",
"812 484 CURVE",
"829 526 OFFCURVE",
"842 614 OFFCURVE",
"845 668 CURVE",
"845 668 OFFCURVE",
"763 700 OFFCURVE",
"645 700 CURVE"
);
}
);
width = 875;
}
);
unicode = 2C71;
},
{
glyphname = w;
lastChange = "2023-04-03 08:15:56 +0000";
layers = (
{
anchors = (
{
name = bottom;
position = "{475, 0}";
},
{
name = top;
position = "{475, 650}";
}
);
layerId = "BADE114B-EA49-45B4-AE36-72A7CEB6E1BE";
paths = (
{
closed = 1;
nodes = (
"718 0 OFFCURVE",
"759 12 OFFCURVE",
"787 22 CURVE",
"905 636 LINE",
"869 645 OFFCURVE",
"833 650 OFFCURVE",
"772 650 CURVE SMOOTH",
"738 650 OFFCURVE",
"689 646 OFFCURVE",
"662 638 CURVE",
"620 304 LINE",
"570 474 LINE",
"548 482 OFFCURVE",
"518 488 OFFCURVE",
"475 488 CURVE",
"475 155 LINE",
"534 17 LINE",
"571 5 OFFCURVE",
"604 0 OFFCURVE",
"662 0 CURVE"
);
},
{
closed = 1;
nodes = (
"346 0 OFFCURVE",
"379 5 OFFCURVE",
"416 17 CURVE",
"475 155 LINE",
"475 488 LINE",
"432 488 OFFCURVE",
"402 482 OFFCURVE",
"380 474 CURVE",
"330 304 LINE",
"288 638 LINE",
"261 646 OFFCURVE",
"212 650 OFFCURVE",
"178 650 CURVE SMOOTH",
"117 650 OFFCURVE",
"81 645 OFFCURVE",
"45 636 CURVE",
"163 22 LINE",
"191 12 OFFCURVE",
"232 0 OFFCURVE",
"288 0 CURVE"
);
}
);
width = 950;
}
);
leftKerningGroup = w;
note = w;
rightKerningGroup = w;
unicode = 0077;
},
{
glyphname = x;
lastChange = "2023-08-11 13:17:25 +0000";
layers = (
{
anchors = (
{
name = bottom;
position = "{360, 0}";
},
{
name = top;
position = "{360, 650}";
}
);
layerId = "BADE114B-EA49-45B4-AE36-72A7CEB6E1BE";
paths = (
{
closed = 1;
nodes = (
"596 0 OFFCURVE",
"634 5 OFFCURVE",
"675 14 CURVE",
"550 325 LINE",
"675 636 LINE",
"634 645 OFFCURVE",
"596 650 OFFCURVE",
"540 650 CURVE SMOOTH",
"500 650 OFFCURVE",
"444 648 OFFCURVE",
"414 643 CURVE",
"360 444 LINE",
"360 206 LINE",
"414 7 LINE",
"444 2 OFFCURVE",
"500 0 OFFCURVE",
"540 0 CURVE SMOOTH"
);
},
{
closed = 1;
nodes = (
"220 0 OFFCURVE",
"276 2 OFFCURVE",
"306 7 CURVE",
"360 206 LINE",
"360 444 LINE",
"306 643 LINE",
"276 648 OFFCURVE",
"220 650 OFFCURVE",
"180 650 CURVE SMOOTH",
"124 650 OFFCURVE",
"86 645 OFFCURVE",
"45 636 CURVE",
"170 325 LINE",
"45 14 LINE",
"86 5 OFFCURVE",
"124 0 OFFCURVE",
"180 0 CURVE SMOOTH"
);
}
);
width = 720;
}
);
leftKerningGroup = x;
note = x;
rightKerningGroup = x;
unicode = 0078;
},
{
glyphname = y;
lastChange = "2023-08-11 13:16:32 +0000";
layers = (
{
anchors = (
{
name = bottom;
position = "{370, 0}";
},
{
name = top;
position = "{370, 650}";
}
);
layerId = "BADE114B-EA49-45B4-AE36-72A7CEB6E1BE";
paths = (
{
closed = 1;
nodes = (
"431 -240 OFFCURVE",
"495 -127 OFFCURVE",
"567 135 CURVE",
"370 258 LINE",
"328 65 LINE",
"299 -36 OFFCURVE",
"242 -66 OFFCURVE",
"139 -24 CURVE",
"120 -66 OFFCURVE",
"104 -154 OFFCURVE",
"99 -208 CURVE",
"139 -228 OFFCURVE",
"212 -240 OFFCURVE",
"288 -240 CURVE"
);
},
{
closed = 1;
nodes = (
"370 257 LINE",
"288 637 LINE",
"261 645 OFFCURVE",
"212 649 OFFCURVE",
"178 649 CURVE SMOOTH",
"117 649 OFFCURVE",
"83 641 OFFCURVE",
"45 626 CURVE",
"178 120 LINE",
"187 88 OFFCURVE",
"200 54 OFFCURVE",
"224 39 CURVE SMOOTH",
"251 22 OFFCURVE",
"284 20 OFFCURVE",
"370 20 CURVE"
);
},
{
closed = 1;
nodes = (
"695 627 LINE",
"657 642 OFFCURVE",
"623 650 OFFCURVE",
"562 650 CURVE SMOOTH",
"528 650 OFFCURVE",
"479 646 OFFCURVE",
"452 638 CURVE",
"370 258 LINE",
"567 135 LINE"
);
}
);
width = 740;
}
);
leftKerningGroup = y;
note = y;
rightKerningGroup = y;
unicode = 0079;
},
{
glyphname = ydotbelow;
lastChange = "2023-08-10 14:52:50 +0000";
layers = (
{
anchors = (
{
name = bottom;
position = "{362, 0}";
},
{
name = top;
position = "{362, 650}";
}
);
components = (
{
alignment = -1;
name = dotbelowcomb;
transform = "{1, 0, 0, 1, 500, 68}";
}
);
layerId = "BADE114B-EA49-45B4-AE36-72A7CEB6E1BE";
paths = (
{
closed = 1;
nodes = (
"367 237 LINE",
"306 637 LINE",
"279 645 OFFCURVE",
"230 649 OFFCURVE",
"196 649 CURVE SMOOTH",
"135 649 OFFCURVE",
"101 641 OFFCURVE",
"62 626 CURVE",
"169 120 LINE",
"176 88 OFFCURVE",
"187 54 OFFCURVE",
"211 39 CURVE SMOOTH",
"237 22 OFFCURVE",
"270 20 OFFCURVE",
"356 20 CURVE"
);
},
{
closed = 1;
nodes = (
"316 -240 OFFCURVE",
"385 -189 OFFCURVE",
"448 -48 CURVE SMOOTH",
"751 627 LINE",
"715 642 OFFCURVE",
"663 650 OFFCURVE",
"602 650 CURVE SMOOTH",
"568 650 OFFCURVE",
"517 646 OFFCURVE",
"490 638 CURVE",
"336 235 LINE",
"256 33 LINE SMOOTH",
"216 -69 OFFCURVE",
"166 -66 OFFCURVE",
"67 -24 CURVE",
"45 -65 OFFCURVE",
"19 -154 OFFCURVE",
"15 -197 CURVE",
"52 -224 OFFCURVE",
"145 -240 OFFCURVE",
"205 -240 CURVE SMOOTH"
);
}
);
width = 791;
}
);
leftKerningGroup = y;
rightKerningGroup = y;
unicode = 1EF5;
},
{
glyphname = z;
lastChange = "2023-04-03 08:15:56 +0000";
layers = (
{
anchors = (
{
name = bottom;
position = "{311, 0}";
},
{
name = center;
position = "{311, 325}";
},
{
name = top;
position = "{311, 650}";
}
);
layerId = "BADE114B-EA49-45B4-AE36-72A7CEB6E1BE";
paths = (
{
closed = 1;
nodes = (
"536 396 LINE",
"305 463 LINE",
"312 169 LINE"
);
},
{
closed = 1;
nodes = (
"312 169 LINE",
"80 220 LINE",
"51 185 OFFCURVE",
"45 165 OFFCURVE",
"45 122 CURVE SMOOTH",
"45 88 OFFCURVE",
"50 41 OFFCURVE",
"54 11 CURVE",
"155 2 OFFCURVE",
"306 1 OFFCURVE",
"306 1 CURVE"
);
},
{
closed = 1;
nodes = (
"305 463 LINE",
"80 220 LINE",
"312 169 LINE"
);
},
{
closed = 1;
nodes = (
"566 431 OFFCURVE",
"570 451 OFFCURVE",
"570 495 CURVE SMOOTH",
"570 527 OFFCURVE",
"566 607 OFFCURVE",
"561 637 CURVE",
"461 648 OFFCURVE",
"309 649 OFFCURVE",
"309 649 CURVE",
"305 463 LINE",
"536 396 LINE"
);
},
{
closed = 1;
nodes = (
"136 465 OFFCURVE",
"221 465 OFFCURVE",
"305 463 CURVE",
"309 649 LINE",
"226 650 OFFCURVE",
"156 647 OFFCURVE",
"60 640 CURVE",
"56 622 OFFCURVE",
"52 542 OFFCURVE",
"52 462 CURVE"
);
},
{
closed = 1;
nodes = (
"436 0 OFFCURVE",
"498 4 OFFCURVE",
"570 9 CURVE",
"576 46 OFFCURVE",
"576 98 OFFCURVE",
"576 171 CURVE",
"488 168 OFFCURVE",
"400 167 OFFCURVE",
"312 169 CURVE",
"306 1 LINE"
);
}
);
width = 621;
}
);
leftKerningGroup = z;
note = z;
rightKerningGroup = z;
unicode = 007A;
},
{
glyphname = zcurl;
lastChange = "2023-04-03 08:16:38 +0000";
layers = (
{
layerId = "BADE114B-EA49-45B4-AE36-72A7CEB6E1BE";
paths = (
{
closed = 1;
nodes = (
"536 396 LINE",
"304 456 LINE",
"312 159 LINE"
);
},
{
closed = 1;
nodes = (
"312 159 LINE",
"80 220 LINE",
"51 185 OFFCURVE",
"45 165 OFFCURVE",
"45 122 CURVE SMOOTH",
"45 88 OFFCURVE",
"50 41 OFFCURVE",
"54 11 CURVE",
"155 2 OFFCURVE",
"306 1 OFFCURVE",
"306 1 CURVE"
);
},
{
closed = 1;
nodes = (
"304 456 LINE",
"80 220 LINE",
"312 159 LINE"
);
},
{
closed = 1;
nodes = (
"305 456 LINE",
"309 649 LINE",
"226 650 OFFCURVE",
"156 647 OFFCURVE",
"60 639 CURVE",
"56 621 OFFCURVE",
"52 537 OFFCURVE",
"52 456 CURVE"
);
},
{
closed = 1;
nodes = (
"566 431 OFFCURVE",
"570 451 OFFCURVE",
"570 495 CURVE SMOOTH",
"570 527 OFFCURVE",
"566 607 OFFCURVE",
"561 637 CURVE",
"461 648 OFFCURVE",
"309 649 OFFCURVE",
"309 649 CURVE",
"304 456 LINE",
"536 396 LINE"
);
},
{
closed = 1;
nodes = (
"423 262 OFFCURVE",
"383 199 OFFCURVE",
"360 114 CURVE",
"469 115 LINE",
"478 147 OFFCURVE",
"491 162 OFFCURVE",
"514 162 CURVE",
"519 262 LINE"
);
},
{
closed = 1;
nodes = (
"360 114 LINE",
"301 -74 LINE",
"301 -74 OFFCURVE",
"312 -84 OFFCURVE",
"356 -83 CURVE SMOOTH",
"400 -83 OFFCURVE",
"413 -73 OFFCURVE",
"413 -73 CURVE",
"469 115 LINE"
);
},
{
closed = 1;
nodes = (
"659 216 OFFCURVE",
"605 261 OFFCURVE",
"519 262 CURVE",
"514 162 LINE",
"538 162 OFFCURVE",
"551 147 OFFCURVE",
"551 125 CURVE SMOOTH",
"551 105 OFFCURVE",
"534 90 OFFCURVE",
"507 90 CURVE SMOOTH",
"469 90 OFFCURVE",
"379 117 OFFCURVE",
"312 159 CURVE",
"306 1 LINE",
"514 0 LINE",
"604 0 OFFCURVE",
"659 51 OFFCURVE",
"659 131 CURVE SMOOTH"
);
}
);
width = 689;
}
);
unicode = 0291;
},
{
glyphname = zretroflexhook;
lastChange = "2023-04-03 08:16:38 +0000";
layers = (
{
anchors = (
{
name = bottom;
position = "{311, 0}";
},
{
name = center;
position = "{311, 325}";
},
{
name = top;
position = "{311, 650}";
}
);
layerId = "BADE114B-EA49-45B4-AE36-72A7CEB6E1BE";
paths = (
{
closed = 1;
nodes = (
"536 396 LINE",
"304 456 LINE",
"312 158 LINE"
);
},
{
closed = 1;
nodes = (
"312 158 LINE",
"80 219 LINE",
"51 184 OFFCURVE",
"45 164 OFFCURVE",
"45 121 CURVE SMOOTH",
"45 87 OFFCURVE",
"50 40 OFFCURVE",
"54 10 CURVE",
"155 1 OFFCURVE",
"306 0 OFFCURVE",
"306 0 CURVE"
);
},
{
closed = 1;
nodes = (
"304 456 LINE",
"80 219 LINE",
"312 158 LINE"
);
},
{
closed = 1;
nodes = (
"304 456 LINE",
"309 649 LINE",
"226 650 OFFCURVE",
"156 647 OFFCURVE",
"60 639 CURVE",
"56 621 OFFCURVE",
"52 537 OFFCURVE",
"52 456 CURVE"
);
},
{
closed = 1;
nodes = (
"304 456 LINE",
"309 649 LINE",
"227 650 OFFCURVE",
"156 647 OFFCURVE",
"59 638 CURVE",
"55 621 OFFCURVE",
"52 536 OFFCURVE",
"52 456 CURVE"
);
},
{
closed = 1;
nodes = (
"566 431 OFFCURVE",
"570 451 OFFCURVE",
"570 495 CURVE SMOOTH",
"570 527 OFFCURVE",
"566 607 OFFCURVE",
"561 637 CURVE",
"461 648 OFFCURVE",
"309 649 OFFCURVE",
"309 649 CURVE",
"304 456 LINE",
"536 396 LINE"
);
},
{
closed = 1;
nodes = (
"594 -240 OFFCURVE",
"629 -234 OFFCURVE",
"657 -225 CURVE",
"662 -182 OFFCURVE",
"657 -131 OFFCURVE",
"652 -94 CURVE",
"592 -101 OFFCURVE",
"580 -87 OFFCURVE",
"574 -49 CURVE SMOOTH",
"566 -4 OFFCURVE",
"570 68 OFFCURVE",
"573 114 CURVE SMOOTH",
"575 143 OFFCURVE",
"564 160 OFFCURVE",
"533 160 CURVE SMOOTH",
"312 159 LINE",
"306 0 LINE",
"346 0 LINE",
"349 -169 OFFCURVE",
"387 -240 OFFCURVE",
"529 -240 CURVE SMOOTH"
);
}
);
width = 659;
}
);
unicode = 0290;
},
{
glyphname = a.alt;
lastChange = "2023-04-04 04:18:57 +0000";
layers = (
{
anchors = (
{
name = bottom;
position = "{336, 0}";
},
{
name = ogonek;
position = "{605, 10}";
},
{
name = top;
position = "{336, 650}";
}
);
layerId = "BADE114B-EA49-45B4-AE36-72A7CEB6E1BE";
paths = (
{
closed = 1;
nodes = (
"395 49 LINE",
"400 10 LINE",
"428 1 OFFCURVE",
"479 0 OFFCURVE",
"508 0 CURVE SMOOTH",
"597 0 OFFCURVE",
"622 17 OFFCURVE",
"622 17 CURVE",
"622 17 OFFCURVE",
"627 140 OFFCURVE",
"627 325 CURVE",
"395 411 LINE"
);
},
{
closed = 1;
nodes = (
"300 -10 OFFCURVE",
"360 6 OFFCURVE",
"395 49 CURVE",
"395 411 LINE",
"395 284 LINE",
"395 180 OFFCURVE",
"368 132 OFFCURVE",
"311 132 CURVE SMOOTH",
"286 132 OFFCURVE",
"253 151 OFFCURVE",
"253 192 CURVE SMOOTH",
"253 233 OFFCURVE",
"295 284 OFFCURVE",
"395 284 CURVE",
"395 411 LINE",
"175 411 OFFCURVE",
"45 329 OFFCURVE",
"45 187 CURVE SMOOTH",
"45 68 OFFCURVE",
"119 -10 OFFCURVE",
"234 -10 CURVE SMOOTH"
);
},
{
closed = 1;
nodes = (
"627 325 LINE",
"627 547 OFFCURVE",
"562 660 OFFCURVE",
"350 660 CURVE",
"230 660 OFFCURVE",
"154 620 OFFCURVE",
"52 547 CURVE",
"116 404 LINE",
"181 451 OFFCURVE",
"234 474 OFFCURVE",
"298 474 CURVE",
"353 474 OFFCURVE",
"395 445 OFFCURVE",
"395 411 CURVE"
);
}
);
width = 672;
}
);
},
{
glyphname = f.alt;
lastChange = "2023-08-11 09:18:59 +0000";
layers = (
{
layerId = "BADE114B-EA49-45B4-AE36-72A7CEB6E1BE";
paths = (
{
closed = 1;
nodes = (
"399 476 LINE",
"399 640 LINE",
"45 640 LINE",
"45 476 LINE"
);
},
{
closed = 1;
nodes = (
"168 900 OFFCURVE",
"103 814 OFFCURVE",
"103 685 CURVE SMOOTH",
"103 219 OFFCURVE",
"107 17 OFFCURVE",
"109 17 CURVE SMOOTH",
"109 17 OFFCURVE",
"136 0 OFFCURVE",
"234 0 CURVE SMOOTH",
"290 0 OFFCURVE",
"311 6 OFFCURVE",
"340 19 CURVE",
"340 493 LINE",
"257 601 LINE",
"257 676 OFFCURVE",
"284 713 OFFCURVE",
"371 680 CURVE",
"398 763 OFFCURVE",
"414 833 OFFCURVE",
"417 876 CURVE",
"367 893 OFFCURVE",
"319 900 OFFCURVE",
"277 900 CURVE SMOOTH"
);
}
);
width = 462;
}
);
leftKerningGroup = f;
rightKerningGroup = f;
},
{
glyphname = j.alt;
lastChange = "2023-08-11 09:18:15 +0000";
layers = (
{
anchors = (
{
name = bottom;
position = "{230, 0}";
},
{
name = top;
position = "{233, 650}";
}
);
components = (
{
name = dotaccentcomb;
transform = "{1, 0, 0, 1, 104, -190}";
}
);
layerId = "BADE114B-EA49-45B4-AE36-72A7CEB6E1BE";
paths = (
{
closed = 1;
nodes = (
"304 -240 OFFCURVE",
"364 -174 OFFCURVE",
"364 -25 CURVE SMOOTH",
"364 441 OFFCURVE",
"360 633 OFFCURVE",
"358 633 CURVE SMOOTH",
"358 633 OFFCURVE",
"331 650 OFFCURVE",
"233 650 CURVE SMOOTH",
"177 650 OFFCURVE",
"135 644 OFFCURVE",
"106 631 CURVE",
"106 330 LINE",
"106 167 OFFCURVE",
"210 154 OFFCURVE",
"210 59 CURVE SMOOTH",
"210 -16 OFFCURVE",
"163 -53 OFFCURVE",
"76 -20 CURVE",
"49 -103 OFFCURVE",
"33 -173 OFFCURVE",
"30 -216 CURVE",
"80 -233 OFFCURVE",
"128 -240 OFFCURVE",
"170 -240 CURVE SMOOTH"
);
}
);
width = 414;
}
);
leftKerningGroup = j;
rightKerningGroup = j;
},
{
glyphname = l.alt;
lastChange = "2023-08-11 06:12:31 +0000";
layers = (
{
anchors = (
{
name = bottom;
position = "{202, 0}";
},
{
name = center;
position = "{202, 325}";
},
{
name = top;
position = "{183, 890}";
},
{
name = topright;
position = "{363, 890}";
}
);
layerId = "BADE114B-EA49-45B4-AE36-72A7CEB6E1BE";
paths = (
{
closed = 1;
nodes = (
"266 -10 OFFCURVE",
"323 6 OFFCURVE",
"349 32 CURVE",
"349 166 LINE",
"337 163 LINE SMOOTH",
"312 157 OFFCURVE",
"308 169 OFFCURVE",
"308 198 CURVE SMOOTH",
"308 873 LINE",
"308 873 OFFCURVE",
"272 890 OFFCURVE",
"183 890 CURVE SMOOTH",
"83 890 OFFCURVE",
"56 873 OFFCURVE",
"56 873 CURVE",
"56 872 OFFCURVE",
"50 570 OFFCURVE",
"50 166 CURVE SMOOTH",
"50 53 OFFCURVE",
"84 -10 OFFCURVE",
"203 -10 CURVE SMOOTH"
);
}
);
width = 383;
}
);
leftKerningGroup = L;
note = l;
rightKerningGroup = l;
},
{
glyphname = t.alt;
lastChange = "2023-08-11 09:18:28 +0000";
layers = (
{
layerId = "BADE114B-EA49-45B4-AE36-72A7CEB6E1BE";
paths = (
{
closed = 1;
nodes = (
"396 476 LINE",
"396 640 LINE",
"45 640 LINE",
"45 476 LINE"
);
},
{
closed = 1;
nodes = (
"315 -10 OFFCURVE",
"349 -3 OFFCURVE",
"396 14 CURVE",
"393 66 OFFCURVE",
"385 143 OFFCURVE",
"373 210 CURVE",
"286 177 OFFCURVE",
"263 197 OFFCURVE",
"263 239 CURVE SMOOTH",
"263 296 OFFCURVE",
"340 303 OFFCURVE",
"340 403 CURVE",
"340 811 LINE",
"311 824 OFFCURVE",
"292 830 OFFCURVE",
"236 830 CURVE SMOOTH",
"138 830 OFFCURVE",
"111 813 OFFCURVE",
"111 813 CURVE SMOOTH",
"109 813 OFFCURVE",
"105 671 OFFCURVE",
"105 205 CURVE SMOOTH",
"105 56 OFFCURVE",
"151 -10 OFFCURVE",
"276 -10 CURVE SMOOTH"
);
}
);
width = 441;
}
);
leftKerningGroup = t;
rightKerningGroup = t;
},
{
export = 0;
glyphname = dlinebelow;
lastChange = "2023-08-11 13:25:32 +0000";
layers = (
{
components = (
{
name = d;
}
);
layerId = "BADE114B-EA49-45B4-AE36-72A7CEB6E1BE";
paths = (
{
closed = 1;
nodes = (
"95 -125 LINE",
"656 -125 LINE",
"656 -50 LINE",
"95 -50 LINE"
);
}
);
width = 716;
}
);
unicode = 1E0F;
},
{
export = 0;
glyphname = glottalstopsmall;
lastChange = "2023-08-11 13:25:32 +0000";
layers = (
{
layerId = "BADE114B-EA49-45B4-AE36-72A7CEB6E1BE";
paths = (
{
closed = 1;
nodes = (
"615 362 LINE",
"615 571 OFFCURVE",
"519 650 OFFCURVE",
"330 650 CURVE",
"330 484 LINE",
"368 484 OFFCURVE",
"390 450 OFFCURVE",
"390 362 CURVE"
);
},
{
closed = 1;
nodes = (
"270 352 LINE",
"270 450 OFFCURVE",
"292 484 OFFCURVE",
"330 484 CURVE",
"330 650 LINE",
"141 650 OFFCURVE",
"45 571 OFFCURVE",
"45 352 CURVE"
);
},
{
closed = 1;
nodes = (
"455 85 LINE",
"455 85 LINE",
"455 163 OFFCURVE",
"514 154 OFFCURVE",
"559 197 CURVE SMOOTH",
"596 231 OFFCURVE",
"615 282 OFFCURVE",
"615 362 CURVE",
"390 362 LINE",
"390 306 OFFCURVE",
"379 268 OFFCURVE",
"306 243 CURVE SMOOTH",
"211 211 OFFCURVE",
"205 166 OFFCURVE",
"205 85 CURVE"
);
},
{
closed = 1;
nodes = (
"330 85 LINE",
"205 85 LINE",
"205 53 OFFCURVE",
"211 17 OFFCURVE",
"211 17 CURVE",
"211 17 OFFCURVE",
"236 0 OFFCURVE",
"330 0 CURVE"
);
},
{
closed = 1;
nodes = (
"424 0 OFFCURVE",
"449 17 OFFCURVE",
"449 17 CURVE",
"449 17 OFFCURVE",
"455 53 OFFCURVE",
"455 85 CURVE",
"330 85 LINE",
"330 0 LINE"
);
},
{
closed = 1;
nodes = (
"233 341 OFFCURVE",
"270 352 OFFCURVE",
"270 352 CURVE",
"45 352 LINE",
"45 352 OFFCURVE",
"81 341 OFFCURVE",
"157 341 CURVE"
);
}
);
width = 660;
}
);
unicode = 0242;
},
{
export = 0;
glyphname = "iota-latin";
lastChange = "2023-08-11 13:25:32 +0000";
layers = (
{
layerId = "BADE114B-EA49-45B4-AE36-72A7CEB6E1BE";
paths = (
{
closed = 1;
nodes = (
"266 -10 OFFCURVE",
"323 6 OFFCURVE",
"349 32 CURVE",
"349 166 LINE",
"337 163 LINE SMOOTH",
"312 157 OFFCURVE",
"308 169 OFFCURVE",
"308 198 CURVE SMOOTH",
"308 633 LINE",
"308 633 OFFCURVE",
"272 650 OFFCURVE",
"183 650 CURVE SMOOTH",
"83 650 OFFCURVE",
"56 633 OFFCURVE",
"56 633 CURVE",
"56 632 OFFCURVE",
"51 570 OFFCURVE",
"50 358 CURVE SMOOTH",
"50 132 OFFCURVE",
"50 71 OFFCURVE",
"79 32 CURVE SMOOTH",
"102 1 OFFCURVE",
"131 -10 OFFCURVE",
"203 -10 CURVE SMOOTH"
);
}
);
width = 383;
}
);
unicode = 0269;
},
{
export = 0;
glyphname = khook;
lastChange = "2023-08-11 13:25:32 +0000";
layers = (
{
anchors = (
{
name = bottom;
position = "{352, 0}";
},
{
name = top;
position = "{352, 650}";
}
);
layerId = "BADE114B-EA49-45B4-AE36-72A7CEB6E1BE";
paths = (
{
closed = 1;
nodes = (
"325 243 LINE",
"457 379 LINE",
"636 622 LINE",
"636 622 OFFCURVE",
"601 645 OFFCURVE",
"520 649 CURVE SMOOTH",
"435 653 OFFCURVE",
"393 642 OFFCURVE",
"393 642 CURVE",
"279 475 LINE",
"279 204 LINE"
);
},
{
closed = 1;
nodes = (
"164 515 LINE",
"45 515 LINE",
"46 329 OFFCURVE",
"49 17 OFFCURVE",
"50 17 CURVE",
"50 17 OFFCURVE",
"75 0 OFFCURVE",
"164 0 CURVE"
);
},
{
closed = 1;
nodes = (
"219 0 OFFCURVE",
"248 6 OFFCURVE",
"279 18 CURVE",
"279 515 LINE",
"164 515 LINE",
"164 0 LINE"
);
},
{
closed = 1;
nodes = (
"631 6 OFFCURVE",
"659 23 OFFCURVE",
"659 23 CURVE",
"451 428 LINE",
"311 272 LINE",
"416 8 LINE",
"416 8 OFFCURVE",
"457 -5 OFFCURVE",
"542 0 CURVE SMOOTH"
);
},
{
closed = 1;
nodes = (
"115 900 OFFCURVE",
"46 866 OFFCURVE",
"45 707 CURVE",
"45 515 LINE",
"279 515 LINE",
"279 648 LINE",
"279 705 OFFCURVE",
"292 719 OFFCURVE",
"356 707 CURVE",
"362 758 OFFCURVE",
"367 827 OFFCURVE",
"362 885 CURVE",
"333 894 OFFCURVE",
"298 900 OFFCURVE",
"231 900 CURVE"
);
}
);
width = 704;
}
);
unicode = 0199;
},
{
export = 0;
glyphname = phook;
lastChange = "2023-08-11 13:25:32 +0000";
layers = (
{
anchors = (
{
name = bottom;
position = "{356, 0}";
},
{
name = top;
position = "{356, 650}";
}
);
layerId = "BADE114B-EA49-45B4-AE36-72A7CEB6E1BE";
paths = (
{
closed = 1;
nodes = (
"583 -10 OFFCURVE",
"666 101 OFFCURVE",
"666 325 CURVE SMOOTH",
"666 548 OFFCURVE",
"583 658 OFFCURVE",
"417 660 CURVE SMOOTH",
"365 660 OFFCURVE",
"294 645 OFFCURVE",
"279 609 CURVE",
"279 401 LINE",
"279 431 OFFCURVE",
"302 484 OFFCURVE",
"355 484 CURVE SMOOTH",
"401 484 OFFCURVE",
"434 436 OFFCURVE",
"434 325 CURVE SMOOTH",
"434 214 OFFCURVE",
"401 166 OFFCURVE",
"355 166 CURVE SMOOTH",
"311 166 OFFCURVE",
"279 195 OFFCURVE",
"279 220 CURVE",
"279 9 LINE",
"305 -2 OFFCURVE",
"351 -10 OFFCURVE",
"417 -10 CURVE SMOOTH"
);
},
{
closed = 1;
nodes = (
"164 515 LINE",
"45 515 LINE",
"45 138 OFFCURVE",
"50 -223 OFFCURVE",
"50 -223 CURVE",
"50 -223 OFFCURVE",
"75 -240 OFFCURVE",
"164 -240 CURVE"
);
},
{
closed = 1;
nodes = (
"219 -240 OFFCURVE",
"248 -234 OFFCURVE",
"279 -222 CURVE",
"279 515 LINE",
"164 515 LINE",
"164 -240 LINE"
);
},
{
closed = 1;
nodes = (
"115 900 OFFCURVE",
"46 866 OFFCURVE",
"45 707 CURVE",
"45 515 LINE",
"279 515 LINE",
"279 648 LINE",
"279 705 OFFCURVE",
"292 719 OFFCURVE",
"356 707 CURVE",
"362 758 OFFCURVE",
"367 827 OFFCURVE",
"362 885 CURVE",
"333 894 OFFCURVE",
"298 900 OFFCURVE",
"231 900 CURVE"
);
}
);
width = 711;
}
);
unicode = 01A5;
},
{
export = 0;
glyphname = tlinebelow;
lastChange = "2023-08-11 13:25:32 +0000";
layers = (
{
components = (
{
name = t;
}
);
layerId = "BADE114B-EA49-45B4-AE36-72A7CEB6E1BE";
paths = (
{
closed = 1;
nodes = (
"95 -125 LINE",
"406 -125 LINE",
"406 -50 LINE",
"95 -50 LINE"
);
}
);
width = 469;
}
);
unicode = 1E6F;
},
{
export = 0;
glyphname = yhook;
lastChange = "2023-08-11 13:25:32 +0000";
layers = (
{
anchors = (
{
name = bottom;
position = "{370, 0}";
},
{
name = top;
position = "{370, 650}";
}
);
layerId = "BADE114B-EA49-45B4-AE36-72A7CEB6E1BE";
paths = (
{
closed = 1;
nodes = (
"524 700 OFFCURVE",
"469 630 OFFCURVE",
"426 466 CURVE",
"370 258 LINE",
"634 395 LINE",
"659 496 OFFCURVE",
"707 526 OFFCURVE",
"812 484 CURVE",
"829 526 OFFCURVE",
"842 614 OFFCURVE",
"845 668 CURVE",
"845 668 OFFCURVE",
"763 700 OFFCURVE",
"645 700 CURVE"
);
},
{
closed = 1;
nodes = (
"431 -240 OFFCURVE",
"495 -127 OFFCURVE",
"567 135 CURVE",
"370 258 LINE",
"328 65 LINE",
"299 -36 OFFCURVE",
"242 -66 OFFCURVE",
"139 -24 CURVE",
"120 -66 OFFCURVE",
"104 -154 OFFCURVE",
"99 -208 CURVE",
"139 -228 OFFCURVE",
"212 -240 OFFCURVE",
"288 -240 CURVE"
);
},
{
closed = 1;
nodes = (
"370 257 LINE",
"288 637 LINE",
"261 645 OFFCURVE",
"212 649 OFFCURVE",
"178 649 CURVE SMOOTH",
"117 649 OFFCURVE",
"83 641 OFFCURVE",
"45 626 CURVE",
"178 120 LINE",
"187 88 OFFCURVE",
"200 54 OFFCURVE",
"224 39 CURVE SMOOTH",
"251 22 OFFCURVE",
"284 20 OFFCURVE",
"370 20 CURVE"
);
},
{
closed = 1;
nodes = (
"634 395 LINE",
"370 258 LINE",
"567 135 LINE"
);
}
);
width = 875;
}
);
unicode = 01B4;
},
{
glyphname = clickalveolar;
lastChange = "2023-04-03 08:16:38 +0000";
layers = (
{
layerId = "BADE114B-EA49-45B4-AE36-72A7CEB6E1BE";
paths = (
{
closed = 1;
nodes = (
"293 0 LINE",
"293 840 LINE",
"118 840 LINE",
"118 0 LINE"
);
},
{
closed = 1;
nodes = (
"391 365 LINE",
"391 467 LINE",
"20 467 LINE",
"20 365 LINE"
);
},
{
closed = 1;
nodes = (
"391 528 LINE",
"391 630 LINE",
"20 630 LINE",
"20 528 LINE"
);
}
);
width = 411;
}
);
unicode = 01C2;
},
{
glyphname = clickdental;
lastChange = "2023-04-03 08:16:38 +0000";
layers = (
{
layerId = "BADE114B-EA49-45B4-AE36-72A7CEB6E1BE";
paths = (
{
closed = 1;
nodes = (
"225 0 LINE",
"225 840 LINE",
"50 840 LINE",
"50 0 LINE"
);
}
);
width = 275;
}
);
unicode = 01C0;
},
{
glyphname = clicklateral;
lastChange = "2023-04-03 08:16:38 +0000";
layers = (
{
layerId = "BADE114B-EA49-45B4-AE36-72A7CEB6E1BE";
paths = (
{
closed = 1;
nodes = (
"205 0 LINE",
"205 840 LINE",
"50 840 LINE",
"50 0 LINE"
);
},
{
closed = 1;
nodes = (
"420 0 LINE",
"420 840 LINE",
"265 840 LINE",
"265 0 LINE"
);
}
);
width = 540;
}
);
unicode = 01C1;
},
{
glyphname = ordfeminine;
lastChange = "2023-04-04 04:18:57 +0000";
layers = (
{
layerId = "BADE114B-EA49-45B4-AE36-72A7CEB6E1BE";
paths = (
{
closed = 1;
nodes = (
"242 440 OFFCURVE",
"285 449 OFFCURVE",
"294 471 CURVE",
"294 597 LINE",
"294 579 OFFCURVE",
"280 547 OFFCURVE",
"248 547 CURVE SMOOTH",
"220 547 OFFCURVE",
"200 576 OFFCURVE",
"200 643 CURVE SMOOTH",
"200 710 OFFCURVE",
"220 739 OFFCURVE",
"248 739 CURVE SMOOTH",
"274 739 OFFCURVE",
"294 722 OFFCURVE",
"294 707 CURVE",
"294 828 LINE",
"278 835 OFFCURVE",
"250 840 OFFCURVE",
"210 840 CURVE SMOOTH",
"110 840 OFFCURVE",
"59 779 OFFCURVE",
"59 643 CURVE SMOOTH",
"59 508 OFFCURVE",
"110 441 OFFCURVE",
"210 440 CURVE SMOOTH"
);
},
{
closed = 1;
nodes = (
"445 353 LINE",
"445 403 LINE",
"45 403 LINE",
"45 353 LINE"
);
},
{
closed = 1;
nodes = (
"418 446 OFFCURVE",
"433 456 OFFCURVE",
"433 456 CURVE",
"433 457 OFFCURVE",
"436 531 OFFCURVE",
"436 643 CURVE",
"364 643 LINE",
"364 446 LINE"
);
},
{
closed = 1;
nodes = (
"364 840 LINE",
"333 840 OFFCURVE",
"310 836 OFFCURVE",
"294 828 CURVE",
"294 471 LINE",
"294 457 LINE",
"313 450 OFFCURVE",
"330 446 OFFCURVE",
"364 446 CURVE"
);
},
{
closed = 1;
nodes = (
"436 643 LINE",
"436 756 OFFCURVE",
"433 830 OFFCURVE",
"433 830 CURVE",
"433 830 OFFCURVE",
"418 840 OFFCURVE",
"364 840 CURVE",
"364 643 LINE"
);
}
);
width = 490;
}
);
leftKerningGroup = superscript;
note = ordfeminine;
rightKerningGroup = superscript;
unicode = 00AA;
},
{
glyphname = ordmasculine;
lastChange = "2023-04-04 04:18:57 +0000";
layers = (
{
layerId = "BADE114B-EA49-45B4-AE36-72A7CEB6E1BE";
paths = (
{
closed = 1;
nodes = (
"305 440 OFFCURVE",
"364 455 OFFCURVE",
"397 486 CURVE SMOOTH",
"429 517 OFFCURVE",
"445 578 OFFCURVE",
"445 640 CURVE SMOOTH",
"445 701 OFFCURVE",
"429 762 OFFCURVE",
"397 793 CURVE SMOOTH",
"364 824 OFFCURVE",
"305 840 OFFCURVE",
"245 840 CURVE SMOOTH",
"186 840 OFFCURVE",
"127 824 OFFCURVE",
"94 793 CURVE SMOOTH",
"61 762 OFFCURVE",
"45 701 OFFCURVE",
"45 640 CURVE SMOOTH",
"45 578 OFFCURVE",
"61 517 OFFCURVE",
"94 486 CURVE SMOOTH",
"127 455 OFFCURVE",
"186 440 OFFCURVE",
"246 440 CURVE SMOOTH"
);
},
{
closed = 1;
nodes = (
"445 350 LINE",
"445 400 LINE",
"45 400 LINE",
"45 350 LINE"
);
},
{
closed = 1;
nodes = (
"213 550 OFFCURVE",
"197 580 OFFCURVE",
"197 640 CURVE",
"197 640 LINE",
"197 699 OFFCURVE",
"213 729 OFFCURVE",
"246 729 CURVE SMOOTH",
"278 729 OFFCURVE",
"294 699 OFFCURVE",
"294 640 CURVE",
"294 640 LINE",
"294 580 OFFCURVE",
"278 550 OFFCURVE",
"246 550 CURVE SMOOTH"
);
}
);
width = 490;
}
);
leftKerningGroup = superscript;
note = ordmasculine;
rightKerningGroup = superscript;
unicode = 00BA;
},
{
export = 0;
glyphname = "Be-cy";
lastChange = "2023-08-10 15:24:07 +0000";
layers = (
{
layerId = "BADE114B-EA49-45B4-AE36-72A7CEB6E1BE";
paths = (
{
closed = 1;
nodes = (
"316 420 LINE",
"316 840 LINE",
"139 840 OFFCURVE",
"67 818 OFFCURVE",
"67 818 CURVE",
"67 818 OFFCURVE",
"50 630 OFFCURVE",
"50 420 CURVE"
);
},
{
closed = 1;
nodes = (
"316 326 LINE",
"344 326 LINE SMOOTH",
"401 326 OFFCURVE",
"435 305 OFFCURVE",
"434 249 CURVE SMOOTH",
"434 194 OFFCURVE",
"401 174 OFFCURVE",
"344 174 CURVE SMOOTH",
"316 174 LINE",
"316 -10 LINE",
"534 -11 OFFCURVE",
"690 43 OFFCURVE",
"690 243 CURVE SMOOTH",
"690 455 OFFCURVE",
"534 511 OFFCURVE",
"316 511 CURVE"
);
},
{
closed = 1;
nodes = (
"50 156 OFFCURVE",
"59 22 OFFCURVE",
"59 22 CURVE",
"119 2 OFFCURVE",
"234 -10 OFFCURVE",
"316 -10 CURVE",
"316 420 LINE",
"50 420 LINE"
);
},
{
closed = 1;
nodes = (
"332 623 OFFCURVE",
"389 625 OFFCURVE",
"458 625 CURVE SMOOTH",
"499 625 OFFCURVE",
"523 608 OFFCURVE",
"531 588 CURVE",
"624 586 LINE",
"631 605 OFFCURVE",
"635 637 OFFCURVE",
"636 702 CURVE SMOOTH",
"637 772 OFFCURVE",
"632 807 OFFCURVE",
"628 828 CURVE",
"518 840 OFFCURVE",
"462 841 OFFCURVE",
"315 840 CURVE",
"305 619 LINE"
);
}
);
width = 735;
}
);
unicode = 0411;
},
{
export = 0;
glyphname = "De-cy";
lastChange = "2023-04-03 08:15:51 +0000";
layers = (
{
layerId = "BADE114B-EA49-45B4-AE36-72A7CEB6E1BE";
paths = (
{
closed = 1;
nodes = (
"537 616 LINE",
"470 840 LINE",
"412 616 LINE"
);
},
{
closed = 1;
nodes = (
"782 639 OFFCURVE",
"774 783 OFFCURVE",
"769 820 CURVE",
"682 834 OFFCURVE",
"580 840 OFFCURVE",
"470 840 CURVE",
"537 616 LINE",
"537 420 LINE",
"782 420 LINE"
);
},
{
closed = 1;
nodes = (
"605 0 LINE",
"605 -156 LINE",
"665 -156 OFFCURVE",
"769 -150 OFFCURVE",
"839 -134 CURVE",
"839 -134 OFFCURVE",
"860 -2 OFFCURVE",
"860 143 CURVE SMOOTH",
"860 188 OFFCURVE",
"836 196 OFFCURVE",
"782 196 CURVE",
"782 420 LINE",
"537 420 LINE",
"537 196 LINE",
"30 196 LINE",
"30 0 LINE"
);
},
{
closed = 1;
nodes = (
"30 -156 LINE",
"90 -156 OFFCURVE",
"194 -150 OFFCURVE",
"264 -134 CURVE",
"265 -134 OFFCURVE",
"286 6 OFFCURVE",
"285 171 CURVE",
"285 196 LINE",
"30 196 LINE"
);
},
{
closed = 1;
nodes = (
"167 260 OFFCURVE",
"95 196 OFFCURVE",
"30 196 CURVE",
"30 107 LINE",
"348 107 OFFCURVE",
"412 220 OFFCURVE",
"412 531 CURVE SMOOTH",
"412 616 LINE",
"470 840 LINE",
"341 840 OFFCURVE",
"267 833 OFFCURVE",
"167 816 CURVE",
"167 713 OFFCURVE",
"167 572 OFFCURVE",
"167 481 CURVE SMOOTH"
);
}
);
width = 880;
}
);
leftKerningGroup = "De-cy";
unicode = 0414;
},
{
export = 0;
glyphname = "Zhe-cy";
lastChange = "2023-04-03 08:15:51 +0000";
layers = (
{
layerId = "BADE114B-EA49-45B4-AE36-72A7CEB6E1BE";
paths = (
{
closed = 1;
nodes = (
"281 -1 OFFCURVE {stroke = {w = \"1\";};}",
"308 18 OFFCURVE {stroke = {w = \"1\";};}",
"308 18 CURVE {stroke = {w = \"1\";};}",
"505 375 LINE {stroke = {w = \"1\";};}",
"505 420 LINE {stroke = {w = \"1\";};}",
"268 420 LINE",
"45 35 LINE {stroke = {w = \"1\";};}",
"45 35 OFFCURVE {stroke = {w = \"1\";};}",
"92 0 OFFCURVE {stroke = {w = \"1\";};}",
"191 0 CURVE {stroke = {w = \"1\";};}"
);
},
{
closed = 1;
nodes = (
"578 420 LINE",
"445 420 LINE",
"445 22 LINE",
"445 22 OFFCURVE",
"489 0 OFFCURVE",
"578 0 CURVE"
);
},
{
closed = 1;
nodes = (
"578 840 LINE",
"489 840 OFFCURVE",
"445 818 OFFCURVE",
"445 818 CURVE",
"445 420 LINE",
"578 420 LINE"
);
},
{
closed = 1;
nodes = (
"505 465 LINE {stroke = {w = \"1\";};}",
"308 822 LINE {stroke = {w = \"1\";};}",
"308 822 OFFCURVE {stroke = {w = \"1\";};}",
"281 840 OFFCURVE {stroke = {w = \"1\";};}",
"191 840 CURVE {stroke = {w = \"1\";};}",
"92 840 OFFCURVE {stroke = {w = \"1\";};}",
"45 805 OFFCURVE {stroke = {w = \"1\";};}",
"45 805 CURVE {stroke = {w = \"1\";};}",
"268 420 LINE",
"505 420 LINE {stroke = {w = \"1\";};}"
);
},
{
closed = 1;
nodes = (
"1064 0 OFFCURVE {stroke = {w = \"1\";};}",
"1111 35 OFFCURVE {stroke = {w = \"1\";};}",
"1111 35 CURVE {stroke = {w = \"1\";};}",
"888 420 LINE",
"651 420 LINE {stroke = {w = \"1\";};}",
"651 375 LINE {stroke = {w = \"1\";};}",
"848 18 LINE {stroke = {w = \"1\";};}",
"848 18 OFFCURVE {stroke = {w = \"1\";};}",
"875 -1 OFFCURVE {stroke = {w = \"1\";};}",
"965 0 CURVE {stroke = {w = \"1\";};}"
);
},
{
closed = 1;
nodes = (
"667 0 OFFCURVE",
"711 22 OFFCURVE",
"711 22 CURVE",
"711 420 LINE",
"578 420 LINE",
"578 0 LINE"
);
},
{
closed = 1;
nodes = (
"711 420 LINE",
"711 818 LINE",
"711 818 OFFCURVE",
"667 840 OFFCURVE",
"578 840 CURVE",
"578 420 LINE"
);
},
{
closed = 1;
nodes = (
"888 420 LINE",
"1111 805 LINE {stroke = {w = \"1\";};}",
"1111 805 OFFCURVE {stroke = {w = \"1\";};}",
"1064 840 OFFCURVE {stroke = {w = \"1\";};}",
"965 840 CURVE {stroke = {w = \"1\";};}",
"875 840 OFFCURVE {stroke = {w = \"1\";};}",
"848 822 OFFCURVE {stroke = {w = \"1\";};}",
"848 822 CURVE {stroke = {w = \"1\";};}",
"651 465 LINE {stroke = {w = \"1\";};}",
"651 420 LINE {stroke = {w = \"1\";};}"
);
}
);
width = 1156;
}
);
unicode = 0416;
},
{
export = 0;
glyphname = "El-cy";
lastChange = "2023-04-03 08:15:51 +0000";
layers = (
{
layerId = "BADE114B-EA49-45B4-AE36-72A7CEB6E1BE";
paths = (
{
closed = 1;
nodes = (
"422 460 LINE",
"422 840 LINE",
"359 840 OFFCURVE",
"249 834 OFFCURVE",
"167 818 CURVE",
"167 526 LINE"
);
},
{
closed = 1;
nodes = (
"669 420 LINE",
"537 420 LINE",
"537 309 LINE",
"537 22 LINE",
"537 22 OFFCURVE",
"580 0 OFFCURVE",
"669 0 CURVE"
);
},
{
closed = 1;
nodes = (
"537 616 LINE",
"537 840 LINE",
"422 840 LINE",
"422 616 LINE"
);
},
{
closed = 1;
nodes = (
"758 0 OFFCURVE",
"793 22 OFFCURVE",
"793 22 CURVE",
"793 22 OFFCURVE",
"802 180 OFFCURVE",
"802 420 CURVE",
"669 420 LINE",
"669 0 LINE"
);
},
{
closed = 1;
nodes = (
"802 660 OFFCURVE",
"793 818 OFFCURVE",
"793 818 CURVE",
"720 834 OFFCURVE",
"600 840 OFFCURVE",
"537 840 CURVE",
"537 420 LINE",
"802 420 LINE"
);
},
{
closed = 1;
nodes = (
"335 0 OFFCURVE",
"424 124 OFFCURVE",
"422 460 CURVE",
"167 526 LINE",
"167 287 OFFCURVE",
"141 219 OFFCURVE",
"30 219 CURVE",
"92 0 LINE"
);
},
{
closed = 1;
nodes = (
"802 660 OFFCURVE",
"793 818 OFFCURVE",
"793 818 CURVE",
"720 834 OFFCURVE",
"600 840 OFFCURVE",
"537 840 CURVE",
"537 420 LINE",
"802 420 LINE"
);
}
);
width = 852;
}
);
unicode = 041B;
},
{
export = 0;
glyphname = "Pe-cy";
lastChange = "2023-04-03 08:15:51 +0000";
layers = (
{
layerId = "BADE114B-EA49-45B4-AE36-72A7CEB6E1BE";
paths = (
{
closed = 1;
nodes = (
"183 420 LINE",
"50 420 LINE",
"50 180 OFFCURVE",
"59 12 OFFCURVE",
"59 12 CURVE",
"59 12 OFFCURVE",
"94 0 OFFCURVE",
"183 0 CURVE"
);
},
{
closed = 1;
nodes = (
"272 0 OFFCURVE",
"315 12 OFFCURVE",
"315 12 CURVE",
"315 309 LINE",
"315 420 LINE",
"183 420 LINE",
"183 0 LINE"
);
},
{
closed = 1;
nodes = (
"315 420 LINE",
"315 616 LINE",
"398 840 LINE",
"252 840 OFFCURVE",
"132 836 OFFCURVE",
"59 825 CURVE",
"59 825 OFFCURVE",
"50 660 OFFCURVE",
"50 420 CURVE"
);
},
{
closed = 1;
nodes = (
"612 420 LINE",
"480 420 LINE",
"480 309 LINE",
"480 12 LINE",
"480 12 OFFCURVE",
"523 0 OFFCURVE",
"612 0 CURVE"
);
},
{
closed = 1;
nodes = (
"480 616 LINE",
"398 840 LINE",
"315 616 LINE"
);
},
{
closed = 1;
nodes = (
"701 0 OFFCURVE",
"736 12 OFFCURVE",
"736 12 CURVE",
"736 12 OFFCURVE",
"745 180 OFFCURVE",
"745 420 CURVE",
"612 420 LINE",
"612 0 LINE"
);
},
{
closed = 1;
nodes = (
"745 660 OFFCURVE",
"736 825 OFFCURVE",
"736 825 CURVE",
"663 836 OFFCURVE",
"543 840 OFFCURVE",
"398 840 CURVE",
"480 616 LINE",
"480 420 LINE",
"745 420 LINE"
);
}
);
width = 826;
}
);
unicode = 041F;
},
{
export = 0;
glyphname = "U-cy";
lastChange = "2023-04-03 08:15:51 +0000";
layers = (
{
anchors = (
{
name = top;
position = "{415, 840}";
}
);
layerId = "BADE114B-EA49-45B4-AE36-72A7CEB6E1BE";
paths = (
{
closed = 1;
nodes = (
"484 0 OFFCURVE",
"557 71 OFFCURVE",
"639 354 CURVE",
"428 470 LINE",
"386 304 LINE",
"367 235 OFFCURVE",
"333 198 OFFCURVE",
"159 261 CURVE",
"137 206 OFFCURVE",
"113 114 OFFCURVE",
"106 40 CURVE",
"175 19 OFFCURVE",
"245 0 OFFCURVE",
"336 0 CURVE"
);
},
{
closed = 1;
nodes = (
"440 310 LINE",
"394 499 LINE",
"183 383 LINE",
"218 272 OFFCURVE",
"274 262 OFFCURVE",
"368 284 CURVE"
);
},
{
closed = 1;
nodes = (
"785 818 LINE",
"744 832 OFFCURVE",
"706 840 OFFCURVE",
"639 840 CURVE SMOOTH",
"601 840 OFFCURVE",
"548 836 OFFCURVE",
"517 829 CURVE",
"428 470 LINE",
"639 354 LINE"
);
},
{
closed = 1;
nodes = (
"394 499 LINE",
"313 828 LINE",
"282 835 OFFCURVE",
"229 839 OFFCURVE",
"191 839 CURVE SMOOTH",
"124 839 OFFCURVE",
"86 831 OFFCURVE",
"45 817 CURVE",
"183 383 LINE"
);
}
);
width = 830;
}
);
leftKerningGroup = "U-cy";
unicode = 0423;
},
{
export = 0;
glyphname = "Ef-cy";
lastChange = "2023-04-03 08:15:51 +0000";
layers = (
{
background = {
paths = (
{
closed = 1;
nodes = (
"254 286 OFFCURVE",
"372 200 OFFCURVE",
"604 200 CURVE SMOOTH",
"864 200 OFFCURVE",
"954 312 OFFCURVE",
"954 525 CURVE SMOOTH",
"954 764 OFFCURVE",
"837 850 OFFCURVE",
"604 850 CURVE SMOOTH",
"372 850 OFFCURVE",
"254 764 OFFCURVE",
"254 525 CURVE SMOOTH"
);
},
{
closed = 1;
nodes = (
"519 592 OFFCURVE",
"529 709 OFFCURVE",
"604 709 CURVE SMOOTH",
"680 709 OFFCURVE",
"689 592 OFFCURVE",
"689 525 CURVE SMOOTH",
"689 458 OFFCURVE",
"680 341 OFFCURVE",
"604 341 CURVE SMOOTH",
"529 341 OFFCURVE",
"519 458 OFFCURVE",
"519 525 CURVE SMOOTH"
);
}
);
};
layerId = "BADE114B-EA49-45B4-AE36-72A7CEB6E1BE";
paths = (
{
closed = 1;
nodes = (
"532 0 OFFCURVE",
"567 12 OFFCURVE",
"567 12 CURVE",
"568 12 OFFCURVE",
"577 104 OFFCURVE",
"576 222 CURVE",
"553 222 LINE",
"553 618 LINE",
"576 618 LINE",
"577 736 OFFCURVE",
"568 828 OFFCURVE",
"567 828 CURVE SMOOTH",
"567 828 OFFCURVE",
"532 840 OFFCURVE",
"443 840 CURVE SMOOTH",
"354 840 OFFCURVE",
"319 828 OFFCURVE",
"319 828 CURVE SMOOTH",
"318 828 OFFCURVE",
"309 736 OFFCURVE",
"310 618 CURVE",
"333 618 LINE",
"333 222 LINE",
"310 222 LINE",
"309 104 OFFCURVE",
"318 12 OFFCURVE",
"319 12 CURVE",
"319 12 OFFCURVE",
"354 0 OFFCURVE",
"443 0 CURVE SMOOTH"
);
},
{
closed = 1;
nodes = (
"259 420 LINE",
"259 547 OFFCURVE",
"300 588 OFFCURVE",
"443 588 CURVE SMOOTH",
"587 588 OFFCURVE",
"627 547 OFFCURVE",
"627 420 CURVE",
"841 420 LINE",
"841 685 OFFCURVE",
"708 780 OFFCURVE",
"443 780 CURVE SMOOTH",
"179 780 OFFCURVE",
"45 685 OFFCURVE",
"45 420 CURVE"
);
},
{
closed = 1;
nodes = (
"45 155 OFFCURVE",
"179 60 OFFCURVE",
"443 60 CURVE SMOOTH",
"708 60 OFFCURVE",
"841 155 OFFCURVE",
"841 420 CURVE",
"627 420 LINE",
"627 293 OFFCURVE",
"587 252 OFFCURVE",
"443 252 CURVE SMOOTH",
"300 252 OFFCURVE",
"259 293 OFFCURVE",
"259 420 CURVE",
"45 420 LINE"
);
}
);
width = 886;
}
);
leftKerningGroup = "Ef-cy";
rightKerningGroup = "Ef-cy";
unicode = 0424;
},
{
export = 0;
glyphname = "Che-cy";
lastChange = "2023-04-03 08:15:51 +0000";
layers = (
{
layerId = "BADE114B-EA49-45B4-AE36-72A7CEB6E1BE";
paths = (
{
closed = 1;
nodes = (
"740 420 LINE",
"740 660 OFFCURVE",
"731 818 OFFCURVE",
"731 818 CURVE",
"731 818 OFFCURVE",
"696 840 OFFCURVE",
"607 840 CURVE",
"607 420 LINE"
);
},
{
closed = 1;
nodes = (
"607 420 LINE",
"475 420 LINE",
"475 22 LINE",
"475 22 OFFCURVE",
"518 0 OFFCURVE",
"607 0 CURVE"
);
},
{
closed = 1;
nodes = (
"696 0 OFFCURVE",
"731 22 OFFCURVE",
"731 22 CURVE",
"731 22 OFFCURVE",
"740 180 OFFCURVE",
"740 420 CURVE",
"607 420 LINE",
"607 0 LINE"
);
},
{
closed = 1;
nodes = (
"607 420 LINE",
"607 840 LINE",
"518 840 OFFCURVE",
"475 818 OFFCURVE",
"475 818 CURVE",
"475 456 LINE",
"475 420 LINE"
);
},
{
closed = 1;
nodes = (
"45 287 OFFCURVE",
"137 221 OFFCURVE",
"291 221 CURVE SMOOTH",
"396 221 OFFCURVE",
"474 277 OFFCURVE",
"475 294 CURVE",
"475 482 LINE",
"461 460 OFFCURVE",
"439 446 OFFCURVE",
"411 442 CURVE SMOOTH",
"356 434 OFFCURVE",
"310 445 OFFCURVE",
"310 541 CURVE",
"310 639 OFFCURVE",
"310 818 OFFCURVE",
"310 818 CURVE",
"310 818 OFFCURVE",
"266 840 OFFCURVE",
"177 840 CURVE SMOOTH",
"88 840 OFFCURVE",
"45 818 OFFCURVE",
"45 818 CURVE SMOOTH",
"45 818 OFFCURVE",
"45 634 OFFCURVE",
"45 449 CURVE"
);
}
);
width = 790;
}
);
unicode = 0427;
},
{
export = 0;
glyphname = "Tse-cy";
lastChange = "2023-04-03 08:15:51 +0000";
layers = (
{
layerId = "BADE114B-EA49-45B4-AE36-72A7CEB6E1BE";
paths = (
{
closed = 1;
nodes = (
"94 840 OFFCURVE",
"59 818 OFFCURVE",
"59 818 CURVE",
"59 818 OFFCURVE",
"50 660 OFFCURVE",
"50 420 CURVE",
"183 420 LINE",
"183 840 LINE"
);
},
{
closed = 1;
nodes = (
"183 420 LINE",
"315 420 LINE",
"315 818 LINE",
"315 818 OFFCURVE",
"272 840 OFFCURVE",
"183 840 CURVE"
);
},
{
closed = 1;
nodes = (
"50 180 OFFCURVE",
"59 22 OFFCURVE",
"59 22 CURVE",
"132 6 OFFCURVE",
"252 0 OFFCURVE",
"398 0 CURVE",
"315 224 LINE",
"315 420 LINE",
"50 420 LINE"
);
},
{
closed = 1;
nodes = (
"523 840 OFFCURVE",
"480 818 OFFCURVE",
"480 818 CURVE",
"480 420 LINE",
"612 420 LINE",
"612 840 LINE"
);
},
{
closed = 1;
nodes = (
"398 0 LINE",
"480 224 LINE",
"315 224 LINE"
);
},
{
closed = 1;
nodes = (
"612 224 LINE",
"745 224 LINE",
"745 660 OFFCURVE",
"736 818 OFFCURVE",
"736 818 CURVE",
"736 818 OFFCURVE",
"701 840 OFFCURVE",
"612 840 CURVE"
);
},
{
closed = 1;
nodes = (
"612 224 LINE",
"612 420 LINE",
"480 420 LINE",
"480 224 LINE",
"398 0 LINE",
"578 0 LINE",
"578 -156 LINE",
"638 -156 OFFCURVE",
"732 -150 OFFCURVE",
"802 -134 CURVE",
"802 -134 OFFCURVE",
"823 6 OFFCURVE",
"823 171 CURVE SMOOTH",
"823 216 OFFCURVE",
"799 224 OFFCURVE",
"745 224 CURVE SMOOTH"
);
}
);
width = 868;
}
);
unicode = 0426;
},
{
export = 0;
glyphname = "Sha-cy";
lastChange = "2023-04-03 08:15:51 +0000";
layers = (
{
layerId = "BADE114B-EA49-45B4-AE36-72A7CEB6E1BE";
paths = (
{
closed = 1;
nodes = (
"94 840 OFFCURVE",
"59 818 OFFCURVE",
"59 818 CURVE",
"59 818 OFFCURVE",
"50 660 OFFCURVE",
"50 420 CURVE",
"183 420 LINE",
"183 840 LINE"
);
},
{
closed = 1;
nodes = (
"183 420 LINE",
"315 420 LINE",
"315 818 LINE",
"315 818 OFFCURVE",
"272 840 OFFCURVE",
"183 840 CURVE"
);
},
{
closed = 1;
nodes = (
"483 840 OFFCURVE",
"440 818 OFFCURVE",
"440 818 CURVE",
"440 420 LINE",
"572 420 LINE",
"572 840 LINE"
);
},
{
closed = 1;
nodes = (
"572 420 LINE",
"572 840 LINE"
);
},
{
closed = 1;
nodes = (
"50 180 OFFCURVE",
"59 22 OFFCURVE",
"59 22 CURVE",
"207 3 OFFCURVE",
"371 0 OFFCURVE",
"572 0 CURVE",
"572 420 LINE",
"440 420 LINE",
"440 224 LINE",
"315 224 LINE",
"315 420 LINE",
"50 420 LINE"
);
},
{
closed = 1;
nodes = (
"961 420 LINE",
"1094 420 LINE",
"1094 660 OFFCURVE",
"1085 818 OFFCURVE",
"1085 818 CURVE",
"1085 818 OFFCURVE",
"1050 840 OFFCURVE",
"961 840 CURVE"
);
},
{
closed = 1;
nodes = (
"872 840 OFFCURVE",
"829 818 OFFCURVE",
"829 818 CURVE",
"829 420 LINE",
"961 420 LINE",
"961 840 LINE"
);
},
{
closed = 1;
nodes = (
"572 420 LINE",
"704 420 LINE",
"704 818 LINE",
"704 818 OFFCURVE",
"661 840 OFFCURVE",
"572 840 CURVE"
);
},
{
closed = 1;
nodes = (
"572 420 LINE",
"572 840 LINE"
);
},
{
closed = 1;
nodes = (
"829 420 LINE",
"829 224 LINE",
"704 224 LINE",
"704 420 LINE",
"572 420 LINE",
"572 0 LINE",
"773 0 OFFCURVE",
"937 3 OFFCURVE",
"1085 22 CURVE",
"1085 22 OFFCURVE",
"1094 180 OFFCURVE",
"1094 420 CURVE"
);
}
);
width = 1144;
}
);
unicode = 0428;
},
{
export = 0;
glyphname = "Shcha-cy";
lastChange = "2023-04-03 08:15:51 +0000";
layers = (
{
layerId = "BADE114B-EA49-45B4-AE36-72A7CEB6E1BE";
paths = (
{
closed = 1;
nodes = (
"94 840 OFFCURVE",
"59 818 OFFCURVE",
"59 818 CURVE",
"59 818 OFFCURVE",
"50 660 OFFCURVE",
"50 420 CURVE",
"183 420 LINE",
"183 840 LINE"
);
},
{
closed = 1;
nodes = (
"183 420 LINE",
"315 420 LINE",
"315 818 LINE",
"315 818 OFFCURVE",
"272 840 OFFCURVE",
"183 840 CURVE"
);
},
{
closed = 1;
nodes = (
"483 840 OFFCURVE",
"440 818 OFFCURVE",
"440 818 CURVE",
"440 420 LINE",
"572 420 LINE",
"572 840 LINE"
);
},
{
closed = 1;
nodes = (
"572 420 LINE",
"572 840 LINE"
);
},
{
closed = 1;
nodes = (
"50 180 OFFCURVE",
"59 22 OFFCURVE",
"59 22 CURVE",
"207 3 OFFCURVE",
"371 0 OFFCURVE",
"572 0 CURVE",
"572 420 LINE",
"440 420 LINE",
"440 224 LINE",
"315 224 LINE",
"315 420 LINE",
"50 420 LINE"
);
},
{
closed = 1;
nodes = (
"872 840 OFFCURVE",
"829 818 OFFCURVE",
"829 818 CURVE",
"829 420 LINE",
"961 420 LINE",
"961 840 LINE"
);
},
{
closed = 1;
nodes = (
"572 420 LINE",
"704 420 LINE",
"704 818 LINE",
"704 818 OFFCURVE",
"661 840 OFFCURVE",
"572 840 CURVE"
);
},
{
closed = 1;
nodes = (
"572 420 LINE",
"572 840 LINE"
);
},
{
closed = 1;
nodes = (
"961 224 LINE",
"1094 224 LINE",
"1094 660 OFFCURVE",
"1085 818 OFFCURVE",
"1085 818 CURVE",
"1085 818 OFFCURVE",
"1050 840 OFFCURVE",
"961 840 CURVE"
);
},
{
closed = 1;
nodes = (
"961 224 LINE",
"961 420 LINE",
"829 420 LINE",
"829 224 LINE",
"572 0 LINE",
"927 0 LINE",
"927 -156 LINE",
"987 -156 OFFCURVE",
"1081 -150 OFFCURVE",
"1151 -134 CURVE",
"1151 -134 OFFCURVE",
"1172 6 OFFCURVE",
"1172 171 CURVE SMOOTH",
"1172 216 OFFCURVE",
"1148 224 OFFCURVE",
"1094 224 CURVE SMOOTH"
);
},
{
closed = 1;
nodes = (
"704 420 LINE",
"572 420 LINE",
"572 0 LINE",
"829 224 LINE",
"704 224 LINE"
);
}
);
width = 1217;
}
);
unicode = 0429;
},
{
export = 0;
glyphname = "Dzhe-cy";
lastChange = "2023-04-03 08:15:51 +0000";
layers = (
{
components = (
{
name = "Pe-cy";
transform = "{1, 0, 0, -1, 0, 840}";
}
);
layerId = "BADE114B-EA49-45B4-AE36-72A7CEB6E1BE";
paths = (
{
closed = 1;
nodes = (
"264 -31 OFFCURVE",
"273 -112 OFFCURVE",
"274 -112 CURVE",
"274 -112 OFFCURVE",
"309 -120 OFFCURVE",
"398 -120 CURVE SMOOTH",
"487 -120 OFFCURVE",
"522 -112 OFFCURVE",
"522 -112 CURVE",
"523 -112 OFFCURVE",
"532 -31 OFFCURVE",
"531 51 CURVE",
"265 51 LINE"
);
}
);
width = 826;
}
);
unicode = 040F;
},
{
export = 0;
glyphname = "Hardsign-cy";
lastChange = "2023-04-03 08:15:51 +0000";
layers = (
{
layerId = "BADE114B-EA49-45B4-AE36-72A7CEB6E1BE";
paths = (
{
closed = 1;
nodes = (
"55 156 OFFCURVE",
"64 22 OFFCURVE",
"64 22 CURVE",
"124 2 OFFCURVE",
"224 -10 OFFCURVE",
"306 -10 CURVE",
"306 420 LINE",
"55 420 LINE"
);
},
{
closed = 1;
nodes = (
"306 800 OFFCURVE",
"287 840 OFFCURVE",
"224 840 CURVE SMOOTH",
"103 840 OFFCURVE",
"-23 819 OFFCURVE",
"-23 819 CURVE",
"-38 749 OFFCURVE",
"-44 655 OFFCURVE",
"-45 595 CURVE",
"306 595 LINE",
"306 746 LINE SMOOTH"
);
},
{
closed = 1;
nodes = (
"55 420 LINE",
"306 420 LINE",
"306 595 LINE",
"55 595 LINE"
);
},
{
closed = 1;
nodes = (
"306 348 LINE",
"334 348 LINE SMOOTH",
"391 348 OFFCURVE",
"425 325 OFFCURVE",
"424 266 CURVE SMOOTH",
"424 207 OFFCURVE",
"391 186 OFFCURVE",
"334 186 CURVE SMOOTH",
"306 186 LINE",
"306 -10 LINE",
"524 -11 OFFCURVE",
"680 46 OFFCURVE",
"680 259 CURVE SMOOTH",
"680 485 OFFCURVE",
"524 545 OFFCURVE",
"306 545 CURVE"
);
}
);
width = 725;
}
);
unicode = 042A;
},
{
export = 0;
glyphname = "Lje-cy";
lastChange = "2023-04-03 08:15:51 +0000";
layers = (
{
layerId = "BADE114B-EA49-45B4-AE36-72A7CEB6E1BE";
paths = (
{
closed = 1;
nodes = (
"422 460 LINE",
"422 840 LINE",
"359 840 OFFCURVE",
"249 834 OFFCURVE",
"167 818 CURVE",
"167 526 LINE"
);
},
{
closed = 1;
nodes = (
"537 616 LINE",
"537 840 LINE",
"422 840 LINE",
"422 616 LINE"
);
},
{
closed = 1;
nodes = (
"335 0 OFFCURVE",
"424 124 OFFCURVE",
"422 460 CURVE",
"167 526 LINE",
"167 287 OFFCURVE",
"141 219 OFFCURVE",
"30 219 CURVE",
"92 0 LINE"
);
},
{
closed = 1;
nodes = (
"802 348 LINE",
"830 348 LINE SMOOTH",
"887 348 OFFCURVE",
"921 325 OFFCURVE",
"920 266 CURVE SMOOTH",
"920 207 OFFCURVE",
"887 186 OFFCURVE",
"830 186 CURVE SMOOTH",
"802 186 LINE",
"802 -10 LINE",
"1020 -11 OFFCURVE",
"1176 46 OFFCURVE",
"1176 259 CURVE SMOOTH",
"1176 485 OFFCURVE",
"1020 545 OFFCURVE",
"802 545 CURVE"
);
},
{
closed = 1;
nodes = (
"537 420 LINE",
"802 420 LINE",
"802 465 LINE {stroke = {w = \"1\";};}",
"802 818 LINE",
"802 818 OFFCURVE",
"714 840 OFFCURVE",
"537 840 CURVE"
);
},
{
closed = 1;
nodes = (
"537 13 LINE",
"537 13 OFFCURVE",
"623 -10 OFFCURVE",
"802 -10 CURVE",
"802 420 LINE",
"537 420 LINE"
);
}
);
width = 1221;
}
);
unicode = 0409;
},
{
export = 0;
glyphname = "Nje-cy";
lastChange = "2023-04-03 08:15:51 +0000";
layers = (
{
layerId = "BADE114B-EA49-45B4-AE36-72A7CEB6E1BE";
paths = (
{
closed = 1;
nodes = (
"183 420 LINE",
"50 420 LINE",
"50 180 OFFCURVE",
"59 22 OFFCURVE",
"59 22 CURVE",
"59 22 OFFCURVE",
"94 0 OFFCURVE",
"183 0 CURVE"
);
},
{
closed = 1;
nodes = (
"272 0 OFFCURVE",
"315 22 OFFCURVE",
"315 22 CURVE",
"315 309 LINE",
"315 420 LINE",
"183 420 LINE",
"183 0 LINE"
);
},
{
closed = 1;
nodes = (
"183 420 LINE",
"183 840 LINE",
"94 840 OFFCURVE",
"59 818 OFFCURVE",
"59 818 CURVE",
"59 818 OFFCURVE",
"50 660 OFFCURVE",
"50 420 CURVE"
);
},
{
closed = 1;
nodes = (
"480 309 LINE",
"480 533 LINE",
"315 533 LINE",
"315 309 LINE"
);
},
{
closed = 1;
nodes = (
"315 420 LINE",
"315 533 LINE",
"315 818 LINE",
"315 818 OFFCURVE",
"272 840 OFFCURVE",
"183 840 CURVE",
"183 420 LINE"
);
},
{
closed = 1;
nodes = (
"612 420 LINE",
"612 840 LINE",
"523 840 OFFCURVE",
"480 818 OFFCURVE",
"480 818 CURVE",
"480 533 LINE",
"480 420 LINE"
);
},
{
closed = 1;
nodes = (
"745 348 LINE",
"773 348 LINE SMOOTH",
"830 348 OFFCURVE",
"864 325 OFFCURVE",
"863 266 CURVE SMOOTH",
"863 207 OFFCURVE",
"830 186 OFFCURVE",
"773 186 CURVE SMOOTH",
"745 186 LINE",
"745 -10 LINE",
"963 -11 OFFCURVE",
"1119 46 OFFCURVE",
"1119 259 CURVE SMOOTH",
"1119 485 OFFCURVE",
"963 545 OFFCURVE",
"745 545 CURVE"
);
},
{
closed = 1;
nodes = (
"612 420 LINE",
"745 420 LINE",
"745 465 LINE {stroke = {w = \"1\";};}",
"745 818 LINE",
"745 818 OFFCURVE",
"701 840 OFFCURVE",
"612 840 CURVE"
);
},
{
closed = 1;
nodes = (
"480 304 LINE",
"480 13 LINE",
"480 13 OFFCURVE",
"566 -10 OFFCURVE",
"745 -10 CURVE",
"745 420 LINE",
"480 420 LINE"
);
}
);
width = 1164;
}
);
unicode = 040A;
},
{
export = 0;
glyphname = "Ereversed-cy";
lastChange = "2023-04-03 08:15:51 +0000";
layers = (
{
layerId = "BADE114B-EA49-45B4-AE36-72A7CEB6E1BE";
paths = (
{
closed = 1;
nodes = (
"185 850 OFFCURVE",
"74 764 OFFCURVE",
"45 552 CURVE",
"108 532 OFFCURVE",
"188 522 OFFCURVE",
"275 514 CURVE",
"291 599 OFFCURVE",
"324 641 OFFCURVE",
"390 641 CURVE SMOOTH",
"456 641 OFFCURVE",
"493 591 OFFCURVE",
"493 420 CURVE",
"736 420 LINE",
"736 674 OFFCURVE",
"665 850 OFFCURVE",
"386 850 CURVE SMOOTH"
);
},
{
closed = 1;
nodes = (
"622 512 LINE",
"345 513 LINE",
"342 483 OFFCURVE",
"339 452 OFFCURVE",
"339 421 CURVE",
"339 388 OFFCURVE",
"341 358 OFFCURVE",
"345 327 CURVE",
"622 326 LINE"
);
},
{
closed = 1;
nodes = (
"665 -10 OFFCURVE",
"736 166 OFFCURVE",
"736 420 CURVE",
"493 420 LINE",
"493 249 OFFCURVE",
"456 199 OFFCURVE",
"390 199 CURVE SMOOTH",
"324 199 OFFCURVE",
"291 241 OFFCURVE",
"275 326 CURVE",
"188 318 OFFCURVE",
"108 308 OFFCURVE",
"45 288 CURVE",
"74 76 OFFCURVE",
"185 -10 OFFCURVE",
"386 -10 CURVE SMOOTH"
);
}
);
width = 781;
}
);
unicode = 042D;
},
{
export = 0;
glyphname = "Tshe-cy";
lastChange = "2023-04-03 08:15:51 +0000";
layers = (
{
layerId = "BADE114B-EA49-45B4-AE36-72A7CEB6E1BE";
paths = (
{
closed = 1;
nodes = (
"221 615 LINE",
"221 180 OFFCURVE",
"230 22 OFFCURVE",
"230 22 CURVE",
"230 22 OFFCURVE",
"265 0 OFFCURVE",
"354 0 CURVE",
"354 615 LINE"
);
},
{
closed = 1;
nodes = (
"354 615 LINE",
"354 0 LINE",
"443 0 OFFCURVE",
"486 22 OFFCURVE",
"486 22 CURVE",
"486 384 LINE",
"486 615 LINE"
);
},
{
closed = 1;
nodes = (
"916 483 OFFCURVE",
"824 549 OFFCURVE",
"670 549 CURVE SMOOTH",
"566 549 OFFCURVE",
"488 493 OFFCURVE",
"486 476 CURVE",
"486 298 LINE",
"500 320 OFFCURVE",
"522 334 OFFCURVE",
"550 338 CURVE SMOOTH",
"605 346 OFFCURVE",
"651 335 OFFCURVE",
"651 239 CURVE",
"651 191 OFFCURVE",
"651 22 OFFCURVE",
"651 22 CURVE",
"651 22 OFFCURVE",
"695 0 OFFCURVE",
"784 0 CURVE SMOOTH",
"873 0 OFFCURVE",
"916 22 OFFCURVE",
"916 22 CURVE SMOOTH",
"916 22 OFFCURVE",
"916 206 OFFCURVE",
"916 321 CURVE"
);
},
{
closed = 1;
nodes = (
"354 724 LINE",
"354 840 LINE",
"255 840 OFFCURVE",
"165 837 OFFCURVE",
"54 833 CURVE",
"49 823 OFFCURVE",
"45 773 OFFCURVE",
"45 724 CURVE"
);
},
{
closed = 1;
nodes = (
"693 724 LINE",
"693 773 OFFCURVE",
"689 823 OFFCURVE",
"684 833 CURVE",
"574 837 OFFCURVE",
"454 840 OFFCURVE",
"354 840 CURVE",
"354 724 LINE"
);
},
{
closed = 1;
nodes = (
"45 675 OFFCURVE",
"49 624 OFFCURVE",
"54 615 CURVE",
"164 615 OFFCURVE",
"254 615 OFFCURVE",
"354 615 CURVE",
"354 724 LINE",
"45 724 LINE"
);
},
{
closed = 1;
nodes = (
"354 615 LINE",
"454 615 OFFCURVE",
"575 615 OFFCURVE",
"684 615 CURVE",
"689 624 OFFCURVE",
"693 675 OFFCURVE",
"693 724 CURVE",
"354 724 LINE"
);
}
);
width = 961;
}
);
unicode = 040B;
},
{
export = 0;
glyphname = "Iu-cy";
lastChange = "2023-04-03 08:15:51 +0000";
layers = (
{
components = (
{
name = I;
},
{
name = O;
transform = "{1, 0, 0, 1, 366, 0}";
}
);
layerId = "BADE114B-EA49-45B4-AE36-72A7CEB6E1BE";
paths = (
{
closed = 1;
nodes = (
"480 309 LINE",
"480 533 LINE",
"259 533 LINE",
"259 309 LINE"
);
}
);
width = 1156;
}
);
unicode = 042E;
},
